<?xml version="1.0" encoding="utf-8"?>
<!-- Generator: Adobe Illustrator 21.0.2, SVG Export Plug-In . SVG Version: 6.00 Build 0)  -->
<svg version="1.1" id="Isolation_Mode" xmlns="http://www.w3.org/2000/svg" xmlns:xlink="http://www.w3.org/1999/xlink" x="0px"
	 y="0px" viewBox="0 0 200 200" style="enable-background:new 0 0 200 200;" xml:space="preserve">
<style type="text/css">
	.st0{opacity:0.2;fill:#3498DB;enable-background:new    ;}
	.st1{opacity:0.2;fill:#FFFFFF;enable-background:new    ;}
	.st2{opacity:0.4;}
	.st3{fill:#FFFFFF;}
	.st4{fill:#4DFFEC;}
	.st5{opacity:0.4;fill:#3498DB;}
	.st6{opacity:0.4;fill:#6EF0F5;}
	.st7{fill:none;stroke:#FFFFFF;stroke-linejoin:round;stroke-miterlimit:10;}
	.st8{opacity:0.6;fill:#18AFFE;enable-background:new    ;}
	.st9{fill:#FFD94F;}
	.st10{fill:#858585;}
	.st11{fill:#FFA432;}
	.st12{fill:#58DBB9;}
	.st13{fill:#074263;}
	.st14{opacity:0.2;}
	.st15{fill:#3498DB;}
	.st16{fill:none;stroke:#FFFFFF;stroke-linejoin:round;}
	.st17{fill:none;stroke:#FFFFFF;stroke-linejoin:round;stroke-dasharray:2.8071,3.7427;}
</style>
<g>
	<g>
		<circle class="st0" cx="103.3" cy="101.8" r="91.7"/>
		<path class="st0" d="M103.3,169.4c-37.3,0-67.6-30.3-67.6-67.6S66,34.2,103.3,34.2s67.6,30.3,67.6,67.6
			C171,139.1,140.6,169.4,103.3,169.4z"/>
		<path class="st1" d="M103.4,183.6L103.4,183.6c-1.4,0-2.7,0-4-0.1l0.1-2.6c1.3,0.1,2.6,0.1,3.8,0.1h0.1V183.6z M107.3,183.5
			l-0.1-2.6c1.3-0.1,2.6-0.2,3.8-0.3l0.2,2.6C110,183.4,108.7,183.5,107.3,183.5z M95.4,183.3c-1.3-0.1-2.6-0.3-3.9-0.5l0.4-2.6
			c1.3,0.2,2.5,0.3,3.8,0.5L95.4,183.3z M115.2,182.8l-0.4-2.6c1.3-0.2,2.5-0.4,3.8-0.6l0.5,2.6
			C117.8,182.4,116.5,182.6,115.2,182.8z M87.6,182.1c-1.3-0.2-2.6-0.5-3.9-0.8l0.6-2.5c1.2,0.3,2.5,0.6,3.7,0.8L87.6,182.1z
			 M123,181.3l-0.6-2.5c1.2-0.3,2.5-0.6,3.7-1l0.7,2.5C125.5,180.6,124.3,181,123,181.3z M79.9,180.3c-1.3-0.4-2.5-0.8-3.8-1.2
			l0.9-2.5c1.2,0.4,2.4,0.8,3.6,1.2L79.9,180.3z M130.6,179l-0.9-2.5c1.2-0.4,2.4-0.9,3.6-1.4l1,2.4
			C133.1,178.1,131.8,178.6,130.6,179z M72.4,177.6c-1.2-0.5-2.4-1-3.6-1.6l1.1-2.4c1.2,0.5,2.3,1.1,3.5,1.5L72.4,177.6z M137.9,176
			l-1.1-2.4c1.2-0.5,2.3-1.1,3.4-1.7l1.2,2.3C140.3,174.9,139.1,175.5,137.9,176z M65.2,174.3c-1.2-0.6-2.3-1.3-3.5-1.9l1.3-2.2
			c1.1,0.6,2.2,1.3,3.3,1.9L65.2,174.3z M144.9,172.3l-1.3-2.2c1.1-0.6,2.2-1.3,3.2-2l1.4,2.2C147.2,171,146,171.7,144.9,172.3z
			 M58.4,170.3c-1.1-0.7-2.2-1.5-3.3-2.3l1.5-2.1c1,0.8,2.1,1.5,3.1,2.2L58.4,170.3z M151.5,168l-1.5-2.1c1-0.7,2-1.5,3-2.3l1.6,2
			C153.6,166.4,152.6,167.2,151.5,168z M52,165.6c-1-0.8-2-1.7-3-2.6l1.7-2c1,0.8,1.9,1.7,2.9,2.5L52,165.6z M157.7,163l-1.7-1.9
			c0.9-0.8,1.9-1.7,2.8-2.6l1.8,1.9C159.6,161.2,158.6,162.1,157.7,163z M46.1,160.4c-0.2-0.2-0.5-0.5-0.7-0.7
			c-0.7-0.7-1.4-1.4-2.1-2.1l1.9-1.8c0.6,0.7,1.3,1.4,2,2.1c0.2,0.2,0.5,0.5,0.7,0.7L46.1,160.4z M163.3,157.5l-1.9-1.8
			c0.9-0.9,1.7-1.9,2.5-2.9l2,1.7C165.1,155.5,164.2,156.5,163.3,157.5z M40.7,154.6c-0.8-1-1.7-2-2.5-3.1l2.1-1.6
			c0.8,1,1.6,2,2.4,3L40.7,154.6z M168.4,151.4l-2.1-1.6c0.8-1,1.5-2.1,2.3-3.1l2.1,1.5C170,149.3,169.2,150.4,168.4,151.4z
			 M35.9,148.3c-0.7-1.1-1.5-2.2-2.2-3.3l2.2-1.4c0.7,1.1,1.4,2.2,2.1,3.2L35.9,148.3z M172.9,144.9l-2.2-1.4
			c0.7-1.1,1.3-2.2,1.9-3.3l2.3,1.3C174.3,142.7,173.6,143.8,172.9,144.9z M31.7,141.6c-0.6-1.1-1.3-2.3-1.8-3.5l2.3-1.2
			c0.6,1.1,1.2,2.3,1.8,3.4L31.7,141.6z M176.8,138l-2.3-1.2c0.6-1.1,1.1-2.3,1.6-3.5l2.4,1C177.9,135.6,177.4,136.8,176.8,138z
			 M28.2,134.5c-0.5-1.2-1-2.4-1.5-3.7l2.4-0.9c0.5,1.2,0.9,2.4,1.4,3.5L28.2,134.5z M179.9,130.8l-2.4-0.9c0.4-1.2,0.9-2.4,1.3-3.6
			l2.5,0.8C180.8,128.3,180.4,129.5,179.9,130.8z M25.4,127.1c-0.4-1.2-0.8-2.5-1.1-3.8l2.5-0.7c0.3,1.2,0.7,2.5,1.1,3.7L25.4,127.1
			z M182.4,123.2l-2.5-0.7c0.3-1.2,0.6-2.5,0.9-3.7l2.5,0.6C183,120.7,182.7,122,182.4,123.2z M23.3,119.5c-0.3-1.3-0.5-2.6-0.8-3.9
			l2.6-0.4c0.2,1.3,0.5,2.5,0.7,3.8L23.3,119.5z M184.1,115.5l-2.6-0.4c0.2-1.3,0.4-2.5,0.5-3.8l2.6,0.3
			C184.5,112.9,184.3,114.2,184.1,115.5z M22,111.6c-0.2-1.3-0.3-2.6-0.4-3.9l2.6-0.2c0.1,1.3,0.2,2.6,0.4,3.8L22,111.6z M185,107.6
			l-2.6-0.2c0.1-1.3,0.1-2.6,0.2-3.8l2.6,0.1C185.1,105,185.1,106.3,185,107.6z M21.4,103.8c0-0.7,0-1.3,0-2s0-1.3,0-2l2.6,0.1
			c0,0.6,0,1.3,0,1.9s0,1.3,0,1.9L21.4,103.8z M182.6,99.8c0-1.3-0.1-2.6-0.2-3.8l2.6-0.2c0.1,1.3,0.2,2.6,0.2,4H182.6z M24.2,96
			l-2.6-0.2c0.1-1.3,0.2-2.6,0.4-3.9l2.6,0.3C24.4,93.5,24.3,94.8,24.2,96z M182,92.1c-0.2-1.3-0.3-2.5-0.5-3.8l2.6-0.4
			c0.2,1.3,0.4,2.6,0.6,3.9L182,92.1z M25.1,88.4L22.6,88c0.2-1.3,0.5-2.6,0.8-3.9l2.5,0.6C25.6,85.9,25.3,87.2,25.1,88.4z
			 M180.7,84.6c-0.3-1.2-0.6-2.5-0.9-3.7l2.5-0.7c0.3,1.3,0.7,2.6,0.9,3.8L180.7,84.6z M26.8,80.9l-2.5-0.7c0.3-1.3,0.7-2.5,1.1-3.8
			l2.5,0.8C27.5,78.5,27.1,79.7,26.8,80.9z M178.7,77.2c-0.4-1.2-0.8-2.4-1.3-3.6l2.4-0.9c0.5,1.2,0.9,2.5,1.3,3.7L178.7,77.2z
			 M29.1,73.6l-2.4-0.9c0.5-1.2,1-2.5,1.5-3.7l2.4,1C30.1,71.3,29.6,72.5,29.1,73.6z M176,70c-0.5-1.2-1.1-2.3-1.6-3.5l2.3-1.2
			c0.6,1.2,1.1,2.4,1.7,3.6L176,70z M32.2,66.6l-2.3-1.2c0.6-1.2,1.2-2.4,1.8-3.5l2.3,1.3C33.4,64.3,32.8,65.5,32.2,66.6z
			 M172.6,63.2c-0.6-1.1-1.3-2.2-1.9-3.3l2.2-1.4c0.7,1.1,1.4,2.3,2,3.4L172.6,63.2z M35.9,59.9l-2.2-1.4c0.7-1.1,1.4-2.2,2.2-3.3
			l2.1,1.5C37.3,57.8,36.6,58.9,35.9,59.9z M168.5,56.7c-0.7-1-1.5-2.1-2.3-3.1l2.1-1.6c0.8,1,1.6,2.1,2.3,3.2L168.5,56.7z
			 M40.3,53.6L38.2,52c0.8-1,1.6-2.1,2.5-3.1l2,1.7C41.9,51.6,41.1,52.6,40.3,53.6z M163.9,50.6c-0.8-1-1.7-1.9-2.5-2.9l1.9-1.8
			c0.9,1,1.8,2,2.6,3L163.9,50.6z M45.2,47.8L43.3,46c0.7-0.7,1.4-1.5,2.1-2.2c0.2-0.2,0.5-0.5,0.7-0.7l1.8,1.9
			c-0.2,0.2-0.4,0.4-0.7,0.7C46.6,46.4,45.9,47.1,45.2,47.8z M158.7,45c-0.9-0.9-1.9-1.8-2.8-2.6l1.7-2c1,0.9,2,1.8,2.9,2.7
			L158.7,45z M50.7,42.4L49,40.5c1-0.9,2-1.7,3-2.6l1.6,2C52.7,40.7,51.7,41.6,50.7,42.4z M152.9,39.9c-1-0.8-2-1.6-3-2.3l1.5-2.1
			c1.1,0.8,2.1,1.6,3.1,2.4L152.9,39.9z M56.7,37.6l-1.5-2.1c1.1-0.8,2.2-1.5,3.3-2.3l1.4,2.2C58.8,36.1,57.7,36.9,56.7,37.6z
			 M146.7,35.4c-1.1-0.7-2.2-1.4-3.3-2l1.3-2.2c1.1,0.7,2.3,1.4,3.4,2.1L146.7,35.4z M63.1,33.4l-1.3-2.2c1.1-0.7,2.3-1.3,3.5-1.9
			l1.2,2.3C65.3,32.1,64.2,32.8,63.1,33.4z M140.1,31.5c-1.1-0.6-2.3-1.2-3.4-1.7l1.1-2.4c1.2,0.6,2.4,1.1,3.5,1.8L140.1,31.5z
			 M69.9,29.8l-1.1-2.4c1.2-0.6,2.4-1.1,3.6-1.6l1,2.4C72.2,28.8,71,29.3,69.9,29.8z M133.2,28.3c-1.2-0.5-2.4-0.9-3.6-1.4l0.9-2.5
			c1.2,0.4,2.5,0.9,3.7,1.4L133.2,28.3z M76.9,26.9L76,24.4c1.2-0.4,2.5-0.8,3.8-1.2l0.7,2.5C79.4,26.1,78.1,26.5,76.9,26.9z
			 M126,25.7c-1.2-0.4-2.5-0.7-3.7-1l0.6-2.5c1.3,0.3,2.6,0.7,3.8,1L126,25.7z M84.3,24.8l-0.6-2.5c1.3-0.3,2.6-0.6,3.9-0.8l0.5,2.6
			C86.8,24.2,85.5,24.5,84.3,24.8z M118.5,23.9c-1.2-0.2-2.5-0.5-3.8-0.6l0.4-2.6c1.3,0.2,2.6,0.4,3.9,0.7L118.5,23.9z M91.8,23.3
			l-0.4-2.6c1.3-0.2,2.6-0.3,3.9-0.5l0.2,2.6C94.3,23,93.1,23.1,91.8,23.3z M110.9,22.8c-1.3-0.1-2.6-0.2-3.8-0.3l0.1-2.6
			c1.3,0.1,2.6,0.2,3.9,0.3L110.9,22.8z M99.4,22.6L99.3,20c1.3-0.1,2.6-0.1,4-0.1v2.6C102,22.5,100.7,22.5,99.4,22.6z"/>
	</g>
	<g class="st2">
		<g>
			<path class="st3" d="M66.1,26.4c-4.9,0-8.8-3.9-8.8-8.8s3.9-8.8,8.8-8.8v1.3c-4.1,0-7.5,3.4-7.5,7.5s3.4,7.5,7.5,7.5V26.4z"/>
			<path class="st3" d="M66.8,10.1c-0.2,0-0.5,0-0.7,0V8.8c0.3,0,0.6,0,0.9,0L66.8,10.1z"/>
			<path class="st3" d="M68.6,26l-0.4-1.2c0.5-0.1,0.9-0.3,1.4-0.6l0.6,1.1C69.7,25.6,69.2,25.8,68.6,26z M71.7,24.4l-0.8-1
				c0.4-0.3,0.7-0.7,1-1l1,0.8C72.5,23.6,72.1,24,71.7,24.4z M73.8,21.7l-1.2-0.6c0.2-0.4,0.4-0.9,0.6-1.4l1.2,0.4
				C74.3,20.7,74.1,21.2,73.8,21.7z M74.8,18.4l-1.3-0.1c0-0.2,0-0.5,0-0.7s0-0.5,0-0.7l1.3-0.1c0,0.3,0,0.6,0,0.9
				C74.9,17.9,74.9,18.1,74.8,18.4z M73.2,15.4c-0.1-0.5-0.3-0.9-0.6-1.4l1.1-0.6c0.3,0.5,0.5,1,0.7,1.6L73.2,15.4z M71.9,12.8
				c-0.3-0.4-0.7-0.7-1-1l0.8-1c0.4,0.4,0.9,0.8,1.2,1.2L71.9,12.8z M69.6,11c-0.4-0.2-0.9-0.4-1.4-0.6l0.4-1.2
				c0.6,0.2,1.1,0.4,1.6,0.7L69.6,11z"/>
			<path class="st3" d="M66.1,26.4v-1.3c0.3,0,0.5,0,0.7,0l0.1,1.3C66.7,26.4,66.4,26.4,66.1,26.4z"/>
		</g>
		<g>
			<path class="st3" d="M187.3,147.4c-4.9,0-8.8-3.9-8.8-8.8c0-4.9,3.9-8.8,8.8-8.8v1.3c-4.1,0-7.5,3.4-7.5,7.5s3.4,7.5,7.5,7.5
				V147.4z"/>
			<path class="st3" d="M188,131.2c-0.2,0-0.5,0-0.7,0v-1.3c0.3,0,0.6,0,0.9,0L188,131.2z"/>
			<path class="st3" d="M189.9,147.1l-0.4-1.2c0.5-0.1,0.9-0.3,1.4-0.6l0.6,1.1C190.9,146.7,190.4,146.9,189.9,147.1z M192.9,145.4
				l-0.8-1c0.4-0.3,0.7-0.7,1-1l1,0.8C193.7,144.6,193.3,145.1,192.9,145.4z M195.1,142.8l-1.2-0.6c0.2-0.4,0.4-0.9,0.6-1.4l1.2,0.4
				C195.5,141.7,195.3,142.3,195.1,142.8z M196,139.5l-1.3-0.1c0-0.2,0-0.5,0-0.7s0-0.5,0-0.7l1.3-0.1c0,0.3,0,0.6,0,0.9
				C196.1,138.9,196.1,139.2,196,139.5z M194.5,136.5c-0.1-0.5-0.3-0.9-0.6-1.4l1.1-0.6c0.3,0.5,0.5,1,0.7,1.6L194.5,136.5z
				 M193.1,133.9c-0.3-0.4-0.7-0.7-1-1l0.8-1c0.4,0.4,0.9,0.8,1.2,1.2L193.1,133.9z M190.8,132c-0.4-0.2-0.9-0.4-1.4-0.6l0.4-1.2
				c0.6,0.2,1.1,0.4,1.6,0.7L190.8,132z"/>
			<path class="st3" d="M187.3,147.4v-1.3c0.3,0,0.5,0,0.7,0l0.1,1.3C187.9,147.4,187.6,147.4,187.3,147.4z"/>
		</g>
		<path class="st3" d="M27.6,102.1c-3,0-5.4-2.4-5.4-5.4s2.4-5.4,5.4-5.4s5.4,2.4,5.4,5.4C33,99.6,30.6,102.1,27.6,102.1z
			 M27.6,92.6c-2.3,0-4.1,1.8-4.1,4.1c0,2.3,1.8,4.1,4.1,4.1s4.1-1.8,4.1-4.1S29.9,92.6,27.6,92.6z"/>
		<rect x="26.9" y="94.1" class="st3" width="1.3" height="5.1"/>
		<rect x="25" y="96" class="st3" width="5.1" height="1.3"/>
		<rect x="155.8" y="46.6" class="st3" width="1.3" height="5.8"/>
		<rect x="153.5" y="48.8" class="st3" width="5.8" height="1.3"/>
		<rect x="151.4" y="150.8" class="st3" width="1.8" height="1.3"/>
		<rect x="144.8" y="150.8" class="st3" width="1.8" height="1.3"/>
		<rect x="158" y="150.8" class="st3" width="1.8" height="1.3"/>
		<rect x="90.1" y="24" class="st3" width="1.3" height="5.8"/>
		<rect x="87.9" y="26.2" class="st3" width="5.8" height="1.3"/>
		<path class="st3" d="M102.2,14.5c-2.2,0-4-1.8-4-4s1.8-4,4-4s4,1.8,4,4S104.4,14.5,102.2,14.5z M102.2,7.9c-1.5,0-2.7,1.2-2.7,2.7
			s1.2,2.7,2.7,2.7s2.7-1.2,2.7-2.7C104.9,9.1,103.7,7.9,102.2,7.9z"/>
		<path class="st3" d="M115.8,173c-2.2,0-4-1.8-4-4s1.8-4,4-4s4,1.8,4,4C119.7,171.3,117.9,173,115.8,173z M115.8,166.4
			c-1.5,0-2.7,1.2-2.7,2.7s1.2,2.7,2.7,2.7s2.7-1.2,2.7-2.7C118.4,167.6,117.2,166.4,115.8,166.4z"/>
		<path class="st3" d="M47.5,73.6c-2.2,0-4-1.8-4-4s1.8-4,4-4s4,1.8,4,4C51.5,71.8,49.7,73.6,47.5,73.6z M47.5,67
			c-1.5,0-2.7,1.2-2.7,2.7s1.2,2.7,2.7,2.7s2.7-1.2,2.7-2.7C50.1,68.1,49,67,47.5,67z"/>
		
			<rect x="111.8" y="173.3" transform="matrix(0.8661 -0.4999 0.4999 0.8661 -71.9768 79.6848)" class="st3" width="1.8" height="1.8"/>
		
			<rect x="117.8" y="173.3" transform="matrix(0.4999 -0.8661 0.8661 0.4999 -91.4721 189.9185)" class="st3" width="1.8" height="1.8"/>
		<rect x="114.9" y="168.1" class="st3" width="1.8" height="1.8"/>
		<path class="st3" d="M188.8,73.4l-0.6-0.9c-0.3-0.5-0.7-1-1.1-1.4c-0.4-0.4-0.9-0.8-1.4-1.1l-0.9-0.6l0.9-0.6
			c0.5-0.3,1-0.7,1.4-1.1s0.8-0.9,1.1-1.4l0.6-0.9l0.6,0.9c0.3,0.5,0.7,1,1.1,1.4c0.4,0.4,0.9,0.8,1.4,1.1l0.9,0.6l-0.9,0.6
			c-0.5,0.3-1,0.7-1.4,1.1s-0.8,0.9-1.1,1.4L188.8,73.4z M187.3,69.5c0.3,0.2,0.6,0.5,0.8,0.7c0.3,0.3,0.5,0.5,0.7,0.8
			c0.2-0.3,0.5-0.6,0.7-0.8c0.3-0.3,0.5-0.5,0.8-0.7c-0.3-0.2-0.6-0.5-0.8-0.7c-0.3-0.3-0.5-0.5-0.7-0.8c-0.2,0.3-0.5,0.6-0.7,0.8
			C187.8,69,187.6,69.3,187.3,69.5z"/>
		<path class="st3" d="M16.1,62.7c0.5,0.8,1.2,1.5,2,2c-0.8,0.5-1.5,1.2-2,2c-0.5-0.8-1.2-1.5-2-2C14.9,64.2,15.6,63.6,16.1,62.7
			 M16.1,59.2c-0.9,3.4-2.1,4.6-5.5,5.5c3.4,0.9,4.6,2.1,5.5,5.5c0.9-3.4,2.1-4.6,5.5-5.5C18.2,63.8,17,62.6,16.1,59.2L16.1,59.2z"
			/>
		<rect x="46.6" y="69" class="st3" width="1.8" height="1.3"/>
		<rect x="40" y="69" class="st3" width="1.8" height="1.3"/>
		<path class="st3" d="M5.9,121.5c-1.1,0-1.9-0.9-1.9-1.9c0-1.1,0.9-1.9,1.9-1.9c1.1,0,1.9,0.9,1.9,1.9
			C7.8,120.7,6.9,121.5,5.9,121.5z M5.9,119c-0.4,0-0.6,0.3-0.6,0.6c0,0.4,0.3,0.6,0.6,0.6c0.4,0,0.6-0.3,0.6-0.6S6.2,119,5.9,119z"
			/>
		<path class="st3" d="M12.9,121.5c-1.1,0-1.9-0.9-1.9-1.9c0-1.1,0.9-1.9,1.9-1.9c1.1,0,1.9,0.9,1.9,1.9
			C14.9,120.7,14,121.5,12.9,121.5z M12.9,119c-0.4,0-0.6,0.3-0.6,0.6c0,0.4,0.3,0.6,0.6,0.6c0.4,0,0.6-0.3,0.6-0.6
			S13.3,119,12.9,119z"/>
		<path class="st3" d="M20,121.5c-1.1,0-1.9-0.9-1.9-1.9c0-1.1,0.9-1.9,1.9-1.9c1.1,0,1.9,0.9,1.9,1.9C21.9,120.7,21,121.5,20,121.5
			z M20,119c-0.4,0-0.6,0.3-0.6,0.6c0,0.4,0.3,0.6,0.6,0.6c0.4,0,0.6-0.3,0.6-0.6S20.3,119,20,119z"/>
		<path class="st3" d="M51.4,148.4c-1,0-1.9-0.6-2.7-1.1s-1.5-1-2-0.8c-0.4,0.2-0.8,0.4-1.1,0.7c-0.4,0.3-0.9,0.7-1.4,0.9
			c-0.9,0.4-2.1,0.1-3.2-0.7l0,0c-0.7-0.5-1.5-1.1-2.1-1c-0.5,0.1-1,0.4-1.5,0.8c-0.3,0.2-0.6,0.4-0.9,0.6c-1,0.6-2.3,0.6-3.3,0
			c-0.3-0.2-0.6-0.4-0.8-0.6c-0.5-0.4-1-0.8-1.5-0.8c-0.6-0.1-1.4,0.4-2.1,0.9c-1,0.6-2.1,1.4-3.2,0.9c-0.5-0.2-1-0.6-1.4-0.9
			c-0.4-0.3-0.8-0.6-1.2-0.7c-0.7-0.3-1.5,0.2-1.9,0.6l0,0c-0.9,0.7-1.9,1.4-3,1.3c-0.8-0.1-1.4-0.6-2.1-1.1
			c-0.3-0.2-0.5-0.4-0.8-0.5l0.7-1.1c0.3,0.2,0.6,0.4,0.9,0.6c0.5,0.4,1,0.8,1.5,0.8c0.6,0.1,1.3-0.5,2.1-1l0,0
			c1.1-0.8,2.3-1.1,3.2-0.7c0.5,0.2,1,0.6,1.4,0.9c0.4,0.3,0.8,0.6,1.1,0.7c0.5,0.2,1.2-0.3,2-0.8c0.9-0.6,1.9-1.2,3-1.1
			c0.8,0.1,1.5,0.6,2.1,1.1c0.2,0.2,0.5,0.4,0.8,0.5c0.6,0.4,1.3,0.4,1.9,0c0.3-0.2,0.5-0.4,0.8-0.5c0.6-0.5,1.3-1,2.1-1.1
			c1.1-0.2,2.1,0.6,3,1.3l0,0c0.4,0.3,1.3,0.8,1.9,0.6c0.4-0.2,0.8-0.4,1.2-0.7s0.9-0.7,1.4-0.9c1.2-0.5,2.3,0.2,3.2,0.9
			c0.7,0.5,1.5,1,2.1,0.9c0.5-0.1,1-0.4,1.5-0.8c0.3-0.2,0.5-0.4,0.8-0.6c1-0.6,2.3-0.6,3.3,0l-0.7,1.1c-0.6-0.4-1.3-0.4-1.9,0
			c-0.3,0.2-0.5,0.3-0.8,0.5c-0.6,0.5-1.3,1-2.1,1.1C51.6,148.4,51.5,148.4,51.4,148.4z"/>
		<path class="st3" d="M151.9,33.2c-0.1,0-0.2,0-0.3,0c-0.7-0.1-1.3-0.5-1.8-0.9l0.8-1.1l0,0c0.4,0.3,0.9,0.6,1.2,0.7
			c0.5,0.1,1.1-0.4,1.7-0.9l0,0c1-0.8,2-1,2.9-0.6c0.5,0.2,0.9,0.5,1.3,0.8c0.3,0.3,0.7,0.5,1,0.6c0.4,0.2,1-0.2,1.7-0.7
			c0.8-0.5,1.7-1.1,2.6-0.9c0.7,0.1,1.3,0.5,1.8,1c0.2,0.2,0.4,0.3,0.6,0.5c0.5,0.3,1.1,0.3,1.6,0c0.2-0.1,0.4-0.3,0.7-0.5
			c0.6-0.4,1.1-0.8,1.8-0.9c1-0.1,1.9,0.5,2.7,1.1l0,0c0.3,0.2,1,0.7,1.6,0.5c0.3-0.1,0.6-0.4,1-0.6c0.4-0.3,0.8-0.6,1.3-0.8
			c1-0.4,2,0.2,2.9,0.8l-0.7,1.1c-0.7-0.4-1.3-0.8-1.7-0.7c-0.3,0.1-0.6,0.4-1,0.6c-0.4,0.3-0.8,0.6-1.3,0.8
			c-0.8,0.3-1.9,0.1-2.9-0.6l0,0c-0.6-0.5-1.3-0.9-1.7-0.9c-0.4,0.1-0.8,0.4-1.2,0.7c-0.2,0.2-0.5,0.4-0.7,0.5c-0.9,0.6-2,0.6-2.9,0
			c-0.3-0.2-0.5-0.3-0.7-0.5c-0.4-0.3-0.9-0.6-1.3-0.7c-0.5-0.1-1.1,0.3-1.8,0.7c-0.9,0.6-1.8,1.2-2.9,0.8c-0.5-0.2-0.9-0.5-1.3-0.8
			c-0.3-0.3-0.7-0.5-1-0.6c-0.6-0.2-1.3,0.3-1.6,0.5l0,0C153.6,32.6,152.8,33.2,151.9,33.2z"/>
		<rect x="158.1" y="165.5" class="st3" width="16.8" height="1.3"/>
		<polygon class="st3" points="168.8,170 168.2,168.8 173.4,166.2 168.2,163.5 168.8,162.4 176.3,166.2 		"/>
		<polygon class="st4" points="135.7,30.7 129,30.7 129,24 126.1,24 126.1,30.7 119.3,30.7 119.3,33.6 126.1,33.6 126.1,40.3 
			129,40.3 129,33.6 135.7,33.6 		"/>
		<polygon class="st4" points="80.5,162.6 76.9,162.6 76.9,158.9 75.3,158.9 75.3,162.6 71.6,162.6 71.6,164.2 75.3,164.2 
			75.3,167.9 76.9,167.9 76.9,164.2 80.5,164.2 		"/>
	</g>
	
		<image style="overflow:visible;opacity:0.4;enable-background:new    ;" width="121" height="22" xlink:href="740B5534.png"  transform="matrix(1.4577 0 0 1 15.1625 121.7668)">
	</image>
	<g>
		<g>
			<circle class="st5" cx="35.7" cy="107.7" r="13.2"/>
			<circle class="st6" cx="53.5" cy="112.8" r="5.7"/>
		</g>
		<g>
			<circle class="st5" cx="157.5" cy="109.4" r="9.6"/>
			<circle class="st6" cx="175.9" cy="100.5" r="4.1"/>
		</g>
		<g>
			<g>
				<path class="st7" d="M32.1,100.5H18.6c-2.4,0-4.3,1.9-4.3,4.3v5.7c0,2.4,1.9,4.3,4.3,4.3h14.3c2.4,0,4.3-1.9,4.3-4.3v-1.4"/>
				<path class="st7" d="M34.3,109.1v1.4c0,0.8-0.6,1.4-1.4,1.4H18.6c-0.8,0-1.4-0.6-1.4-1.4v-0.7"/>
				<path class="st7" d="M32.1,103.4H18.6c-0.8,0-1.4,0.6-1.4,1.4v0.7"/>
				<line class="st7" x1="17.1" y1="108.4" x2="17.1" y2="107"/>
			</g>
			<g>
				<path class="st7" d="M57.2,109.3v1.3c0,2.4-1.9,4.3-4.3,4.3H39.3"/>
				<path class="st7" d="M34.3,106.3v-1.4c0-2.4,1.9-4.3,4.3-4.3h14.3c2.4,0,4.3,1.9,4.3,4.3v1.2"/>
				<path class="st7" d="M39.3,112h13.6c0.8,0,1.4-0.6,1.4-1.4v-1.2"/>
				<path class="st7" d="M37.2,106.3v-1.4c0-0.8,0.6-1.4,1.4-1.4h14.3c0.8,0,1.4,0.6,1.4,1.4v1.2"/>
			</g>
			<g>
				<line class="st7" x1="27.9" y1="106.3" x2="43.6" y2="106.3"/>
				<line class="st7" x1="43.6" y1="109.1" x2="27.9" y2="109.1"/>
			</g>
			<g>
				<line class="st7" x1="50.8" y1="106.3" x2="66.6" y2="106.3"/>
				<line class="st7" x1="66.6" y1="109.1" x2="50.8" y2="109.1"/>
			</g>
			<g>
				<line class="st7" x1="32.1" y1="97.7" x2="33.6" y2="97.7"/>
				<line class="st7" x1="35" y1="97.7" x2="36.4" y2="97.7"/>
				<line class="st7" x1="37.9" y1="97.7" x2="39.3" y2="97.7"/>
			</g>
			<g>
				<line class="st7" x1="32.1" y1="117.7" x2="33.6" y2="117.7"/>
				<line class="st7" x1="35" y1="117.7" x2="36.4" y2="117.7"/>
				<line class="st7" x1="37.9" y1="117.7" x2="39.3" y2="117.7"/>
			</g>
			<g>
				<line class="st7" x1="190.4" y1="108.4" x2="190.4" y2="107"/>
			</g>
			<g>
				<line class="st7" x1="141" y1="106.3" x2="156.8" y2="106.3"/>
				<line class="st7" x1="156.8" y1="109.1" x2="141" y2="109.1"/>
			</g>
			<g>
				<path class="st7" d="M150.3,109.3v1.3c0,2.4,1.9,4.3,4.3,4.3h14.3c2.4,0,4.3-1.9,4.3-4.3v-1.4"/>
				<path class="st7" d="M168.2,100.5h-13.6c-2.4,0-4.3,1.9-4.3,4.3v1.1"/>
				<path class="st7" d="M170.4,109.1v1.4c0,0.8-0.6,1.4-1.4,1.4h-14.3c-0.8,0-1.4-0.6-1.4-1.4v-1.2"/>
				<path class="st7" d="M168.2,103.4h-13.6c-0.8,0-1.4,0.6-1.4,1.4v1.2"/>
			</g>
			<g>
				<path class="st7" d="M170.4,106.3v-1.4c0-2.4,1.9-4.3,4.3-4.3H189c2.4,0,4.3,1.9,4.3,4.3v1.1v3.4v1.2c0,2.4-1.9,4.3-4.3,4.3
					h-13.6"/>
				<path class="st7" d="M175.4,112H189c0.8,0,1.4-0.6,1.4-1.4v-1.2"/>
				<path class="st7" d="M173.2,106.3v-1.4c0-0.8,0.6-1.4,1.4-1.4H189c0.8,0,1.4,0.6,1.4,1.4v1.2"/>
			</g>
			<g>
				<line class="st7" x1="163.9" y1="106.3" x2="179.7" y2="106.3"/>
				<line class="st7" x1="179.7" y1="109.1" x2="163.9" y2="109.1"/>
			</g>
			<g>
				<line class="st7" x1="168.2" y1="97.7" x2="169.7" y2="97.7"/>
				<line class="st7" x1="171.1" y1="97.7" x2="172.5" y2="97.7"/>
				<line class="st7" x1="174" y1="97.7" x2="175.4" y2="97.7"/>
			</g>
			<g>
				<line class="st7" x1="168.2" y1="117.7" x2="169.7" y2="117.7"/>
				<line class="st7" x1="171.1" y1="117.7" x2="172.5" y2="117.7"/>
				<line class="st7" x1="174" y1="117.7" x2="175.4" y2="117.7"/>
			</g>
		</g>
	</g>
	<g>
		<g>
			<g>
				<g>
					<path class="st8" d="M126.8,52.3c0-6.8-5.3-12.3-11.9-12.3h-0.1c0-5.3-4.2-9.7-9.4-9.7c-1.4,0-2.8,0.3-4,0.9
						c-2.5-5.4-7.8-9.2-14-9.2c-8,0-14.7,6.4-15.5,14.5c-7.4,0-13.5,6.3-13.5,14c0,7.5,5.6,13.6,12.7,14l0,0h44.4l0,0
						C121.9,64,126.8,58.8,126.8,52.3z"/>
					<path class="st3" d="M115.7,65.2H70.8v-0.1c-7.2-0.7-12.7-7-12.7-14.5c0-7.8,6-14.3,13.5-14.6c1-8.3,7.8-14.5,16-14.5
						c6,0,11.5,3.5,14.3,9c1.2-0.5,2.4-0.7,3.7-0.7c5.3,0,9.6,4.3,9.9,9.7c6.7,0.2,12,5.9,12,12.9c0,6.6-4.8,12.1-11.1,12.8l0,0
						L115.7,65.2z M71.9,64h43.3h0.5c5.9-0.4,10.6-5.6,10.6-11.7c0-6.5-5.1-11.8-11.3-11.8h-0.6l-0.1-0.5c0-5-4-9.1-8.8-9.1
						c-1.3,0-2.5,0.3-3.7,0.9l-0.5,0.2l-0.2-0.5c-2.5-5.4-7.8-8.9-13.5-8.9c-7.7,0-14.1,6-14.9,14v0.5h-0.5
						c-7.1,0-12.9,6.1-12.9,13.5c0,7.1,5.4,13,12.2,13.5L71.9,64z"/>
				</g>
				<g>
					<path class="st3" d="M98.1,30.2c-0.2,0-0.3-0.1-0.4-0.2c-2.4-3.3-6.1-5.2-10.1-5.2c-0.3,0-0.6-0.2-0.6-0.6
						c0-0.3,0.3-0.6,0.6-0.6c4.4,0,8.4,2.1,11,5.7c0.2,0.2,0.1,0.6-0.1,0.8C98.3,30.2,98.2,30.2,98.1,30.2z"/>
				</g>
				<g>
					<path class="st3" d="M124.1,50.1c-0.3,0-0.5-0.2-0.5-0.4c-0.9-3.3-3.4-6-6.5-6.9c-0.3-0.1-0.5-0.4-0.4-0.7
						c0.1-0.3,0.4-0.5,0.7-0.4c3.6,1,6.4,3.9,7.3,7.6c0.1,0.3-0.1,0.6-0.4,0.7C124.2,50.1,124.1,50.1,124.1,50.1z"/>
				</g>
				<g>
					<path class="st3" d="M112,37.6c-0.2,0-0.4-0.1-0.5-0.3c-1.1-2.6-3.5-4.3-6.2-4.3c-0.3,0-0.6-0.2-0.6-0.6c0-0.3,0.2-0.6,0.6-0.6
						c3.1,0,6,2,7.2,5c0.1,0.3,0,0.6-0.3,0.7C112.1,37.6,112,37.6,112,37.6z"/>
				</g>
			</g>
			<g>
				<path class="st3" d="M92.7,103c-0.3,0-0.6-0.2-0.6-0.6v-38c0-0.3,0.2-0.6,0.6-0.6c0.3,0,0.6,0.2,0.6,0.6v38
					C93.3,102.8,93,103,92.7,103z"/>
			</g>
			<g>
				<circle class="st9" cx="92.7" cy="105" r="2.3"/>
				<path class="st3" d="M92.7,107.9c-1.6,0-2.9-1.3-2.9-2.9s1.3-2.9,2.9-2.9s2.9,1.3,2.9,2.9C95.6,106.7,94.3,107.9,92.7,107.9z
					 M92.7,103.3c-1,0-1.8,0.8-1.8,1.8s0.8,1.8,1.8,1.8s1.8-0.8,1.8-1.8C94.5,104,93.7,103.3,92.7,103.3z"/>
			</g>
			<g>
				<circle class="st9" cx="107.2" cy="94.8" r="2.8"/>
				<path class="st3" d="M107.2,98.3c-1.8,0-3.4-1.5-3.4-3.3s1.5-3.4,3.4-3.4c1.8,0,3.4,1.5,3.4,3.4
					C110.6,96.8,109.1,98.3,107.2,98.3z M107.2,92.7c-1.2,0-2.2,1-2.2,2.2s1,2.2,2.2,2.2s2.2-1,2.2-2.2
					C109.5,93.7,108.5,92.7,107.2,92.7z"/>
			</g>
			<g>
				<circle class="st10" cx="119.8" cy="77.3" r="2.8"/>
				<path class="st3" d="M119.8,80.8c-1.8,0-3.4-1.5-3.4-3.4c0-1.8,1.5-3.4,3.4-3.4c1.8,0,3.3,1.5,3.3,3.4S121.6,80.8,119.8,80.8z
					 M119.8,75.2c-1.2,0-2.2,1-2.2,2.2s1,2.2,2.2,2.2s2.2-1,2.2-2.2S121,75.2,119.8,75.2z"/>
			</g>
			<g>
				<path class="st3" d="M102.2,87.9c-1.5,0-2.7-1.2-2.7-2.7s1.2-2.8,2.7-2.8s2.8,1.2,2.8,2.8C105,86.8,103.7,87.9,102.2,87.9z
					 M102.2,83.5c-0.9,0-1.6,0.7-1.6,1.6s0.7,1.6,1.6,1.6s1.6-0.7,1.6-1.6C103.9,84.3,103.1,83.5,102.2,83.5z"/>
			</g>
			<g>
				<circle class="st9" cx="80.3" cy="72.3" r="2"/>
				<path class="st3" d="M80.3,74.9c-1.4,0-2.5-1.1-2.5-2.5s1.1-2.5,2.5-2.5s2.5,1.1,2.5,2.5C82.8,73.8,81.7,74.9,80.3,74.9z
					 M80.3,70.9c-0.8,0-1.4,0.6-1.4,1.4s0.6,1.4,1.4,1.4s1.4-0.6,1.4-1.4C81.7,71.7,81.1,70.9,80.3,70.9z"/>
			</g>
			<g>
				<circle class="st10" cx="79.4" cy="91.3" r="2.8"/>
				<path class="st3" d="M79.4,94.7c-1.8,0-3.3-1.5-3.3-3.4c0-1.8,1.5-3.3,3.3-3.3s3.4,1.5,3.4,3.3C82.8,93.2,81.3,94.7,79.4,94.7z
					 M79.4,89c-1.2,0-2.2,1-2.2,2.2s1,2.2,2.2,2.2s2.2-1,2.2-2.2C81.6,90,80.6,89,79.4,89z"/>
			</g>
			<g>
				<path class="st3" d="M66.4,83.5c-1.4,0-2.6-1.2-2.6-2.6s1.2-2.6,2.6-2.6s2.6,1.2,2.6,2.6S67.8,83.5,66.4,83.5z M66.4,79.4
					c-0.8,0-1.5,0.7-1.5,1.5s0.7,1.5,1.5,1.5s1.5-0.7,1.5-1.5C67.9,80.2,67.2,79.4,66.4,79.4z"/>
			</g>
			<g>
				<path class="st3" d="M102.3,83.3c-0.3,0-0.6-0.3-0.6-0.6V72.5H82.2c-0.3,0-0.6-0.2-0.6-0.6c0-0.3,0.2-0.6,0.6-0.6h20.7v11.3
					C102.9,83,102.6,83.3,102.3,83.3z"/>
			</g>
			<g>
				<path class="st3" d="M92.7,81.4H68.6c-0.3,0-0.6-0.3-0.6-0.6c0-0.3,0.2-0.6,0.6-0.6h24.1c0.3,0,0.6,0.2,0.6,0.6
					S93,81.4,92.7,81.4z"/>
			</g>
			<g>
				<path class="st3" d="M104.4,95.4H92.7c-0.3,0-0.6-0.2-0.6-0.6c0-0.3,0.2-0.6,0.6-0.6h11.7c0.3,0,0.6,0.2,0.6,0.6
					C105,95.2,104.7,95.4,104.4,95.4z"/>
			</g>
			<g>
				<path class="st3" d="M79.4,89c-0.3,0-0.6-0.3-0.6-0.6v-7.6c0-0.3,0.2-0.6,0.6-0.6c0.3,0,0.6,0.2,0.6,0.6v7.6
					C80,88.8,79.7,89,79.4,89z"/>
			</g>
			<g>
				<path class="st3" d="M116.7,77.9h-14.2c-0.3,0-0.6-0.3-0.6-0.6c0-0.3,0.2-0.6,0.6-0.6h14.2c0.3,0,0.6,0.2,0.6,0.6
					C117.2,77.7,117,77.9,116.7,77.9z"/>
			</g>
		</g>
		<g>
			<g>
				<g>
					<g>
						<path class="st9" d="M138.8,56.5c0,0.4-0.4,0.8-0.8,0.8h-6.4c-0.4,0-0.8-0.4-0.8-0.8v-4c0-0.4,0.4-0.8,0.8-0.8h6.4
							c0.4,0,0.8,0.4,0.8,0.8V56.5z"/>
						<path class="st3" d="M138,57.6h-6.4c-0.7,0-1.2-0.6-1.2-1.2v-4c0-0.7,0.6-1.2,1.2-1.2h6.4c0.7,0,1.2,0.6,1.2,1.2v4
							C139.1,57.1,138.5,57.6,138,57.6z M131.6,52.1c-0.3,0-0.4,0.1-0.4,0.4v4c0,0.3,0.1,0.4,0.4,0.4h6.4c0.3,0,0.4-0.1,0.4-0.4v-4
							c0-0.3-0.1-0.4-0.4-0.4H131.6z"/>
					</g>
					<g>
						<path class="st11" d="M150.6,51.8H143c-0.6,0-1,0.4-1,1v2.4h-9.1c-1.1,0-2.1,1-2.1,2.1v10.2c0,1.1,1,2.1,2.1,2.1h16.5
							c1.1,0,2.1-1,2.1-2.1v-10v-0.3v-4.4C151.5,52.3,151.1,51.8,150.6,51.8z"/>
						<path class="st3" d="M149.5,70H133c-1.4,0-2.5-1.1-2.5-2.5V57.2c0-1.4,1.1-2.5,2.5-2.5h8.7v-1.9c0-0.7,0.6-1.4,1.4-1.4h7.6
							c0.7,0,1.4,0.6,1.4,1.4v14.7C151.9,68.8,150.7,70,149.5,70z M132.9,55.4c-1,0-1.7,0.8-1.7,1.7v10.2c0,1,0.8,1.7,1.7,1.7h16.5
							c1,0,1.7-0.8,1.7-1.7V52.7c0-0.3-0.3-0.6-0.6-0.6h-7.6c-0.3,0-0.6,0.3-0.6,0.6v2.8H132.9z"/>
					</g>
				</g>
				<g>
					<rect x="130.8" y="64.8" class="st3" width="20.7" height="0.8"/>
				</g>
				<g>
					<rect x="130.8" y="66.4" class="st3" width="20.7" height="0.8"/>
				</g>
			</g>
			<g>
				<polygon class="st3" points="140.5,69.8 141.3,69.8 141.3,78.1 119.6,78.1 119.6,77.3 140.5,77.3 				"/>
			</g>
			<g>
				<circle class="st9" cx="119.6" cy="77.7" r="1.9"/>
				<path class="st3" d="M119.6,75.3c1.2,0,2.4,1.1,2.4,2.4c0,1.2-1.1,2.4-2.4,2.4s-2.4-1.1-2.4-2.4
					C117.2,76.5,118.3,75.3,119.6,75.3z M119.6,79.2c0.8,0,1.7-0.7,1.7-1.7c0-0.8-0.7-1.7-1.7-1.7c-0.8,0-1.7,0.7-1.7,1.7
					C118.1,78.5,118.8,79.2,119.6,79.2z"/>
			</g>
			<g>
				<circle class="st9" cx="140.9" cy="77.7" r="1.5"/>
				<path class="st3" d="M140.9,75.8c1.1,0,1.9,0.8,1.9,1.9s-0.8,1.9-1.9,1.9c-1.1,0-1.9-0.8-1.9-1.9
					C139.1,76.6,139.9,75.8,140.9,75.8z M140.9,78.8c0.6,0,1.1-0.6,1.1-1.1c0-0.6-0.6-1.1-1.1-1.1c-0.6,0-1.1,0.6-1.1,1.1
					C139.8,78.3,140.3,78.8,140.9,78.8z"/>
			</g>
		</g>
		<g>
			<g>
				<g>
					<path class="st11" d="M146.8,145.5c0,1.3-1.1,2.4-2.4,2.4h-25.5c-1.3,0-2.4-1.1-2.4-2.4v-6.1c0-1.3,1.1-2.4,2.4-2.4h25.5
						c1.3,0,2.4,1.1,2.4,2.4V145.5z"/>
					<path class="st3" d="M144.4,148.4h-25.5c-1.5,0-2.7-1.3-2.7-2.7v-6.1c0-1.5,1.3-2.7,2.7-2.7h25.5c1.6,0,2.7,1.3,2.7,2.7v6.1
						C147.3,147.1,146,148.4,144.4,148.4z M118.8,137.4c-1.1,0-1.9,1-1.9,1.9v6.1c0,1.1,1,1.9,1.9,1.9h25.5c1.1,0,1.9-1,1.9-1.9
						v-6.1c0-1.1-1-1.9-1.9-1.9H118.8z"/>
				</g>
				<g>
					<path class="st10" d="M134.8,143.2c0,0.3-0.3,0.6-0.6,0.6H128c-0.3,0-0.6-0.3-0.6-0.6v-1.5c0-0.3,0.3-0.6,0.6-0.6h6.1
						c0.3,0,0.6,0.3,0.6,0.6V143.2z"/>
					<path class="st3" d="M134.2,144.2H128c-0.5,0-1-0.5-1-1v-1.5c0-0.5,0.5-1,1-1h6.1c0.5,0,1,0.5,1,1v1.5
						C135.2,143.8,134.8,144.2,134.2,144.2z M128,141.6c-0.2,0-0.2,0.2-0.2,0.2v1.5c0,0.2,0.2,0.2,0.2,0.2h6.1
						c0.2,0,0.2-0.2,0.2-0.2v-1.5c0-0.2-0.2-0.2-0.2-0.2H128z"/>
				</g>
				<g>
					<path class="st9" d="M146.8,156.4c0,1.3-1.1,2.4-2.4,2.4h-25.5c-1.3,0-2.4-1.1-2.4-2.4v-6.1c0-1.3,1.1-2.4,2.4-2.4h25.5
						c1.3,0,2.4,1.1,2.4,2.4V156.4z"/>
					<path class="st3" d="M144.4,159.2h-25.5c-1.5,0-2.7-1.3-2.7-2.7v-6.1c0-1.6,1.3-2.7,2.7-2.7h25.5c1.6,0,2.7,1.3,2.7,2.7v6.1
						C147.3,158,146,159.2,144.4,159.2z M118.8,148.4c-1.1,0-1.9,1-1.9,1.9v6.1c0,1.1,1,1.9,1.9,1.9h25.5c1.1,0,1.9-1,1.9-1.9v-6.1
						c0-1.1-1-1.9-1.9-1.9H118.8z"/>
				</g>
				<g>
					<path class="st11" d="M146.8,167.4c0,1.3-1.1,2.4-2.4,2.4h-25.5c-1.3,0-2.4-1.1-2.4-2.4v-6.1c0-1.3,1.1-2.4,2.4-2.4h25.5
						c1.3,0,2.4,1.1,2.4,2.4V167.4z"/>
					<path class="st3" d="M144.4,170.2h-25.5c-1.5,0-2.7-1.3-2.7-2.7v-6.1c0-1.5,1.3-2.7,2.7-2.7h25.5c1.6,0,2.7,1.3,2.7,2.7v6.1
						C147.3,168.9,146,170.2,144.4,170.2z M118.8,159.2c-1.1,0-1.9,1-1.9,1.9v6.3c0,1.1,1,1.9,1.9,1.9h25.5c1.1,0,1.9-1,1.9-1.9
						v-6.1c0-1.1-1-1.9-1.9-1.9h-25.5V159.2z"/>
				</g>
				<g>
					<circle class="st12" cx="120.3" cy="142.4" r="1.3"/>
					<path class="st3" d="M120.3,144c-1,0-1.6-0.8-1.6-1.6s0.8-1.6,1.6-1.6s1.6,0.8,1.6,1.6S121.3,144,120.3,144z M120.3,141.6
						c-0.5,0-0.8,0.3-0.8,0.8s0.3,0.8,0.8,0.8s0.8-0.3,0.8-0.8S120.8,141.6,120.3,141.6z"/>
				</g>
				<g>
					<circle class="st12" cx="124.5" cy="142.5" r="1.3"/>
					<path class="st3" d="M124.5,144.2c-1,0-1.6-0.8-1.6-1.6c0-1,0.8-1.6,1.6-1.6c1,0,1.6,0.8,1.6,1.6S125.3,144.2,124.5,144.2z
						 M124.5,141.6c-0.5,0-0.8,0.3-0.8,0.8s0.3,0.8,0.8,0.8c0.5,0,0.8-0.3,0.8-0.8C125.3,142.1,125,141.6,124.5,141.6z"/>
				</g>
				<g>
					<path class="st10" d="M134.8,154.2c0,0.3-0.3,0.6-0.6,0.6H128c-0.3,0-0.6-0.3-0.6-0.6v-1.5c0-0.3,0.3-0.6,0.6-0.6h6.1
						c0.3,0,0.6,0.3,0.6,0.6V154.2z"/>
					<path class="st3" d="M134.2,155.1H128c-0.5,0-1-0.5-1-1v-1.5c0-0.5,0.5-1,1-1h6.1c0.5,0,1,0.5,1,1v1.5
						C135.2,154.7,134.8,155.1,134.2,155.1z M128,152.4c-0.2,0-0.2,0.2-0.2,0.2v1.5c0,0.2,0.2,0.2,0.2,0.2h6.1
						c0.2,0,0.2-0.2,0.2-0.2v-1.5c0-0.2-0.2-0.2-0.2-0.2H128z"/>
				</g>
				<g>
					<circle class="st12" cx="120.3" cy="153.4" r="1.3"/>
					<path class="st3" d="M120.3,155c-1,0-1.6-0.8-1.6-1.6c0-1,0.8-1.6,1.6-1.6s1.6,0.8,1.6,1.6S121.3,155,120.3,155z M120.3,152.4
						c-0.5,0-0.8,0.3-0.8,0.8s0.3,0.8,0.8,0.8s0.8-0.3,0.8-0.8C121.1,152.9,120.8,152.4,120.3,152.4z"/>
				</g>
				<g>
					<circle class="st12" cx="124.5" cy="153.4" r="1.3"/>
					<path class="st3" d="M124.5,155c-1,0-1.6-0.8-1.6-1.6c0-1,0.8-1.6,1.6-1.6c1,0,1.6,0.8,1.6,1.6
						C126.1,154.3,125.3,155,124.5,155z M124.5,152.6c-0.5,0-0.8,0.3-0.8,0.8s0.3,0.8,0.8,0.8c0.5,0,0.8-0.3,0.8-0.8
						S125,152.6,124.5,152.6z"/>
				</g>
				<g>
					<path class="st10" d="M134.8,165c0,0.3-0.3,0.6-0.6,0.6H128c-0.3,0-0.6-0.3-0.6-0.6v-1.5c0-0.3,0.3-0.6,0.6-0.6h6.1
						c0.3,0,0.6,0.3,0.6,0.6V165z"/>
					<path class="st3" d="M134.2,166H128c-0.5,0-1-0.5-1-1v-1.5c0-0.5,0.5-1,1-1h6.1c0.5,0,1,0.5,1,1v1.5
						C135.2,165.6,134.8,166,134.2,166z M128,163.4c-0.2,0-0.2,0.2-0.2,0.2v1.5c0,0.2,0.2,0.2,0.2,0.2h6.1c0.2,0,0.2,0,0.2-0.2v-1.5
						c0-0.2-0.2-0.2-0.2-0.2H128z"/>
				</g>
				<g>
					<circle class="st12" cx="120.3" cy="164.2" r="1.3"/>
					<path class="st3" d="M120.3,165.8c-1,0-1.6-0.8-1.6-1.6c0-1,0.8-1.6,1.6-1.6s1.6,0.8,1.6,1.6
						C121.9,165.2,121.3,165.8,120.3,165.8z M120.3,163.4c-0.5,0-0.8,0.3-0.8,0.8s0.3,0.8,0.8,0.8s0.8-0.3,0.8-0.8
						S120.8,163.4,120.3,163.4z"/>
				</g>
				<g>
					<circle class="st12" cx="124.5" cy="164.3" r="1.3"/>
					<path class="st3" d="M124.5,166c-1,0-1.6-0.8-1.6-1.6c0-1,0.8-1.6,1.6-1.6c1,0,1.6,0.8,1.6,1.6S125.3,166,124.5,166z
						 M124.5,163.4c-0.5,0-0.8,0.3-0.8,0.8s0.3,0.8,0.8,0.8c0.5,0,0.8-0.3,0.8-0.8C125.3,163.9,125,163.4,124.5,163.4z"/>
				</g>
			</g>
		</g>
		<g>
			<g>
				<path class="st9" d="M74.2,178.3c1.9,0,3.4-1.5,3.4-3.4v-36.5c0-1.9-1.5-3.4-3.4-3.4h-8.8c-1.9,0-3.4,1.5-3.4,3.4V175
					c0,1.9,1.5,3.4,3.4,3.4H74.2z"/>
				<path class="st3" d="M65.6,134.6h8.8c2.1,0,3.9,1.7,3.9,3.9V175c0,2.1-1.7,3.9-3.9,3.9h-8.8c-2.1,0-3.9-1.7-3.9-3.9v-36.5
					C61.7,136.4,63.4,134.6,65.6,134.6z M74.2,177.8c1.7,0,3-1.3,3-3v-36.5c0-1.7-1.3-3-3-3h-8.8c-1.7,0-3,1.3-3,3V175
					c0,1.7,1.3,3,3,3h8.8V177.8z"/>
			</g>
			<g>
				<path class="st13" d="M75.2,170.8c0-0.4-0.4-0.7-0.7-0.7h-8.8c-0.4,0-0.7,0.4-0.7,0.7v2.1c0,0.4,0.4,0.7,0.7,0.7h8.8
					c0.4,0,0.7-0.4,0.7-0.7V170.8z"/>
				<path class="st3" d="M65.6,169.5h8.8c0.7,0,1.3,0.6,1.3,1.3v2.1c0,0.7-0.6,1.3-1.3,1.3h-8.8c-0.7,0-1.3-0.6-1.3-1.3v-2.1
					C64.3,170.1,64.9,169.5,65.6,169.5z M74.4,173.3c0.2,0,0.4-0.2,0.4-0.4v-2.1c0-0.2-0.2-0.4-0.4-0.4h-8.8c-0.2,0-0.4,0.2-0.4,0.4
					v2.1c0,0.2,0.2,0.4,0.4,0.4H74.4z"/>
			</g>
			<g>
				<circle class="st12" cx="69.7" cy="140.6" r="1.9"/>
				<path class="st3" d="M69.7,138.3c1.3,0,2.2,0.9,2.2,2.2c0,1.3-0.9,2.2-2.2,2.2c-1.3,0-2.2-0.9-2.2-2.2
					C67.5,139.3,68.6,138.3,69.7,138.3z M69.7,141.9c0.7,0,1.3-0.6,1.3-1.3s-0.6-1.3-1.3-1.3c-0.7,0-1.3,0.6-1.3,1.3
					C68.4,141.3,69.2,141.9,69.7,141.9z"/>
			</g>
			<g>
				<path class="st13" d="M75.2,164.9c0-0.4-0.4-0.7-0.7-0.7h-8.8c-0.4,0-0.7,0.4-0.7,0.7v2.1c0,0.4,0.4,0.7,0.7,0.7h8.8
					c0.4,0,0.7-0.4,0.7-0.7V164.9z"/>
				<path class="st3" d="M65.6,163.6h8.8c0.7,0,1.3,0.6,1.3,1.3v2.1c0,0.7-0.6,1.3-1.3,1.3h-8.8c-0.7,0-1.3-0.6-1.3-1.3v-2.1
					C64.3,164.1,64.9,163.6,65.6,163.6z M74.4,167.3c0.2,0,0.4-0.2,0.4-0.4v-2.1c0-0.2-0.2-0.4-0.4-0.4h-8.8c-0.2,0-0.4,0.2-0.4,0.4
					v2.1c0,0.2,0.2,0.4,0.4,0.4H74.4z"/>
			</g>
			<g>
				<polygon class="st3" points="69.5,120.6 70.5,120.6 70.5,135.1 69.4,135.1 				"/>
			</g>
			<g>
				<polygon class="st3" points="89.2,120.4 89.2,121.3 46.7,121.3 46.7,120.4 				"/>
			</g>
			<g>
				<circle class="st12" cx="69.9" cy="120.6" r="1.9"/>
				<path class="st3" d="M69.9,118.3c1.3,0,2.2,0.9,2.2,2.2c0,1.3-0.9,2.2-2.2,2.2c-1.3,0-2.2-0.9-2.2-2.2
					C67.7,119.2,68.6,118.3,69.9,118.3z M69.9,121.9c0.7,0,1.3-0.6,1.3-1.3c0-0.7-0.6-1.3-1.3-1.3c-0.7,0-1.3,0.6-1.3,1.3
					C68.6,121.3,69.2,121.9,69.9,121.9z"/>
			</g>
		</g>
	</g>
	<g>
		<circle class="st14" cx="103.3" cy="113.5" r="46.2"/>
		<circle class="st15" cx="103.3" cy="113.5" r="32.3"/>
		<g>
			<line class="st7" x1="140" y1="137" x2="128.9" y2="139.9"/>
			<line class="st7" x1="133.1" y1="132.9" x2="135.9" y2="144"/>
		</g>
		<path class="st7" d="M134.5,138.9c-7.4,9.1-18.6,14.9-31.2,14.9s-23.9-5.8-31.2-14.9l6.4-6.4"/>
		<path class="st7" d="M123,78.6c-5.8-3.3-12.6-5.2-19.7-5.2c-22.2,0-40.2,18-40.2,40.2c0,5.9,1.2,11.6,3.5,16.6"/>
		<path class="st7" d="M139.9,130.2c2.3-5.1,3.5-10.7,3.5-16.6c0-12.7-5.9-24.1-15.2-31.4l-8.5,8.5"/>
		<g>
			<line class="st7" x1="73.5" y1="132.4" x2="71.8" y2="134.1"/>
			<line class="st7" x1="70.6" y1="135.3" x2="68.8" y2="137.1"/>
			<line class="st7" x1="79.5" y1="126.4" x2="77.8" y2="128.2"/>
			<line class="st7" x1="76.5" y1="129.4" x2="74.8" y2="131.2"/>
			<line class="st7" x1="67.7" y1="138.3" x2="65.8" y2="140.1"/>
		</g>
		<g>
			<line class="st7" x1="124.9" y1="81" x2="123.2" y2="82.7"/>
			<line class="st7" x1="121.9" y1="84" x2="120.2" y2="85.8"/>
			<line class="st7" x1="130.8" y1="75.1" x2="129.1" y2="76.8"/>
			<line class="st7" x1="127.9" y1="78" x2="126.1" y2="79.8"/>
			<line class="st7" x1="119" y1="86.9" x2="117.2" y2="88.8"/>
		</g>
		<g>
			<g>
				<path class="st16" d="M101.6,78.4c-0.5,0-1,0-1.5,0"/>
				<path class="st17" d="M96.3,78.8c-14.9,2.3-26.6,14.5-28.1,29.7"/>
				<path class="st16" d="M68.1,110.4c0,0.5,0,1,0,1.5"/>
			</g>
		</g>
		<path class="st7" d="M135.6,113.5c0,17.9-14.5,32.3-32.3,32.3"/>
		<path class="st3" d="M114.5,135.1c-0.3,0-0.5-0.2-0.5-0.5c0-0.3,0.2-0.5,0.5-0.5h0.1c0.3,0,0.5,0.2,0.5,0.5
			C115.1,134.9,114.8,135.1,114.5,135.1L114.5,135.1z M110.8,135.1c-0.3,0-0.5-0.2-0.5-0.5c0-0.3,0.2-0.5,0.5-0.5h0.1
			c0.3,0,0.5,0.2,0.5,0.5C111.4,134.9,111.2,135.1,110.8,135.1L110.8,135.1z M97.9,135.1c-0.3,0-0.5-0.2-0.5-0.5
			c0-0.3,0.2-0.5,0.5-0.5H108c0.3,0,0.5,0.2,0.5,0.5c0,0.3-0.2,0.5-0.5,0.5H97.9z M95.1,135.1c-0.3,0-0.5-0.2-0.5-0.5
			c0-0.3,0.2-0.5,0.5-0.5h0.1c0.3,0,0.5,0.2,0.5,0.5C95.7,134.9,95.5,135.1,95.1,135.1L95.1,135.1z M91.4,135.1
			c-0.3,0-0.5-0.2-0.5-0.5c0-0.3,0.2-0.5,0.5-0.5h0.1c0.3,0,0.5,0.2,0.5,0.5C92,134.9,91.8,135.1,91.4,135.1L91.4,135.1z
			 M103.4,132.4c-1.8,0-3.3-1.5-3.3-3.3s1.5-3.3,3.3-3.3s3.3,1.5,3.3,3.3S105.2,132.4,103.4,132.4z M103.4,126.9
			c-1.2,0-2.2,1-2.2,2.2s1,2.2,2.2,2.2s2.2-1,2.2-2.2S104.7,126.9,103.4,126.9z M103.3,124.1c-1.8,0-3.3-1.5-3.3-3.3
			c0.1-2.1,0.6-4,1.7-5.7c1.1-1.8,2.7-3.2,4.5-4.1c2.3-1.1,3.7-3.5,3.7-6.1c-0.1-3.6-3-6.5-6.6-6.6l-0.1,0c-1.8,0-3.4,0.7-4.7,1.9
			c-1.3,1.3-2,2.9-2,4.7c0,1.8-1.5,3.3-3.3,3.3s-3.3-1.5-3.3-3.3c0-3.6,1.4-6.9,3.9-9.4c2.5-2.5,5.8-3.8,9.3-3.8l0.2,0
			c3.4,0,6.7,1.4,9.1,3.9c2.5,2.4,3.8,5.7,3.9,9.1c0,2.5-0.7,5-2,7.2c-1.3,2.1-3.1,3.8-5.3,4.9c-1.5,0.8-2.5,2.3-2.6,4
			C106.5,122.7,105,124.1,103.3,124.1z M103.4,97.4c4.1,0.1,7.5,3.5,7.6,7.6c0,2.9-1.6,5.7-4.3,7c-1.7,0.8-3.1,2.1-4.1,3.8
			c-1,1.5-1.5,3.3-1.5,5.1c0,1.2,1,2.2,2.2,2.2c1.2,0,2.2-1,2.2-2.2c0,0,0-0.1,0-0.1c0.1-2.1,1.3-3.9,3.2-4.8c2-1,3.7-2.5,4.9-4.5
			c1.2-2,1.9-4.3,1.8-6.6c0-3.2-1.3-6.2-3.6-8.4c-2.3-2.3-5.2-3.5-8.4-3.6l-0.2,0c-3.2,0-6.2,1.2-8.5,3.5c-2.3,2.3-3.6,5.4-3.6,8.7
			c0,1.2,1,2.2,2.2,2.2s2.2-1,2.2-2.2c0-2.1,0.8-4,2.3-5.5c1.4-1.4,3.4-2.2,5.4-2.2L103.4,97.4z M113.5,105.8
			c-0.3,0-0.5-0.2-0.5-0.5c0-4.3-2.9-8.1-7-9.2c-0.1,0-0.2-0.1-0.3-0.2c-0.1-0.1-0.1-0.3,0-0.4c0.1-0.2,0.3-0.4,0.5-0.4
			c0,0,0.1,0,0.1,0c4.5,1.3,7.7,5.5,7.7,10.2C114.1,105.5,113.8,105.8,113.5,105.8z M103.4,95.7c-0.3,0-0.5-0.2-0.5-0.5
			c0-0.3,0.2-0.5,0.5-0.5c0.4,0,0.6,0.2,0.6,0.5C104,95.4,103.8,95.7,103.4,95.7L103.4,95.7z"/>
	</g>
</g>
</svg>
