<?xml version="1.0" encoding="utf-8"?>
<!-- Generator: Adobe Illustrator 21.0.2, SVG Export Plug-In . SVG Version: 6.00 Build 0)  -->
<svg version="1.1" id="Isolation_Mode" xmlns="http://www.w3.org/2000/svg" xmlns:xlink="http://www.w3.org/1999/xlink" x="0px"
	 y="0px" viewBox="0 0 200 200" style="enable-background:new 0 0 200 200;" xml:space="preserve">
<style type="text/css">
	.st0{opacity:0.2;fill:#8FD2FF;}
	.st1{fill:#6EF0F5;}
	.st2{fill:#B8E2FF;}
	.st3{fill:none;stroke:#2C3E50;stroke-miterlimit:10;}
	.st4{fill:none;stroke:#2C3E50;stroke-width:2;stroke-miterlimit:10;}
</style>
<circle class="st0" cx="723" cy="654.5" r="49.9"/>
<g>
	<g>
		<circle class="st1" cx="723" cy="656.5" r="27"/>
		<circle class="st2" cx="702" cy="636.5" r="8"/>
	</g>
	<g>
		<g>
			<g>
				<path class="st3" d="M718,646.5h-19c-3.3,0-6,2.7-6,6v8c0,3.3,2.7,6,6,6h20c3.3,0,6-2.7,6-6v-2"/>
				<path class="st3" d="M721,658.5v2c0,1.1-0.9,2-2,2h-20c-1.1,0-2-0.9-2-2v-1"/>
				<path class="st3" d="M718,650.5h-19c-1.1,0-2,0.9-2,2v1"/>
				<line class="st3" x1="697" y1="657.5" x2="697" y2="655.5"/>
			</g>
			<g>
				<path class="st3" d="M721,654.5v-2c0-3.3,2.7-6,6-6h20c3.3,0,6,2.7,6,6v8c0,3.3-2.7,6-6,6h-19"/>
				<path class="st3" d="M728,662.5h19c1.1,0,2-0.9,2-2v-1"/>
				<path class="st3" d="M725,654.5v-2c0-1.1,0.9-2,2-2h20c1.1,0,2,0.9,2,2v1"/>
				<line class="st3" x1="749" y1="657.5" x2="749" y2="655.5"/>
			</g>
			<g>
				<line class="st3" x1="712" y1="654.5" x2="734" y2="654.5"/>
				<line class="st3" x1="734" y1="658.5" x2="712" y2="658.5"/>
			</g>
		</g>
		<g>
			<line class="st3" x1="718" y1="642.5" x2="720" y2="642.5"/>
			<line class="st3" x1="722" y1="642.5" x2="724" y2="642.5"/>
			<line class="st3" x1="726" y1="642.5" x2="728" y2="642.5"/>
		</g>
		<g>
			<line class="st3" x1="718" y1="670.5" x2="720" y2="670.5"/>
			<line class="st3" x1="722" y1="670.5" x2="724" y2="670.5"/>
			<line class="st3" x1="726" y1="670.5" x2="728" y2="670.5"/>
		</g>
	</g>
</g>
<g>
	<path class="st0" d="M200,100c0,55.2-44.8,100-100,100C44.8,200,0,155.2,0,100S44.8,0,100,0C155.2,0,200,44.8,200,100z"/>
	<g>
		<g>
			<circle class="st1" cx="81" cy="80" r="44.1"/>
			<circle class="st2" cx="139.1" cy="146.1" r="18"/>
		</g>
		<g>
			<g>
				<g>
					<polyline class="st4" points="95,94 95,55.9 163.1,55.9 163.1,136.1 133.1,136.1 					"/>
					<rect x="95" y="43.9" class="st4" width="68.1" height="12"/>
					<line class="st4" x1="103" y1="49.9" x2="107" y2="49.9"/>
					<line class="st4" x1="111" y1="49.9" x2="115" y2="49.9"/>
					<line class="st4" x1="119" y1="49.9" x2="123" y2="49.9"/>
				</g>
				<g>
					<g>
						<line class="st4" x1="103" y1="67.9" x2="113" y2="67.9"/>
						<line class="st4" x1="113" y1="84" x2="129.1" y2="84"/>
						<line class="st4" x1="113" y1="92" x2="129.1" y2="92"/>
						<line class="st4" x1="133.1" y1="84" x2="145.1" y2="84"/>
						<line class="st4" x1="103" y1="76" x2="129.1" y2="76"/>
						<line class="st4" x1="133.1" y1="92" x2="155.1" y2="92"/>
						<line class="st4" x1="133.1" y1="76" x2="145.1" y2="76"/>
					</g>
					<g>
						<line class="st4" x1="103" y1="100" x2="113" y2="100"/>
						<line class="st4" x1="113" y1="116" x2="129.1" y2="116"/>
						<line class="st4" x1="133.1" y1="116" x2="145.1" y2="116"/>
						<line class="st4" x1="103" y1="108" x2="129.1" y2="108"/>
						<line class="st4" x1="133.1" y1="124" x2="155.1" y2="124"/>
						<line class="st4" x1="133.1" y1="108" x2="145.1" y2="108"/>
					</g>
				</g>
			</g>
			<g>
				<circle class="st4" cx="46.9" cy="47.9" r="4"/>
				<line class="st4" x1="58.9" y1="41.9" x2="58.9" y2="53.9"/>
				<line class="st4" x1="66.9" y1="41.9" x2="66.9" y2="53.9"/>
			</g>
			<g>
				<line class="st4" x1="46.9" y1="100" x2="46.9" y2="112"/>
				<line class="st4" x1="38.9" y1="100" x2="38.9" y2="112"/>
			</g>
			<g>
				<circle class="st4" cx="159.1" cy="152.1" r="4"/>
				<line class="st4" x1="147.1" y1="146.1" x2="147.1" y2="158.1"/>
				<line class="st4" x1="139.1" y1="146.1" x2="139.1" y2="158.1"/>
			</g>
			<g>
				<rect x="38.9" y="124" class="st4" width="88.2" height="32.1"/>
				<g>
					<g>
						<line class="st4" x1="44.9" y1="132.1" x2="48.9" y2="132.1"/>
						<line class="st4" x1="52.9" y1="132.1" x2="56.9" y2="132.1"/>
						<line class="st4" x1="60.9" y1="132.1" x2="64.9" y2="132.1"/>
						<line class="st4" x1="68.9" y1="132.1" x2="73" y2="132.1"/>
						<line class="st4" x1="77" y1="132.1" x2="81" y2="132.1"/>
						<line class="st4" x1="85" y1="132.1" x2="89" y2="132.1"/>
						<line class="st4" x1="93" y1="132.1" x2="97" y2="132.1"/>
						<line class="st4" x1="101" y1="132.1" x2="105" y2="132.1"/>
						<line class="st4" x1="109" y1="132.1" x2="113" y2="132.1"/>
						<line class="st4" x1="117" y1="132.1" x2="121" y2="132.1"/>
					</g>
					<g>
						<line class="st4" x1="48.9" y1="140.1" x2="52.9" y2="140.1"/>
						<line class="st4" x1="56.9" y1="140.1" x2="60.9" y2="140.1"/>
						<line class="st4" x1="64.9" y1="140.1" x2="68.9" y2="140.1"/>
						<line class="st4" x1="73" y1="140.1" x2="77" y2="140.1"/>
						<line class="st4" x1="81" y1="140.1" x2="85" y2="140.1"/>
						<line class="st4" x1="89" y1="140.1" x2="93" y2="140.1"/>
						<line class="st4" x1="97" y1="140.1" x2="101" y2="140.1"/>
						<line class="st4" x1="105" y1="140.1" x2="109" y2="140.1"/>
						<line class="st4" x1="113" y1="140.1" x2="117" y2="140.1"/>
					</g>
					<g>
						<line class="st4" x1="44.9" y1="148.1" x2="48.9" y2="148.1"/>
						<line class="st4" x1="52.9" y1="148.1" x2="56.9" y2="148.1"/>
						<line class="st4" x1="60.9" y1="148.1" x2="105" y2="148.1"/>
						<line class="st4" x1="109" y1="148.1" x2="113" y2="148.1"/>
						<line class="st4" x1="117" y1="148.1" x2="121" y2="148.1"/>
					</g>
				</g>
				<path class="st4" d="M95,98v6c0,1-0.4,2.1-1.2,2.8C93,107.6,92,108,91,108H58.9c-1,0-2.1,0.4-2.8,1.2c-0.8,0.8-1.2,1.8-1.2,2.8
					s0.4,2.1,1.2,2.8c0.8,0.8,1.8,1.2,2.8,1.2h20c1,0,2.1,0.4,2.8,1.2C82.6,118,83,119,83,120v4"/>
			</g>
			<g>
				<line class="st4" x1="60.9" y1="76" x2="64.9" y2="76"/>
				<line class="st4" x1="68.9" y1="76" x2="73" y2="76"/>
				<line class="st4" x1="77" y1="76" x2="81" y2="76"/>
				<path class="st4" d="M60.9,88h-2c-1,0-2.1-0.4-2.8-1.2C55.3,86,54.9,85,54.9,84v-16c0-1,0.4-2.1,1.2-2.8
					c0.8-0.8,1.8-1.2,2.8-1.2h2"/>
				<path class="st4" d="M81,88h2c1,0,2.1-0.4,2.8-1.2C86.6,86,87,85,87,84v-16c0-1-0.4-2.1-1.2-2.8C85,64.3,84,63.9,83,63.9h-2"/>
			</g>
		</g>
	</g>
</g>
</svg>
