<?xml version="1.0" encoding="utf-8"?>
<!-- Generator: Adobe Illustrator 21.0.2, SVG Export Plug-In . SVG Version: 6.00 Build 0)  -->
<svg version="1.1" id="Isolation_Mode" xmlns="http://www.w3.org/2000/svg" xmlns:xlink="http://www.w3.org/1999/xlink" x="0px"
	 y="0px" viewBox="0 0 200 200" style="enable-background:new 0 0 200 200;" xml:space="preserve">
<style type="text/css">
	.st0{opacity:0.2;fill:#3498DB;enable-background:new    ;}
	.st1{opacity:0.2;fill:#FFFFFF;enable-background:new    ;}
	.st2{opacity:0.4;}
	.st3{fill:#FFFFFF;}
	.st4{fill:#4DFFEC;}
	.st5{fill:#18AFFE;}
	.st6{fill:none;stroke:#FFFFFF;stroke-miterlimit:10;}
	.st7{fill:none;stroke:#FFFFFF;stroke-miterlimit:10;stroke-dasharray:1.832,2.7481;}
	.st8{fill:#18AFFE;fill-opacity:0.6;stroke:#FFFFFF;stroke-miterlimit:10;}
	.st9{fill:none;stroke:#FFFFFF;stroke-miterlimit:10;stroke-dasharray:2,3;}
	.st10{fill:none;stroke:#FFFFFF;stroke-miterlimit:10;stroke-dasharray:1.7763,2.6645;}
	.st11{fill:none;stroke:#FFFFFF;stroke-miterlimit:10;stroke-dasharray:2.3048,3.4573;}
	.st12{opacity:0.2;}
	.st13{fill:#FFA432;}
	.st14{fill:none;stroke:#FFFFFF;stroke-width:1.4;stroke-linejoin:round;stroke-miterlimit:10;}
	.st15{fill:none;stroke:#FFFFFF;stroke-linejoin:round;stroke-miterlimit:10;}
</style>
<g>
	<g>
		<circle class="st0" cx="103.3" cy="101.8" r="91.7"/>
		<path class="st0" d="M103.3,169.4c-37.3,0-67.6-30.3-67.6-67.6S66,34.2,103.3,34.2s67.6,30.3,67.6,67.6
			C171,139.1,140.6,169.4,103.3,169.4z"/>
		<path class="st1" d="M103.4,183.6L103.4,183.6c-1.4,0-2.7,0-4-0.1l0.1-2.6c1.3,0.1,2.6,0.1,3.8,0.1h0.1V183.6z M107.3,183.5
			l-0.1-2.6c1.3-0.1,2.6-0.2,3.8-0.3l0.2,2.6C110,183.4,108.7,183.5,107.3,183.5z M95.4,183.3c-1.3-0.1-2.6-0.3-3.9-0.5l0.4-2.6
			c1.3,0.2,2.5,0.3,3.8,0.5L95.4,183.3z M115.2,182.8l-0.4-2.6c1.3-0.2,2.5-0.4,3.8-0.6l0.5,2.6
			C117.8,182.4,116.5,182.6,115.2,182.8z M87.6,182.1c-1.3-0.2-2.6-0.5-3.9-0.8l0.6-2.5c1.2,0.3,2.5,0.6,3.7,0.8L87.6,182.1z
			 M123,181.3l-0.6-2.5c1.2-0.3,2.5-0.6,3.7-1l0.7,2.5C125.5,180.6,124.3,181,123,181.3z M79.9,180.3c-1.3-0.4-2.5-0.8-3.8-1.2
			l0.9-2.5c1.2,0.4,2.4,0.8,3.6,1.2L79.9,180.3z M130.6,179l-0.9-2.5c1.2-0.4,2.4-0.9,3.6-1.4l1,2.4
			C133.1,178.1,131.8,178.6,130.6,179z M72.4,177.6c-1.2-0.5-2.4-1-3.6-1.6l1.1-2.4c1.2,0.5,2.3,1.1,3.5,1.5L72.4,177.6z M137.9,176
			l-1.1-2.4c1.2-0.5,2.3-1.1,3.4-1.7l1.2,2.3C140.3,174.9,139.1,175.5,137.9,176z M65.2,174.3c-1.2-0.6-2.3-1.3-3.5-1.9l1.3-2.2
			c1.1,0.6,2.2,1.3,3.3,1.9L65.2,174.3z M144.9,172.3l-1.3-2.2c1.1-0.6,2.2-1.3,3.2-2l1.4,2.2C147.2,171,146,171.7,144.9,172.3z
			 M58.4,170.3c-1.1-0.7-2.2-1.5-3.3-2.3l1.5-2.1c1,0.8,2.1,1.5,3.1,2.2L58.4,170.3z M151.5,168l-1.5-2.1c1-0.7,2-1.5,3-2.3l1.6,2
			C153.6,166.4,152.6,167.2,151.5,168z M52,165.6c-1-0.8-2-1.7-3-2.6l1.7-2c1,0.8,1.9,1.7,2.9,2.5L52,165.6z M157.7,163l-1.7-1.9
			c0.9-0.8,1.9-1.7,2.8-2.6l1.8,1.9C159.6,161.2,158.6,162.1,157.7,163z M46.1,160.4c-0.2-0.2-0.5-0.5-0.7-0.7
			c-0.7-0.7-1.4-1.4-2.1-2.1l1.9-1.8c0.6,0.7,1.3,1.4,2,2.1c0.2,0.2,0.5,0.5,0.7,0.7L46.1,160.4z M163.3,157.5l-1.9-1.8
			c0.9-0.9,1.7-1.9,2.5-2.9l2,1.7C165.1,155.5,164.2,156.5,163.3,157.5z M40.7,154.6c-0.8-1-1.7-2-2.5-3.1l2.1-1.6
			c0.8,1,1.6,2,2.4,3L40.7,154.6z M168.4,151.4l-2.1-1.6c0.8-1,1.5-2.1,2.3-3.1l2.1,1.5C170,149.3,169.2,150.4,168.4,151.4z
			 M35.9,148.3c-0.7-1.1-1.5-2.2-2.2-3.3l2.2-1.4c0.7,1.1,1.4,2.2,2.1,3.2L35.9,148.3z M172.9,144.9l-2.2-1.4
			c0.7-1.1,1.3-2.2,1.9-3.3l2.3,1.3C174.3,142.7,173.6,143.8,172.9,144.9z M31.7,141.6c-0.6-1.1-1.3-2.3-1.8-3.5l2.3-1.2
			c0.6,1.1,1.2,2.3,1.8,3.4L31.7,141.6z M176.8,138l-2.3-1.2c0.6-1.1,1.1-2.3,1.6-3.5l2.4,1C177.9,135.6,177.4,136.8,176.8,138z
			 M28.2,134.5c-0.5-1.2-1-2.4-1.5-3.7l2.4-0.9c0.5,1.2,0.9,2.4,1.4,3.5L28.2,134.5z M179.9,130.8l-2.4-0.9c0.4-1.2,0.9-2.4,1.3-3.6
			l2.5,0.8C180.8,128.3,180.4,129.5,179.9,130.8z M25.4,127.1c-0.4-1.2-0.8-2.5-1.1-3.8l2.5-0.7c0.3,1.2,0.7,2.5,1.1,3.7L25.4,127.1
			z M182.4,123.2l-2.5-0.7c0.3-1.2,0.6-2.5,0.9-3.7l2.5,0.6C183,120.7,182.7,122,182.4,123.2z M23.3,119.5c-0.3-1.3-0.5-2.6-0.8-3.9
			l2.6-0.4c0.2,1.3,0.5,2.5,0.7,3.8L23.3,119.5z M184.1,115.5l-2.6-0.4c0.2-1.3,0.4-2.5,0.5-3.8l2.6,0.3
			C184.5,112.9,184.3,114.2,184.1,115.5z M22,111.6c-0.2-1.3-0.3-2.6-0.4-3.9l2.6-0.2c0.1,1.3,0.2,2.6,0.4,3.8L22,111.6z M185,107.6
			l-2.6-0.2c0.1-1.3,0.1-2.6,0.2-3.8l2.6,0.1C185.1,105,185.1,106.3,185,107.6z M21.4,103.8c0-0.7,0-1.3,0-2s0-1.3,0-2l2.6,0.1
			c0,0.6,0,1.3,0,1.9s0,1.3,0,1.9L21.4,103.8z M182.6,99.8c0-1.3-0.1-2.6-0.2-3.8l2.6-0.2c0.1,1.3,0.2,2.6,0.2,4H182.6z M24.2,96
			l-2.6-0.2c0.1-1.3,0.2-2.6,0.4-3.9l2.6,0.3C24.4,93.5,24.3,94.8,24.2,96z M182,92.1c-0.2-1.3-0.3-2.5-0.5-3.8l2.6-0.4
			c0.2,1.3,0.4,2.6,0.6,3.9L182,92.1z M25.1,88.4L22.6,88c0.2-1.3,0.5-2.6,0.8-3.9l2.5,0.6C25.6,85.9,25.3,87.2,25.1,88.4z
			 M180.7,84.6c-0.3-1.2-0.6-2.5-0.9-3.7l2.5-0.7c0.3,1.3,0.7,2.6,0.9,3.8L180.7,84.6z M26.8,80.9l-2.5-0.7c0.3-1.3,0.7-2.5,1.1-3.8
			l2.5,0.8C27.5,78.5,27.1,79.7,26.8,80.9z M178.7,77.2c-0.4-1.2-0.8-2.4-1.3-3.6l2.4-0.9c0.5,1.2,0.9,2.5,1.3,3.7L178.7,77.2z
			 M29.1,73.6l-2.4-0.9c0.5-1.2,1-2.5,1.5-3.7l2.4,1C30.1,71.3,29.6,72.5,29.1,73.6z M176,70c-0.5-1.2-1.1-2.3-1.6-3.5l2.3-1.2
			c0.6,1.2,1.1,2.4,1.7,3.6L176,70z M32.2,66.6l-2.3-1.2c0.6-1.2,1.2-2.4,1.8-3.5l2.3,1.3C33.4,64.3,32.8,65.5,32.2,66.6z
			 M172.6,63.2c-0.6-1.1-1.3-2.2-1.9-3.3l2.2-1.4c0.7,1.1,1.4,2.3,2,3.4L172.6,63.2z M35.9,59.9l-2.2-1.4c0.7-1.1,1.4-2.2,2.2-3.3
			l2.1,1.5C37.3,57.8,36.6,58.9,35.9,59.9z M168.5,56.7c-0.7-1-1.5-2.1-2.3-3.1l2.1-1.6c0.8,1,1.6,2.1,2.3,3.2L168.5,56.7z
			 M40.3,53.6L38.2,52c0.8-1,1.6-2.1,2.5-3.1l2,1.7C41.9,51.6,41.1,52.6,40.3,53.6z M163.9,50.6c-0.8-1-1.7-1.9-2.5-2.9l1.9-1.8
			c0.9,1,1.8,2,2.6,3L163.9,50.6z M45.2,47.8L43.3,46c0.7-0.7,1.4-1.5,2.1-2.2c0.2-0.2,0.5-0.5,0.7-0.7l1.8,1.9
			c-0.2,0.2-0.4,0.4-0.7,0.7C46.6,46.4,45.9,47.1,45.2,47.8z M158.7,45c-0.9-0.9-1.9-1.8-2.8-2.6l1.7-2c1,0.9,2,1.8,2.9,2.7
			L158.7,45z M50.7,42.4L49,40.5c1-0.9,2-1.7,3-2.6l1.6,2C52.7,40.7,51.7,41.6,50.7,42.4z M152.9,39.9c-1-0.8-2-1.6-3-2.3l1.5-2.1
			c1.1,0.8,2.1,1.6,3.1,2.4L152.9,39.9z M56.7,37.6l-1.5-2.1c1.1-0.8,2.2-1.5,3.3-2.3l1.4,2.2C58.8,36.1,57.7,36.9,56.7,37.6z
			 M146.7,35.4c-1.1-0.7-2.2-1.4-3.3-2l1.3-2.2c1.1,0.7,2.3,1.4,3.4,2.1L146.7,35.4z M63.1,33.4l-1.3-2.2c1.1-0.7,2.3-1.3,3.5-1.9
			l1.2,2.3C65.3,32.1,64.2,32.8,63.1,33.4z M140.1,31.5c-1.1-0.6-2.3-1.2-3.4-1.7l1.1-2.4c1.2,0.6,2.4,1.1,3.5,1.8L140.1,31.5z
			 M69.9,29.8l-1.1-2.4c1.2-0.6,2.4-1.1,3.6-1.6l1,2.4C72.2,28.8,71,29.3,69.9,29.8z M133.2,28.3c-1.2-0.5-2.4-0.9-3.6-1.4l0.9-2.5
			c1.2,0.4,2.5,0.9,3.7,1.4L133.2,28.3z M76.9,26.9L76,24.4c1.2-0.4,2.5-0.8,3.8-1.2l0.7,2.5C79.4,26.1,78.1,26.5,76.9,26.9z
			 M126,25.7c-1.2-0.4-2.5-0.7-3.7-1l0.6-2.5c1.3,0.3,2.6,0.7,3.8,1L126,25.7z M84.3,24.8l-0.6-2.5c1.3-0.3,2.6-0.6,3.9-0.8l0.5,2.6
			C86.8,24.2,85.5,24.5,84.3,24.8z M118.5,23.9c-1.2-0.2-2.5-0.5-3.8-0.6l0.4-2.6c1.3,0.2,2.6,0.4,3.9,0.7L118.5,23.9z M91.8,23.3
			l-0.4-2.6c1.3-0.2,2.6-0.3,3.9-0.5l0.2,2.6C94.3,23,93.1,23.1,91.8,23.3z M110.9,22.8c-1.3-0.1-2.6-0.2-3.8-0.3l0.1-2.6
			c1.3,0.1,2.6,0.2,3.9,0.3L110.9,22.8z M99.4,22.6L99.3,20c1.3-0.1,2.6-0.1,4-0.1v2.6C102,22.5,100.7,22.5,99.4,22.6z"/>
	</g>
	<g class="st2">
		<g>
			<path class="st3" d="M66.1,26.4c-4.9,0-8.8-3.9-8.8-8.8s3.9-8.8,8.8-8.8v1.3c-4.1,0-7.5,3.4-7.5,7.5s3.4,7.5,7.5,7.5V26.4z"/>
			<path class="st3" d="M66.8,10.1c-0.2,0-0.5,0-0.7,0V8.8c0.3,0,0.6,0,0.9,0L66.8,10.1z"/>
			<path class="st3" d="M68.6,26l-0.4-1.2c0.5-0.1,0.9-0.3,1.4-0.6l0.6,1.1C69.7,25.6,69.2,25.8,68.6,26z M71.7,24.4l-0.8-1
				c0.4-0.3,0.7-0.7,1-1l1,0.8C72.5,23.6,72.1,24,71.7,24.4z M73.8,21.7l-1.2-0.6c0.2-0.4,0.4-0.9,0.6-1.4l1.2,0.4
				C74.3,20.7,74.1,21.2,73.8,21.7z M74.8,18.4l-1.3-0.1c0-0.2,0-0.5,0-0.7s0-0.5,0-0.7l1.3-0.1c0,0.3,0,0.6,0,0.9
				C74.9,17.9,74.9,18.1,74.8,18.4z M73.2,15.4c-0.1-0.5-0.3-0.9-0.6-1.4l1.1-0.6c0.3,0.5,0.5,1,0.7,1.6L73.2,15.4z M71.9,12.8
				c-0.3-0.4-0.7-0.7-1-1l0.8-1c0.4,0.4,0.9,0.8,1.2,1.2L71.9,12.8z M69.6,11c-0.4-0.2-0.9-0.4-1.4-0.6l0.4-1.2
				c0.6,0.2,1.1,0.4,1.6,0.7L69.6,11z"/>
			<path class="st3" d="M66.1,26.4v-1.3c0.3,0,0.5,0,0.7,0l0.1,1.3C66.7,26.4,66.4,26.4,66.1,26.4z"/>
		</g>
		<g>
			<path class="st3" d="M187.3,147.4c-4.9,0-8.8-3.9-8.8-8.8c0-4.9,3.9-8.8,8.8-8.8v1.3c-4.1,0-7.5,3.4-7.5,7.5s3.4,7.5,7.5,7.5
				V147.4z"/>
			<path class="st3" d="M188,131.2c-0.2,0-0.5,0-0.7,0v-1.3c0.3,0,0.6,0,0.9,0L188,131.2z"/>
			<path class="st3" d="M189.9,147.1l-0.4-1.2c0.5-0.1,0.9-0.3,1.4-0.6l0.6,1.1C190.9,146.7,190.4,146.9,189.9,147.1z M192.9,145.4
				l-0.8-1c0.4-0.3,0.7-0.7,1-1l1,0.8C193.7,144.6,193.3,145.1,192.9,145.4z M195.1,142.8l-1.2-0.6c0.2-0.4,0.4-0.9,0.6-1.4l1.2,0.4
				C195.5,141.7,195.3,142.3,195.1,142.8z M196,139.5l-1.3-0.1c0-0.2,0-0.5,0-0.7s0-0.5,0-0.7l1.3-0.1c0,0.3,0,0.6,0,0.9
				C196.1,138.9,196.1,139.2,196,139.5z M194.5,136.5c-0.1-0.5-0.3-0.9-0.6-1.4l1.1-0.6c0.3,0.5,0.5,1,0.7,1.6L194.5,136.5z
				 M193.1,133.9c-0.3-0.4-0.7-0.7-1-1l0.8-1c0.4,0.4,0.9,0.8,1.2,1.2L193.1,133.9z M190.8,132c-0.4-0.2-0.9-0.4-1.4-0.6l0.4-1.2
				c0.6,0.2,1.1,0.4,1.6,0.7L190.8,132z"/>
			<path class="st3" d="M187.3,147.4v-1.3c0.3,0,0.5,0,0.7,0l0.1,1.3C187.9,147.4,187.6,147.4,187.3,147.4z"/>
		</g>
		<path class="st3" d="M27.6,102.1c-3,0-5.4-2.4-5.4-5.4s2.4-5.4,5.4-5.4s5.4,2.4,5.4,5.4C33,99.6,30.6,102.1,27.6,102.1z
			 M27.6,92.6c-2.3,0-4.1,1.8-4.1,4.1c0,2.3,1.8,4.1,4.1,4.1s4.1-1.8,4.1-4.1S29.9,92.6,27.6,92.6z"/>
		<rect x="26.9" y="94.1" class="st3" width="1.3" height="5.1"/>
		<rect x="25" y="96" class="st3" width="5.1" height="1.3"/>
		<rect x="155.8" y="46.6" class="st3" width="1.3" height="5.8"/>
		<rect x="153.5" y="48.8" class="st3" width="5.8" height="1.3"/>
		<rect x="151.4" y="150.8" class="st3" width="1.8" height="1.3"/>
		<rect x="144.8" y="150.8" class="st3" width="1.8" height="1.3"/>
		<rect x="158" y="150.8" class="st3" width="1.8" height="1.3"/>
		<rect x="90.1" y="24" class="st3" width="1.3" height="5.8"/>
		<rect x="87.9" y="26.2" class="st3" width="5.8" height="1.3"/>
		<path class="st3" d="M102.2,14.5c-2.2,0-4-1.8-4-4s1.8-4,4-4s4,1.8,4,4S104.4,14.5,102.2,14.5z M102.2,7.9c-1.5,0-2.7,1.2-2.7,2.7
			s1.2,2.7,2.7,2.7s2.7-1.2,2.7-2.7C104.9,9.1,103.7,7.9,102.2,7.9z"/>
		<path class="st3" d="M115.8,173c-2.2,0-4-1.8-4-4s1.8-4,4-4s4,1.8,4,4C119.7,171.3,117.9,173,115.8,173z M115.8,166.4
			c-1.5,0-2.7,1.2-2.7,2.7s1.2,2.7,2.7,2.7s2.7-1.2,2.7-2.7C118.4,167.6,117.2,166.4,115.8,166.4z"/>
		<path class="st3" d="M47.5,73.6c-2.2,0-4-1.8-4-4s1.8-4,4-4s4,1.8,4,4C51.5,71.8,49.7,73.6,47.5,73.6z M47.5,67
			c-1.5,0-2.7,1.2-2.7,2.7s1.2,2.7,2.7,2.7s2.7-1.2,2.7-2.7C50.1,68.1,49,67,47.5,67z"/>
		
			<rect x="111.8" y="173.3" transform="matrix(0.8661 -0.4999 0.4999 0.8661 -71.9768 79.6848)" class="st3" width="1.8" height="1.8"/>
		
			<rect x="117.8" y="173.3" transform="matrix(0.4999 -0.8661 0.8661 0.4999 -91.4721 189.9185)" class="st3" width="1.8" height="1.8"/>
		<rect x="114.9" y="168.1" class="st3" width="1.8" height="1.8"/>
		<path class="st3" d="M188.8,73.4l-0.6-0.9c-0.3-0.5-0.7-1-1.1-1.4c-0.4-0.4-0.9-0.8-1.4-1.1l-0.9-0.6l0.9-0.6
			c0.5-0.3,1-0.7,1.4-1.1s0.8-0.9,1.1-1.4l0.6-0.9l0.6,0.9c0.3,0.5,0.7,1,1.1,1.4c0.4,0.4,0.9,0.8,1.4,1.1l0.9,0.6l-0.9,0.6
			c-0.5,0.3-1,0.7-1.4,1.1s-0.8,0.9-1.1,1.4L188.8,73.4z M187.3,69.5c0.3,0.2,0.6,0.5,0.8,0.7c0.3,0.3,0.5,0.5,0.7,0.8
			c0.2-0.3,0.5-0.6,0.7-0.8c0.3-0.3,0.5-0.5,0.8-0.7c-0.3-0.2-0.6-0.5-0.8-0.7c-0.3-0.3-0.5-0.5-0.7-0.8c-0.2,0.3-0.5,0.6-0.7,0.8
			C187.8,69,187.6,69.3,187.3,69.5z"/>
		<path class="st3" d="M16.1,62.7c0.5,0.8,1.2,1.5,2,2c-0.8,0.5-1.5,1.2-2,2c-0.5-0.8-1.2-1.5-2-2C14.9,64.2,15.6,63.6,16.1,62.7
			 M16.1,59.2c-0.9,3.4-2.1,4.6-5.5,5.5c3.4,0.9,4.6,2.1,5.5,5.5c0.9-3.4,2.1-4.6,5.5-5.5C18.2,63.8,17,62.6,16.1,59.2L16.1,59.2z"
			/>
		<rect x="46.6" y="69" class="st3" width="1.8" height="1.3"/>
		<rect x="40" y="69" class="st3" width="1.8" height="1.3"/>
		<path class="st3" d="M5.9,121.5c-1.1,0-1.9-0.9-1.9-1.9c0-1.1,0.9-1.9,1.9-1.9c1.1,0,1.9,0.9,1.9,1.9
			C7.8,120.7,6.9,121.5,5.9,121.5z M5.9,119c-0.4,0-0.6,0.3-0.6,0.6c0,0.4,0.3,0.6,0.6,0.6c0.4,0,0.6-0.3,0.6-0.6S6.2,119,5.9,119z"
			/>
		<path class="st3" d="M12.9,121.5c-1.1,0-1.9-0.9-1.9-1.9c0-1.1,0.9-1.9,1.9-1.9c1.1,0,1.9,0.9,1.9,1.9
			C14.9,120.7,14,121.5,12.9,121.5z M12.9,119c-0.4,0-0.6,0.3-0.6,0.6c0,0.4,0.3,0.6,0.6,0.6c0.4,0,0.6-0.3,0.6-0.6
			S13.3,119,12.9,119z"/>
		<path class="st3" d="M20,121.5c-1.1,0-1.9-0.9-1.9-1.9c0-1.1,0.9-1.9,1.9-1.9c1.1,0,1.9,0.9,1.9,1.9C21.9,120.7,21,121.5,20,121.5
			z M20,119c-0.4,0-0.6,0.3-0.6,0.6c0,0.4,0.3,0.6,0.6,0.6c0.4,0,0.6-0.3,0.6-0.6S20.3,119,20,119z"/>
		<path class="st3" d="M51.4,148.4c-1,0-1.9-0.6-2.7-1.1s-1.5-1-2-0.8c-0.4,0.2-0.8,0.4-1.1,0.7c-0.4,0.3-0.9,0.7-1.4,0.9
			c-0.9,0.4-2.1,0.1-3.2-0.7l0,0c-0.7-0.5-1.5-1.1-2.1-1c-0.5,0.1-1,0.4-1.5,0.8c-0.3,0.2-0.6,0.4-0.9,0.6c-1,0.6-2.3,0.6-3.3,0
			c-0.3-0.2-0.6-0.4-0.8-0.6c-0.5-0.4-1-0.8-1.5-0.8c-0.6-0.1-1.4,0.4-2.1,0.9c-1,0.6-2.1,1.4-3.2,0.9c-0.5-0.2-1-0.6-1.4-0.9
			c-0.4-0.3-0.8-0.6-1.2-0.7c-0.7-0.3-1.5,0.2-1.9,0.6l0,0c-0.9,0.7-1.9,1.4-3,1.3c-0.8-0.1-1.4-0.6-2.1-1.1
			c-0.3-0.2-0.5-0.4-0.8-0.5l0.7-1.1c0.3,0.2,0.6,0.4,0.9,0.6c0.5,0.4,1,0.8,1.5,0.8c0.6,0.1,1.3-0.5,2.1-1l0,0
			c1.1-0.8,2.3-1.1,3.2-0.7c0.5,0.2,1,0.6,1.4,0.9c0.4,0.3,0.8,0.6,1.1,0.7c0.5,0.2,1.2-0.3,2-0.8c0.9-0.6,1.9-1.2,3-1.1
			c0.8,0.1,1.5,0.6,2.1,1.1c0.2,0.2,0.5,0.4,0.8,0.5c0.6,0.4,1.3,0.4,1.9,0c0.3-0.2,0.5-0.4,0.8-0.5c0.6-0.5,1.3-1,2.1-1.1
			c1.1-0.2,2.1,0.6,3,1.3l0,0c0.4,0.3,1.3,0.8,1.9,0.6c0.4-0.2,0.8-0.4,1.2-0.7s0.9-0.7,1.4-0.9c1.2-0.5,2.3,0.2,3.2,0.9
			c0.7,0.5,1.5,1,2.1,0.9c0.5-0.1,1-0.4,1.5-0.8c0.3-0.2,0.5-0.4,0.8-0.6c1-0.6,2.3-0.6,3.3,0l-0.7,1.1c-0.6-0.4-1.3-0.4-1.9,0
			c-0.3,0.2-0.5,0.3-0.8,0.5c-0.6,0.5-1.3,1-2.1,1.1C51.6,148.4,51.5,148.4,51.4,148.4z"/>
		<path class="st3" d="M151.9,33.2c-0.1,0-0.2,0-0.3,0c-0.7-0.1-1.3-0.5-1.8-0.9l0.8-1.1l0,0c0.4,0.3,0.9,0.6,1.2,0.7
			c0.5,0.1,1.1-0.4,1.7-0.9l0,0c1-0.8,2-1,2.9-0.6c0.5,0.2,0.9,0.5,1.3,0.8c0.3,0.3,0.7,0.5,1,0.6c0.4,0.2,1-0.2,1.7-0.7
			c0.8-0.5,1.7-1.1,2.6-0.9c0.7,0.1,1.3,0.5,1.8,1c0.2,0.2,0.4,0.3,0.6,0.5c0.5,0.3,1.1,0.3,1.6,0c0.2-0.1,0.4-0.3,0.7-0.5
			c0.6-0.4,1.1-0.8,1.8-0.9c1-0.1,1.9,0.5,2.7,1.1l0,0c0.3,0.2,1,0.7,1.6,0.5c0.3-0.1,0.6-0.4,1-0.6c0.4-0.3,0.8-0.6,1.3-0.8
			c1-0.4,2,0.2,2.9,0.8l-0.7,1.1c-0.7-0.4-1.3-0.8-1.7-0.7c-0.3,0.1-0.6,0.4-1,0.6c-0.4,0.3-0.8,0.6-1.3,0.8
			c-0.8,0.3-1.9,0.1-2.9-0.6l0,0c-0.6-0.5-1.3-0.9-1.7-0.9c-0.4,0.1-0.8,0.4-1.2,0.7c-0.2,0.2-0.5,0.4-0.7,0.5c-0.9,0.6-2,0.6-2.9,0
			c-0.3-0.2-0.5-0.3-0.7-0.5c-0.4-0.3-0.9-0.6-1.3-0.7c-0.5-0.1-1.1,0.3-1.8,0.7c-0.9,0.6-1.8,1.2-2.9,0.8c-0.5-0.2-0.9-0.5-1.3-0.8
			c-0.3-0.3-0.7-0.5-1-0.6c-0.6-0.2-1.3,0.3-1.6,0.5l0,0C153.6,32.6,152.8,33.2,151.9,33.2z"/>
		<rect x="158.1" y="165.5" class="st3" width="16.8" height="1.3"/>
		<polygon class="st3" points="168.8,170 168.2,168.8 173.4,166.2 168.2,163.5 168.8,162.4 176.3,166.2 		"/>
		<polygon class="st4" points="135.7,30.7 129,30.7 129,24 126.1,24 126.1,30.7 119.3,30.7 119.3,33.6 126.1,33.6 126.1,40.3 
			129,40.3 129,33.6 135.7,33.6 		"/>
		<polygon class="st4" points="80.5,162.6 76.9,162.6 76.9,158.9 75.3,158.9 75.3,162.6 71.6,162.6 71.6,164.2 75.3,164.2 
			75.3,167.9 76.9,167.9 76.9,164.2 80.5,164.2 		"/>
	</g>
	
		<image style="overflow:visible;opacity:0.4;enable-background:new    ;" width="121" height="22" xlink:href="F49BB2FA.png"  transform="matrix(1 0 0 1 34.3541 146.3916)">
	</image>
	<g>
		<g>
			<g>
				<rect x="47.7" y="38" class="st5" width="23.1" height="23.1"/>
				<g>
					<polyline class="st6" points="70.7,60 70.7,61 69.7,61 					"/>
					<line class="st7" x1="67" y1="61" x2="50" y2="61"/>
					<polyline class="st6" points="48.7,61 47.7,61 47.7,60 					"/>
					<line class="st7" x1="47.7" y1="57.3" x2="47.7" y2="40.4"/>
					<polyline class="st6" points="47.7,39 47.7,38 48.7,38 					"/>
					<line class="st7" x1="51.4" y1="38" x2="68.4" y2="38"/>
					<polyline class="st6" points="69.7,38 70.7,38 70.7,39 					"/>
					<line class="st7" x1="70.7" y1="41.7" x2="70.7" y2="58.7"/>
				</g>
			</g>
			<rect x="37.6" y="48" class="st8" width="23.1" height="23.1"/>
			<line class="st9" x1="60.7" y1="48" x2="70.7" y2="38"/>
			<line class="st9" x1="37.6" y1="48" x2="47.7" y2="38"/>
			<line class="st9" x1="37.6" y1="71.1" x2="47.7" y2="61"/>
			<line class="st9" x1="60.7" y1="71.1" x2="70.7" y2="61"/>
		</g>
		<g>
			<g>
				<rect x="39.6" y="94.1" class="st5" width="18" height="18"/>
				<g>
					<polyline class="st6" points="57.5,111.1 57.5,112.1 56.5,112.1 					"/>
					<line class="st10" x1="53.9" y1="112.1" x2="41.9" y2="112.1"/>
					<polyline class="st6" points="40.6,112.1 39.6,112.1 39.6,111.1 					"/>
					<line class="st10" x1="39.6" y1="108.4" x2="39.6" y2="96.5"/>
					<polyline class="st6" points="39.6,95.1 39.6,94.1 40.6,94.1 					"/>
					<line class="st10" x1="43.2" y1="94.1" x2="55.2" y2="94.1"/>
					<polyline class="st6" points="56.5,94.1 57.5,94.1 57.5,95.1 					"/>
					<line class="st10" x1="57.5" y1="97.8" x2="57.5" y2="109.8"/>
				</g>
			</g>
			<rect x="24.5" y="91.6" class="st8" width="23.1" height="23.1"/>
			<line class="st9" x1="47.5" y1="91.6" x2="57.5" y2="94.1"/>
			<line class="st9" x1="24.5" y1="91.6" x2="39.6" y2="94.1"/>
			<line class="st9" x1="24.5" y1="114.6" x2="39.6" y2="112.1"/>
			<line class="st9" x1="47.5" y1="114.6" x2="57.5" y2="111.9"/>
		</g>
		<g>
			<g>
				<rect x="149" y="94.1" class="st5" width="18" height="18"/>
				<g>
					<polyline class="st6" points="149,111.1 149,112.1 150,112.1 					"/>
					<line class="st10" x1="152.6" y1="112.1" x2="164.6" y2="112.1"/>
					<polyline class="st6" points="166,112.1 167,112.1 167,111.1 					"/>
					<line class="st10" x1="167" y1="108.4" x2="167" y2="96.5"/>
					<polyline class="st6" points="167,95.1 167,94.1 166,94.1 					"/>
					<line class="st10" x1="163.3" y1="94.1" x2="151.3" y2="94.1"/>
					<polyline class="st6" points="150,94.1 149,94.1 149,95.1 					"/>
					<line class="st10" x1="149" y1="97.8" x2="149" y2="109.8"/>
				</g>
			</g>
			
				<rect x="159" y="91.6" transform="matrix(-1 -4.486690e-11 4.486690e-11 -1 341.0726 206.227)" class="st8" width="23.1" height="23.1"/>
			<line class="st9" x1="159" y1="91.6" x2="149" y2="94.1"/>
			<line class="st9" x1="182.1" y1="91.6" x2="167" y2="94.1"/>
			<line class="st9" x1="182.1" y1="114.6" x2="167" y2="112.1"/>
			<line class="st9" x1="159" y1="114.6" x2="149" y2="111.9"/>
		</g>
		<g>
			<g>
				<rect x="94.8" y="24.4" class="st5" width="17" height="17"/>
				<g>
					<polyline class="st6" points="111.8,40.4 111.8,41.4 110.8,41.4 					"/>
					<line class="st11" x1="107.3" y1="41.4" x2="97.5" y2="41.4"/>
					<polyline class="st6" points="95.8,41.4 94.8,41.4 94.8,40.4 					"/>
					<line class="st11" x1="94.8" y1="36.9" x2="94.8" y2="27.1"/>
					<polyline class="st6" points="94.8,25.4 94.8,24.4 95.8,24.4 					"/>
					<line class="st11" x1="99.2" y1="24.4" x2="109" y2="24.4"/>
					<polyline class="st6" points="110.8,24.4 111.8,24.4 111.8,25.4 					"/>
					<line class="st11" x1="111.8" y1="28.8" x2="111.8" y2="38.6"/>
				</g>
			</g>
			<rect x="91.7" y="31.4" class="st8" width="23.1" height="23.1"/>
			<line class="st9" x1="91.7" y1="31.4" x2="94.8" y2="24.4"/>
			<line class="st9" x1="91.7" y1="54.4" x2="94.8" y2="41.4"/>
			<line class="st9" x1="114.7" y1="31.4" x2="111.7" y2="24.4"/>
			<line class="st9" x1="114.7" y1="54.4" x2="111.7" y2="41.4"/>
		</g>
		<g>
			<g>
				<rect x="47.7" y="129.3" class="st5" width="23.1" height="23.1"/>
				<g>
					<polyline class="st6" points="70.7,151.4 70.7,152.4 69.7,152.4 					"/>
					<line class="st7" x1="67" y1="152.4" x2="50" y2="152.4"/>
					<polyline class="st6" points="48.7,152.4 47.7,152.4 47.7,151.4 					"/>
					<line class="st7" x1="47.7" y1="148.6" x2="47.7" y2="131.7"/>
					<polyline class="st6" points="47.7,130.3 47.7,129.3 48.7,129.3 					"/>
					<line class="st7" x1="51.4" y1="129.3" x2="68.4" y2="129.3"/>
					<polyline class="st6" points="69.7,129.3 70.7,129.3 70.7,130.3 					"/>
					<line class="st7" x1="70.7" y1="133.1" x2="70.7" y2="150"/>
				</g>
			</g>
			<rect x="37.6" y="139.4" class="st8" width="23.1" height="23.1"/>
			<line class="st9" x1="60.7" y1="139.4" x2="70.7" y2="129.3"/>
			<line class="st9" x1="37.6" y1="139.4" x2="47.7" y2="129.3"/>
			<line class="st9" x1="37.6" y1="162.4" x2="47.7" y2="152.4"/>
			<line class="st9" x1="60.7" y1="162.4" x2="70.7" y2="152.4"/>
		</g>
		<g>
			<g>
				<rect x="135.8" y="38" class="st5" width="23.1" height="23.1"/>
				<g>
					<polyline class="st6" points="135.8,60 135.8,61 136.8,61 					"/>
					<line class="st7" x1="139.5" y1="61" x2="156.5" y2="61"/>
					<polyline class="st6" points="157.9,61 158.9,61 158.9,60 					"/>
					<line class="st7" x1="158.9" y1="57.3" x2="158.9" y2="40.4"/>
					<polyline class="st6" points="158.9,39 158.9,38 157.9,38 					"/>
					<line class="st7" x1="155.1" y1="38" x2="138.2" y2="38"/>
					<polyline class="st6" points="136.8,38 135.8,38 135.8,39 					"/>
					<line class="st7" x1="135.8" y1="41.7" x2="135.8" y2="58.7"/>
				</g>
			</g>
			
				<rect x="145.8" y="48" transform="matrix(-1 -4.490642e-11 4.490642e-11 -1 314.7063 119.0804)" class="st8" width="23.1" height="23.1"/>
			<line class="st9" x1="145.8" y1="48" x2="135.8" y2="38"/>
			<line class="st9" x1="168.9" y1="48" x2="158.9" y2="38"/>
			<line class="st9" x1="168.9" y1="71.1" x2="158.9" y2="61"/>
			<line class="st9" x1="145.8" y1="71.1" x2="135.8" y2="61"/>
		</g>
		<g>
			<g>
				<rect x="135.8" y="129.3" class="st5" width="23.1" height="23.1"/>
				<g>
					<polyline class="st6" points="135.8,151.4 135.8,152.4 136.8,152.4 					"/>
					<line class="st7" x1="139.5" y1="152.4" x2="156.5" y2="152.4"/>
					<polyline class="st6" points="157.9,152.4 158.9,152.4 158.9,151.4 					"/>
					<line class="st7" x1="158.9" y1="148.6" x2="158.9" y2="131.7"/>
					<polyline class="st6" points="158.9,130.3 158.9,129.3 157.9,129.3 					"/>
					<line class="st7" x1="155.1" y1="129.3" x2="138.2" y2="129.3"/>
					<polyline class="st6" points="136.8,129.3 135.8,129.3 135.8,130.3 					"/>
					<line class="st7" x1="135.8" y1="133.1" x2="135.8" y2="150"/>
				</g>
			</g>
			
				<rect x="145.8" y="139.4" transform="matrix(-1 -4.486690e-11 4.486690e-11 -1 314.7063 301.7738)" class="st8" width="23.1" height="23.1"/>
			<line class="st9" x1="145.8" y1="139.4" x2="135.8" y2="129.3"/>
			<line class="st9" x1="168.9" y1="139.4" x2="158.9" y2="129.3"/>
			<line class="st9" x1="168.9" y1="162.4" x2="158.9" y2="152.4"/>
			<line class="st9" x1="145.8" y1="162.4" x2="135.8" y2="152.4"/>
		</g>
		<line class="st9" x1="73.4" y1="126.3" x2="133" y2="66.7"/>
		<line class="st9" x1="133" y1="126.3" x2="73.4" y2="66.7"/>
		<g>
			<g>
				<rect x="94.8" y="149.2" class="st5" width="17" height="17"/>
				<g>
					<polyline class="st6" points="111.8,165.1 111.8,166.1 110.8,166.1 					"/>
					<line class="st11" x1="107.3" y1="166.1" x2="97.5" y2="166.1"/>
					<polyline class="st6" points="95.8,166.1 94.8,166.1 94.8,165.1 					"/>
					<line class="st11" x1="94.8" y1="161.7" x2="94.8" y2="151.9"/>
					<polyline class="st6" points="94.8,150.2 94.8,149.2 95.8,149.2 					"/>
					<line class="st11" x1="99.2" y1="149.2" x2="109" y2="149.2"/>
					<polyline class="st6" points="110.8,149.2 111.8,149.2 111.8,150.2 					"/>
					<line class="st11" x1="111.8" y1="153.6" x2="111.8" y2="163.4"/>
				</g>
			</g>
			<rect x="91.7" y="156.1" class="st8" width="23.1" height="23.1"/>
			<line class="st9" x1="91.7" y1="156.1" x2="94.8" y2="149.2"/>
			<line class="st9" x1="91.7" y1="179.2" x2="94.8" y2="166.1"/>
			<line class="st9" x1="114.7" y1="156.1" x2="111.7" y2="149.2"/>
			<line class="st9" x1="114.7" y1="179.2" x2="111.7" y2="166.1"/>
		</g>
		<line class="st9" x1="103.2" y1="145.3" x2="103.2" y2="57.7"/>
		<line class="st9" x1="145.4" y1="96.5" x2="61.1" y2="96.5"/>
	</g>
	<g>
		<circle class="st12" cx="103.3" cy="101.8" r="41.5"/>
		<circle class="st13" cx="103.3" cy="101.8" r="32.4"/>
		<polyline class="st14" points="100.8,69.5 100.8,67 97,67 97,60.8 109.5,60.8 109.5,67 105.7,67 105.7,69.5 		"/>
		<path class="st14" d="M113.2,67.1c15.1,4.3,26.1,18.2,26.1,34.7c0,19.9-16.1,36.1-36.1,36.1s-36.1-16.1-36.1-36.1
			c0-16.5,11-30.4,26.1-34.7"/>
		<circle class="st14" cx="103.3" cy="101.8" r="29.8"/>
		<g>
			<line class="st14" x1="131.9" y1="72" x2="128.1" y2="75.7"/>
			
				<rect x="131.1" y="66.6" transform="matrix(0.7071 -0.7071 0.7071 0.7071 -10.3948 115.0888)" class="st14" width="5.3" height="7"/>
		</g>
		<g>
			<line class="st14" x1="74.7" y1="72" x2="78.4" y2="75.7"/>
			
				<rect x="69.3" y="67.5" transform="matrix(0.7071 -0.7071 0.7071 0.7071 -28.2405 72.0054)" class="st14" width="7" height="5.3"/>
		</g>
		<line class="st15" x1="129.4" y1="102.4" x2="126.9" y2="102.4"/>
		<line class="st15" x1="79.6" y1="102.4" x2="77.2" y2="102.4"/>
		<line class="st15" x1="86.7" y1="85.9" x2="85" y2="84.1"/>
		<g>
			<path class="st3" d="M85.2,106.7v-19h5.2l4.2,8.5l1.8,4.3h0.1c-0.1-0.5-0.1-1.1-0.2-1.7c-0.1-0.6-0.1-1.2-0.2-1.9
				C96,96.3,96,95.7,95.9,95c0-0.6-0.1-1.2-0.1-1.8v-5.5h4.8v19h-5.2l-4.2-8.5L89.5,94h-0.1c0.1,1.1,0.3,2.3,0.4,3.6
				c0.2,1.3,0.2,2.5,0.2,3.7v5.5H85.2z"/>
			<path class="st3" d="M112.9,107.1c-1.3,0-2.5-0.2-3.6-0.7c-1.1-0.4-2-1.1-2.8-1.9c-0.8-0.8-1.4-1.9-1.8-3.1
				c-0.4-1.2-0.6-2.6-0.6-4.2c0-1.6,0.2-3,0.6-4.2c0.4-1.2,1-2.2,1.8-3.1c0.8-0.8,1.7-1.5,2.8-1.9c1.1-0.4,2.3-0.6,3.6-0.6
				c1.3,0,2.5,0.2,3.6,0.6s2,1.1,2.8,1.9c0.8,0.8,1.4,1.9,1.8,3.1s0.6,2.6,0.6,4.2c0,1.6-0.2,3-0.6,4.2c-0.4,1.2-1,2.3-1.8,3.1
				c-0.8,0.8-1.7,1.5-2.8,1.9S114.2,107.1,112.9,107.1z M112.9,102.8c1.2,0,2.1-0.5,2.7-1.5c0.7-1,1-2.4,1-4.1c0-1.7-0.3-3.1-1-4
				s-1.6-1.4-2.7-1.4s-2.1,0.5-2.7,1.4s-1,2.3-1,4c0,1.7,0.3,3.1,1,4.1C110.9,102.3,111.8,102.8,112.9,102.8z"/>
		</g>
		<g>
			<path class="st3" d="M81.6,116.3v-5.7h1.7c0.4,0,0.8,0.1,1.2,0.2s0.7,0.3,0.9,0.5s0.5,0.5,0.6,0.9s0.2,0.8,0.2,1.3
				s-0.1,0.9-0.2,1.3s-0.3,0.7-0.6,0.9s-0.6,0.4-0.9,0.5s-0.7,0.2-1.1,0.2H81.6z M83.1,115.1L83.1,115.1c0.3,0,0.5,0,0.7-0.1
				s0.3-0.1,0.5-0.3s0.2-0.3,0.3-0.5c0.1-0.2,0.1-0.5,0.1-0.8s0-0.6-0.1-0.8s-0.2-0.4-0.3-0.5s-0.3-0.2-0.5-0.2s-0.4-0.1-0.6-0.1
				h-0.1V115.1z"/>
			<path class="st3" d="M89.6,116.4c-0.4,0-0.8-0.1-1.1-0.2s-0.6-0.3-0.8-0.6s-0.4-0.6-0.5-0.9s-0.2-0.8-0.2-1.3s0.1-0.9,0.2-1.3
				c0.1-0.4,0.3-0.7,0.5-0.9s0.5-0.4,0.8-0.6s0.7-0.2,1.1-0.2c0.4,0,0.8,0.1,1.1,0.2s0.6,0.3,0.8,0.6s0.4,0.6,0.5,0.9
				s0.2,0.8,0.2,1.2s-0.1,0.9-0.2,1.3s-0.3,0.7-0.5,0.9s-0.5,0.4-0.8,0.6S90,116.4,89.6,116.4z M89.6,115.1c0.3,0,0.6-0.2,0.8-0.5
				s0.3-0.7,0.3-1.2s-0.1-0.9-0.3-1.2s-0.5-0.4-0.8-0.4s-0.6,0.1-0.8,0.4s-0.3,0.7-0.3,1.2s0.1,0.9,0.3,1.2S89.3,115.1,89.6,115.1z"
				/>
			<path class="st3" d="M93.7,116.3l-1-5.7h1.5l0.3,2.5c0,0.3,0.1,0.6,0.1,0.9c0,0.3,0.1,0.6,0.1,0.9h0c0.1-0.3,0.1-0.6,0.2-0.9
				c0.1-0.3,0.1-0.6,0.2-0.9l0.5-2.5h1.3l0.5,2.5c0.1,0.3,0.1,0.6,0.2,0.9s0.1,0.6,0.2,0.9h0c0-0.3,0.1-0.6,0.1-0.9
				c0-0.3,0.1-0.6,0.1-0.9l0.3-2.5h1.4l-0.9,5.7h-1.9l-0.4-2.3c0-0.2-0.1-0.4-0.1-0.7s-0.1-0.4-0.1-0.7h0c0,0.2-0.1,0.4-0.1,0.7
				s-0.1,0.5-0.1,0.7l-0.4,2.3H93.7z"/>
			<path class="st3" d="M100.5,116.3v-5.7h1.5l1.3,2.5l0.5,1.3h0c0-0.2,0-0.3-0.1-0.5c0-0.2,0-0.4-0.1-0.6s0-0.4,0-0.6s0-0.4,0-0.5
				v-1.7h1.4v5.7h-1.5l-1.3-2.6l-0.5-1.3h0c0,0.3,0.1,0.7,0.1,1.1c0,0.4,0.1,0.8,0.1,1.1v1.7H100.5z"/>
			<path class="st3" d="M107.5,116.3v-4.4H106v-1.3h4.5v1.3H109v4.4H107.5z"/>
			<path class="st3" d="M111.4,116.3v-5.7h1.5v5.7H111.4z"/>
			<path class="st3" d="M114.2,116.3v-5.7h1.6l0.9,2.3c0.1,0.2,0.1,0.3,0.1,0.5s0.1,0.3,0.1,0.5h0c0.1-0.2,0.1-0.3,0.1-0.5
				s0.1-0.3,0.1-0.5l0.8-2.3h1.6v5.7h-1.4v-1.7c0-0.1,0-0.3,0-0.5c0-0.2,0-0.4,0-0.5s0-0.4,0.1-0.5s0-0.3,0.1-0.5h0l-0.5,1.4
				l-0.7,1.9h-0.8l-0.7-1.9l-0.5-1.4h0c0,0.1,0,0.3,0.1,0.5s0,0.4,0.1,0.5s0,0.4,0,0.5s0,0.3,0,0.5v1.7H114.2z"/>
			<path class="st3" d="M121,116.3v-5.7h3.7v1.3h-2.2v0.9h1.9v1.3h-1.9v1h2.3v1.3H121z"/>
		</g>
		<line class="st15" x1="121.6" y1="120.7" x2="119.8" y2="119"/>
		<line class="st15" x1="119.8" y1="85.9" x2="121.6" y2="84.1"/>
		<line class="st15" x1="85" y1="120.7" x2="86.7" y2="119"/>
		<line class="st15" x1="102.6" y1="127.9" x2="102.6" y2="125.4"/>
		<line class="st15" x1="102.6" y1="78.2" x2="102.6" y2="75.7"/>
	</g>
</g>
</svg>
