<?xml version="1.0" encoding="utf-8"?>
<!-- Generator: Adobe Illustrator 21.0.2, SVG Export Plug-In . SVG Version: 6.00 Build 0)  -->
<svg version="1.1" id="Isolation_Mode" xmlns="http://www.w3.org/2000/svg" xmlns:xlink="http://www.w3.org/1999/xlink" x="0px"
	 y="0px" viewBox="0 0 200 200" style="enable-background:new 0 0 200 200;" xml:space="preserve">
<style type="text/css">
	.st0{opacity:0.2;fill:#8FD2FF;enable-background:new    ;}
	.st1{fill:#6EF0F5;}
	.st2{fill:#B8E2FF;}
	.st3{fill:none;stroke:#2C3E50;stroke-width:2;stroke-miterlimit:10;}
</style>
<g>
	<path class="st0" d="M200,100c0,55.2-44.8,100-100,100S0,155.2,0,100S44.8,0,100,0S200,44.8,200,100z"/>
	<g>
		<g>
			<circle class="st1" cx="117" cy="75" r="38.1"/>
			<circle class="st2" cx="68.9" cy="131.1" r="16"/>
		</g>
		<g>
			<g>
				<g>
					<path class="st3" d="M70.9,95V85c0-1,0.4-2.1,1.2-2.8c0.8-0.8,1.8-1.2,2.8-1.2h4"/>
					<path class="st3" d="M111,81h4c1,0,2.1,0.4,2.8,1.2C118.6,83,119,84,119,85v10"/>
				</g>
				<path class="st3" d="M145.1,117v42.1c0,1-0.4,2.1-1.2,2.8c-0.8,0.8-1.8,1.2-2.8,1.2H48.9c-1,0-2.1-0.4-2.8-1.2
					c-0.8-0.8-1.2-1.8-1.2-2.8V117"/>
				<path class="st3" d="M66.9,119v12c0,1,0.4,2.1,1.2,2.8c0.8,0.8,1.8,1.2,2.8,1.2l0,0c1,0,2.1-0.4,2.8-1.2
					c0.8-0.8,1.2-1.8,1.2-2.8v-12"/>
				<path class="st3" d="M115,119v12c0,1,0.4,2.1,1.2,2.8c0.8,0.8,1.8,1.2,2.8,1.2l0,0c1,0,2.1-0.4,2.8-1.2c0.8-0.8,1.2-1.8,1.2-2.8
					v-12"/>
				<g>
					<line class="st3" x1="85" y1="121" x2="89" y2="121"/>
					<line class="st3" x1="93" y1="121" x2="97" y2="121"/>
					<line class="st3" x1="101" y1="121" x2="105" y2="121"/>
				</g>
				<line class="st3" x1="109" y1="129.1" x2="81" y2="129.1"/>
				<line class="st3" x1="139.1" y1="155.1" x2="50.9" y2="155.1"/>
				<path class="st3" d="M129.1,129.1h4c3.1,0,6.2-1.2,8.5-3.5s3.5-5.4,3.5-8.5V99c0-1-0.4-2.1-1.2-2.8c-0.8-0.8-1.8-1.2-2.8-1.2
					H48.9c-1,0-2.1,0.4-2.8,1.2C45.3,97,44.9,98,44.9,99v18c0,3.1,1.2,6.2,3.5,8.5s5.4,3.5,8.5,3.5h4"/>
			</g>
			<g>
				<g>
					<path class="st3" d="M103,83v2c0,1,0.4,2.1,1.2,2.8C105,88.6,106,89,107,89s2.1-0.4,2.8-1.2C110.6,87,111,86,111,85V48.9"/>
					<path class="st3" d="M95,83v2c0,1,0.4,2.1,1.2,2.8C96.9,88.6,98,89,99,89s2.1-0.4,2.8-1.2C102.6,87,103,86,103,85v-2"/>
					<path class="st3" d="M87,83v2c0,1,0.4,2.1,1.2,2.8C88.9,88.6,90,89,91,89s2.1-0.4,2.8-1.2C94.6,87,95,86,95,85v-2"/>
					<path class="st3" d="M79,68.9v16c0,1,0.4,2.1,1.2,2.8c0.8,0.8,1.8,1.2,2.8,1.2s2.1-0.4,2.8-1.2C86.6,87,87,86,87,85v-2"/>
				</g>
				<g>
					<path class="st3" d="M75,60.9c-2.7,2.2-4,5.1-4,8v6"/>
					<path class="st3" d="M79,48.9v4c0,2.9-1.3,5.8-4,8"/>
				</g>
				<polyline class="st3" points="70.9,36.9 70.9,46.9 73,48.9 117,48.9 119,46.9 119,36.9 				"/>
				<line class="st3" x1="77" y1="38.9" x2="81" y2="38.9"/>
			</g>
		</g>
	</g>
</g>
</svg>
