<?xml version="1.0" encoding="utf-8"?>
<!-- Generator: Adobe Illustrator 21.0.2, SVG Export Plug-In . SVG Version: 6.00 Build 0)  -->
<svg version="1.1" id="Isolation_Mode" xmlns="http://www.w3.org/2000/svg" xmlns:xlink="http://www.w3.org/1999/xlink" x="0px"
	 y="0px" viewBox="0 0 200 200" style="enable-background:new 0 0 200 200;" xml:space="preserve">
<style type="text/css">
	.st0{opacity:0.1;fill:#3498DB;enable-background:new    ;}
	.st1{opacity:0.2;fill:#3498DB;enable-background:new    ;}
	.st2{opacity:0.2;fill:#FFFFFF;enable-background:new    ;}
	.st3{opacity:0.4;}
	.st4{fill:#FFFFFF;}
	.st5{fill:#4DFFEC;}
	.st6{fill:#FFD94F;}
	.st7{fill:#FFA432;}
	.st8{opacity:0.6;fill:#18AFFE;enable-background:new    ;}
	.st9{fill:#858585;}
	.st10{fill:none;stroke:#FFFFFF;stroke-miterlimit:10;}
	.st11{fill:#58DBB9;}
	.st12{fill:#074263;}
	.st13{fill:#18AFFE;}
	.st14{opacity:0.1;}
	.st15{fill:none;stroke:#FFFFFF;stroke-miterlimit:10;stroke-dasharray:2.4853,3.3137;}
</style>
<g>
	<g>
		<circle class="st0" cx="103.3" cy="101.8" r="91.7"/>
		<path class="st1" d="M103.3,169.4c-37.3,0-67.6-30.3-67.6-67.6S66,34.2,103.3,34.2s67.6,30.3,67.6,67.6
			C171,139.1,140.6,169.4,103.3,169.4z"/>
		<path class="st2" d="M103.4,183.6L103.4,183.6c-1.4,0-2.7,0-4-0.1l0.1-2.6c1.3,0.1,2.6,0.1,3.8,0.1h0.1V183.6z M107.3,183.5
			l-0.1-2.6c1.3-0.1,2.6-0.2,3.8-0.3l0.2,2.6C110,183.4,108.7,183.5,107.3,183.5z M95.4,183.3c-1.3-0.1-2.6-0.3-3.9-0.5l0.4-2.6
			c1.3,0.2,2.5,0.3,3.8,0.5L95.4,183.3z M115.2,182.8l-0.4-2.6c1.3-0.2,2.5-0.4,3.8-0.6l0.5,2.6
			C117.8,182.4,116.5,182.6,115.2,182.8z M87.6,182.1c-1.3-0.2-2.6-0.5-3.9-0.8l0.6-2.5c1.2,0.3,2.5,0.6,3.7,0.8L87.6,182.1z
			 M123,181.3l-0.6-2.5c1.2-0.3,2.5-0.6,3.7-1l0.7,2.5C125.5,180.6,124.3,181,123,181.3z M79.9,180.3c-1.3-0.4-2.5-0.8-3.8-1.2
			l0.9-2.5c1.2,0.4,2.4,0.8,3.6,1.2L79.9,180.3z M130.6,179l-0.9-2.5c1.2-0.4,2.4-0.9,3.6-1.4l1,2.4
			C133.1,178.1,131.8,178.6,130.6,179z M72.4,177.6c-1.2-0.5-2.4-1-3.6-1.6l1.1-2.4c1.2,0.5,2.3,1.1,3.5,1.5L72.4,177.6z M137.9,176
			l-1.1-2.4c1.2-0.5,2.3-1.1,3.4-1.7l1.2,2.3C140.3,174.9,139.1,175.5,137.9,176z M65.2,174.3c-1.2-0.6-2.3-1.3-3.5-1.9l1.3-2.2
			c1.1,0.6,2.2,1.3,3.3,1.9L65.2,174.3z M144.9,172.3l-1.3-2.2c1.1-0.6,2.2-1.3,3.2-2l1.4,2.2C147.2,171,146,171.7,144.9,172.3z
			 M58.4,170.3c-1.1-0.7-2.2-1.5-3.3-2.3l1.5-2.1c1,0.8,2.1,1.5,3.1,2.2L58.4,170.3z M151.5,168l-1.5-2.1c1-0.7,2-1.5,3-2.3l1.6,2
			C153.6,166.4,152.6,167.2,151.5,168z M52,165.6c-1-0.8-2-1.7-3-2.6l1.7-2c1,0.8,1.9,1.7,2.9,2.5L52,165.6z M157.7,163l-1.7-1.9
			c0.9-0.8,1.9-1.7,2.8-2.6l1.8,1.9C159.6,161.2,158.6,162.1,157.7,163z M46.1,160.4c-0.2-0.2-0.5-0.5-0.7-0.7
			c-0.7-0.7-1.4-1.4-2.1-2.1l1.9-1.8c0.6,0.7,1.3,1.4,2,2.1c0.2,0.2,0.5,0.5,0.7,0.7L46.1,160.4z M163.3,157.5l-1.9-1.8
			c0.9-0.9,1.7-1.9,2.5-2.9l2,1.7C165.1,155.5,164.2,156.5,163.3,157.5z M40.7,154.6c-0.8-1-1.7-2-2.5-3.1l2.1-1.6
			c0.8,1,1.6,2,2.4,3L40.7,154.6z M168.4,151.4l-2.1-1.6c0.8-1,1.5-2.1,2.3-3.1l2.1,1.5C170,149.3,169.2,150.4,168.4,151.4z
			 M35.9,148.3c-0.7-1.1-1.5-2.2-2.2-3.3l2.2-1.4c0.7,1.1,1.4,2.2,2.1,3.2L35.9,148.3z M172.9,144.9l-2.2-1.4
			c0.7-1.1,1.3-2.2,1.9-3.3l2.3,1.3C174.3,142.7,173.6,143.8,172.9,144.9z M31.7,141.6c-0.6-1.1-1.3-2.3-1.8-3.5l2.3-1.2
			c0.6,1.1,1.2,2.3,1.8,3.4L31.7,141.6z M176.8,138l-2.3-1.2c0.6-1.1,1.1-2.3,1.6-3.5l2.4,1C177.9,135.6,177.4,136.8,176.8,138z
			 M28.2,134.5c-0.5-1.2-1-2.4-1.5-3.7l2.4-0.9c0.5,1.2,0.9,2.4,1.4,3.5L28.2,134.5z M179.9,130.8l-2.4-0.9c0.4-1.2,0.9-2.4,1.3-3.6
			l2.5,0.8C180.8,128.3,180.4,129.5,179.9,130.8z M25.4,127.1c-0.4-1.2-0.8-2.5-1.1-3.8l2.5-0.7c0.3,1.2,0.7,2.5,1.1,3.7L25.4,127.1
			z M182.4,123.2l-2.5-0.7c0.3-1.2,0.6-2.5,0.9-3.7l2.5,0.6C183,120.7,182.7,122,182.4,123.2z M23.3,119.5c-0.3-1.3-0.5-2.6-0.8-3.9
			l2.6-0.4c0.2,1.3,0.5,2.5,0.7,3.8L23.3,119.5z M184.1,115.5l-2.6-0.4c0.2-1.3,0.4-2.5,0.5-3.8l2.6,0.3
			C184.5,112.9,184.3,114.2,184.1,115.5z M22,111.6c-0.2-1.3-0.3-2.6-0.4-3.9l2.6-0.2c0.1,1.3,0.2,2.6,0.4,3.8L22,111.6z M185,107.6
			l-2.6-0.2c0.1-1.3,0.1-2.6,0.2-3.8l2.6,0.1C185.1,105,185.1,106.3,185,107.6z M21.4,103.8c0-0.7,0-1.3,0-2s0-1.3,0-2l2.6,0.1
			c0,0.6,0,1.3,0,1.9s0,1.3,0,1.9L21.4,103.8z M182.6,99.8c0-1.3-0.1-2.6-0.2-3.8l2.6-0.2c0.1,1.3,0.2,2.6,0.2,4H182.6z M24.2,96
			l-2.6-0.2c0.1-1.3,0.2-2.6,0.4-3.9l2.6,0.3C24.4,93.5,24.3,94.8,24.2,96z M182,92.1c-0.2-1.3-0.3-2.5-0.5-3.8l2.6-0.4
			c0.2,1.3,0.4,2.6,0.6,3.9L182,92.1z M25.1,88.4L22.6,88c0.2-1.3,0.5-2.6,0.8-3.9l2.5,0.6C25.6,85.9,25.3,87.2,25.1,88.4z
			 M180.7,84.6c-0.3-1.2-0.6-2.5-0.9-3.7l2.5-0.7c0.3,1.3,0.7,2.6,0.9,3.8L180.7,84.6z M26.8,80.9l-2.5-0.7c0.3-1.3,0.7-2.5,1.1-3.8
			l2.5,0.8C27.5,78.5,27.1,79.7,26.8,80.9z M178.7,77.2c-0.4-1.2-0.8-2.4-1.3-3.6l2.4-0.9c0.5,1.2,0.9,2.5,1.3,3.7L178.7,77.2z
			 M29.1,73.6l-2.4-0.9c0.5-1.2,1-2.5,1.5-3.7l2.4,1C30.1,71.3,29.6,72.5,29.1,73.6z M176,70c-0.5-1.2-1.1-2.3-1.6-3.5l2.3-1.2
			c0.6,1.2,1.1,2.4,1.7,3.6L176,70z M32.2,66.6l-2.3-1.2c0.6-1.2,1.2-2.4,1.8-3.5l2.3,1.3C33.4,64.3,32.8,65.5,32.2,66.6z
			 M172.6,63.2c-0.6-1.1-1.3-2.2-1.9-3.3l2.2-1.4c0.7,1.1,1.4,2.3,2,3.4L172.6,63.2z M35.9,59.9l-2.2-1.4c0.7-1.1,1.4-2.2,2.2-3.3
			l2.1,1.5C37.3,57.8,36.6,58.9,35.9,59.9z M168.5,56.7c-0.7-1-1.5-2.1-2.3-3.1l2.1-1.6c0.8,1,1.6,2.1,2.3,3.2L168.5,56.7z
			 M40.3,53.6L38.2,52c0.8-1,1.6-2.1,2.5-3.1l2,1.7C41.9,51.6,41.1,52.6,40.3,53.6z M163.9,50.6c-0.8-1-1.7-1.9-2.5-2.9l1.9-1.8
			c0.9,1,1.8,2,2.6,3L163.9,50.6z M45.2,47.8L43.3,46c0.7-0.7,1.4-1.5,2.1-2.2c0.2-0.2,0.5-0.5,0.7-0.7l1.8,1.9
			c-0.2,0.2-0.4,0.4-0.7,0.7C46.6,46.4,45.9,47.1,45.2,47.8z M158.7,45c-0.9-0.9-1.9-1.8-2.8-2.6l1.7-2c1,0.9,2,1.8,2.9,2.7
			L158.7,45z M50.7,42.4L49,40.5c1-0.9,2-1.7,3-2.6l1.6,2C52.7,40.7,51.7,41.6,50.7,42.4z M152.9,39.9c-1-0.8-2-1.6-3-2.3l1.5-2.1
			c1.1,0.8,2.1,1.6,3.1,2.4L152.9,39.9z M56.7,37.6l-1.5-2.1c1.1-0.8,2.2-1.5,3.3-2.3l1.4,2.2C58.8,36.1,57.7,36.9,56.7,37.6z
			 M146.7,35.4c-1.1-0.7-2.2-1.4-3.3-2l1.3-2.2c1.1,0.7,2.3,1.4,3.4,2.1L146.7,35.4z M63.1,33.4l-1.3-2.2c1.1-0.7,2.3-1.3,3.5-1.9
			l1.2,2.3C65.3,32.1,64.2,32.8,63.1,33.4z M140.1,31.5c-1.1-0.6-2.3-1.2-3.4-1.7l1.1-2.4c1.2,0.6,2.4,1.1,3.5,1.8L140.1,31.5z
			 M69.9,29.8l-1.1-2.4c1.2-0.6,2.4-1.1,3.6-1.6l1,2.4C72.2,28.8,71,29.3,69.9,29.8z M133.2,28.3c-1.2-0.5-2.4-0.9-3.6-1.4l0.9-2.5
			c1.2,0.4,2.5,0.9,3.7,1.4L133.2,28.3z M76.9,26.9L76,24.4c1.2-0.4,2.5-0.8,3.8-1.2l0.7,2.5C79.4,26.1,78.1,26.5,76.9,26.9z
			 M126,25.7c-1.2-0.4-2.5-0.7-3.7-1l0.6-2.5c1.3,0.3,2.6,0.7,3.8,1L126,25.7z M84.3,24.8l-0.6-2.5c1.3-0.3,2.6-0.6,3.9-0.8l0.5,2.6
			C86.8,24.2,85.5,24.5,84.3,24.8z M118.5,23.9c-1.2-0.2-2.5-0.5-3.8-0.6l0.4-2.6c1.3,0.2,2.6,0.4,3.9,0.7L118.5,23.9z M91.8,23.3
			l-0.4-2.6c1.3-0.2,2.6-0.3,3.9-0.5l0.2,2.6C94.3,23,93.1,23.1,91.8,23.3z M110.9,22.8c-1.3-0.1-2.6-0.2-3.8-0.3l0.1-2.6
			c1.3,0.1,2.6,0.2,3.9,0.3L110.9,22.8z M99.4,22.6L99.3,20c1.3-0.1,2.6-0.1,4-0.1v2.6C102,22.5,100.7,22.5,99.4,22.6z"/>
	</g>
	<g class="st3">
		<g>
			<path class="st4" d="M66.1,26.4c-4.9,0-8.8-3.9-8.8-8.8s3.9-8.8,8.8-8.8v1.3c-4.1,0-7.5,3.4-7.5,7.5s3.4,7.5,7.5,7.5V26.4z"/>
			<path class="st4" d="M66.8,10.1c-0.2,0-0.5,0-0.7,0V8.8c0.3,0,0.6,0,0.9,0L66.8,10.1z"/>
			<path class="st4" d="M68.6,26l-0.4-1.2c0.5-0.1,0.9-0.3,1.4-0.6l0.6,1.1C69.7,25.6,69.2,25.8,68.6,26z M71.7,24.4l-0.8-1
				c0.4-0.3,0.7-0.7,1-1l1,0.8C72.5,23.6,72.1,24,71.7,24.4z M73.8,21.7l-1.2-0.6c0.2-0.4,0.4-0.9,0.6-1.4l1.2,0.4
				C74.3,20.7,74.1,21.2,73.8,21.7z M74.8,18.4l-1.3-0.1c0-0.2,0-0.5,0-0.7s0-0.5,0-0.7l1.3-0.1c0,0.3,0,0.6,0,0.9
				C74.9,17.9,74.9,18.1,74.8,18.4z M73.2,15.4c-0.1-0.5-0.3-0.9-0.6-1.4l1.1-0.6c0.3,0.5,0.5,1,0.7,1.6L73.2,15.4z M71.9,12.8
				c-0.3-0.4-0.7-0.7-1-1l0.8-1c0.4,0.4,0.9,0.8,1.2,1.2L71.9,12.8z M69.6,11c-0.4-0.2-0.9-0.4-1.4-0.6l0.4-1.2
				c0.6,0.2,1.1,0.4,1.6,0.7L69.6,11z"/>
			<path class="st4" d="M66.1,26.4v-1.3c0.3,0,0.5,0,0.7,0l0.1,1.3C66.7,26.4,66.4,26.4,66.1,26.4z"/>
		</g>
		<g>
			<path class="st4" d="M187.3,147.4c-4.9,0-8.8-3.9-8.8-8.8c0-4.9,3.9-8.8,8.8-8.8v1.3c-4.1,0-7.5,3.4-7.5,7.5s3.4,7.5,7.5,7.5
				V147.4z"/>
			<path class="st4" d="M188,131.2c-0.2,0-0.5,0-0.7,0v-1.3c0.3,0,0.6,0,0.9,0L188,131.2z"/>
			<path class="st4" d="M189.9,147.1l-0.4-1.2c0.5-0.1,0.9-0.3,1.4-0.6l0.6,1.1C190.9,146.7,190.4,146.9,189.9,147.1z M192.9,145.4
				l-0.8-1c0.4-0.3,0.7-0.7,1-1l1,0.8C193.7,144.6,193.3,145.1,192.9,145.4z M195.1,142.8l-1.2-0.6c0.2-0.4,0.4-0.9,0.6-1.4l1.2,0.4
				C195.5,141.7,195.3,142.3,195.1,142.8z M196,139.5l-1.3-0.1c0-0.2,0-0.5,0-0.7s0-0.5,0-0.7l1.3-0.1c0,0.3,0,0.6,0,0.9
				C196.1,138.9,196.1,139.2,196,139.5z M194.5,136.5c-0.1-0.5-0.3-0.9-0.6-1.4l1.1-0.6c0.3,0.5,0.5,1,0.7,1.6L194.5,136.5z
				 M193.1,133.9c-0.3-0.4-0.7-0.7-1-1l0.8-1c0.4,0.4,0.9,0.8,1.2,1.2L193.1,133.9z M190.8,132c-0.4-0.2-0.9-0.4-1.4-0.6l0.4-1.2
				c0.6,0.2,1.1,0.4,1.6,0.7L190.8,132z"/>
			<path class="st4" d="M187.3,147.4v-1.3c0.3,0,0.5,0,0.7,0l0.1,1.3C187.9,147.4,187.6,147.4,187.3,147.4z"/>
		</g>
		<path class="st4" d="M27.6,102.1c-3,0-5.4-2.4-5.4-5.4s2.4-5.4,5.4-5.4s5.4,2.4,5.4,5.4C33,99.6,30.6,102.1,27.6,102.1z
			 M27.6,92.6c-2.3,0-4.1,1.8-4.1,4.1c0,2.3,1.8,4.1,4.1,4.1s4.1-1.8,4.1-4.1S29.9,92.6,27.6,92.6z"/>
		<rect x="26.9" y="94.1" class="st4" width="1.3" height="5.1"/>
		<rect x="25" y="96" class="st4" width="5.1" height="1.3"/>
		<rect x="155.8" y="46.6" class="st4" width="1.3" height="5.8"/>
		<rect x="153.5" y="48.8" class="st4" width="5.8" height="1.3"/>
		<rect x="151.4" y="150.8" class="st4" width="1.8" height="1.3"/>
		<rect x="144.8" y="150.8" class="st4" width="1.8" height="1.3"/>
		<rect x="158" y="150.8" class="st4" width="1.8" height="1.3"/>
		<rect x="90.1" y="24" class="st4" width="1.3" height="5.8"/>
		<rect x="87.9" y="26.2" class="st4" width="5.8" height="1.3"/>
		<path class="st4" d="M102.2,14.5c-2.2,0-4-1.8-4-4s1.8-4,4-4s4,1.8,4,4S104.4,14.5,102.2,14.5z M102.2,7.9c-1.5,0-2.7,1.2-2.7,2.7
			s1.2,2.7,2.7,2.7s2.7-1.2,2.7-2.7C104.9,9.1,103.7,7.9,102.2,7.9z"/>
		<path class="st4" d="M115.8,173c-2.2,0-4-1.8-4-4s1.8-4,4-4s4,1.8,4,4C119.7,171.3,117.9,173,115.8,173z M115.8,166.4
			c-1.5,0-2.7,1.2-2.7,2.7s1.2,2.7,2.7,2.7s2.7-1.2,2.7-2.7C118.4,167.6,117.2,166.4,115.8,166.4z"/>
		<path class="st4" d="M47.5,73.6c-2.2,0-4-1.8-4-4s1.8-4,4-4s4,1.8,4,4C51.5,71.8,49.7,73.6,47.5,73.6z M47.5,67
			c-1.5,0-2.7,1.2-2.7,2.7s1.2,2.7,2.7,2.7s2.7-1.2,2.7-2.7C50.1,68.1,49,67,47.5,67z"/>
		
			<rect x="111.8" y="173.3" transform="matrix(0.8661 -0.4999 0.4999 0.8661 -72.0027 79.6571)" class="st4" width="1.8" height="1.8"/>
		
			<rect x="117.8" y="173.3" transform="matrix(0.4999 -0.8661 0.8661 0.4999 -91.5038 189.9235)" class="st4" width="1.8" height="1.8"/>
		<rect x="114.9" y="168.1" class="st4" width="1.8" height="1.8"/>
		<path class="st4" d="M188.8,73.4l-0.6-0.9c-0.3-0.5-0.7-1-1.1-1.4c-0.4-0.4-0.9-0.8-1.4-1.1l-0.9-0.6l0.9-0.6
			c0.5-0.3,1-0.7,1.4-1.1s0.8-0.9,1.1-1.4l0.6-0.9l0.6,0.9c0.3,0.5,0.7,1,1.1,1.4c0.4,0.4,0.9,0.8,1.4,1.1l0.9,0.6l-0.9,0.6
			c-0.5,0.3-1,0.7-1.4,1.1s-0.8,0.9-1.1,1.4L188.8,73.4z M187.3,69.5c0.3,0.2,0.6,0.5,0.8,0.7c0.3,0.3,0.5,0.5,0.7,0.8
			c0.2-0.3,0.5-0.6,0.7-0.8c0.3-0.3,0.5-0.5,0.8-0.7c-0.3-0.2-0.6-0.5-0.8-0.7c-0.3-0.3-0.5-0.5-0.7-0.8c-0.2,0.3-0.5,0.6-0.7,0.8
			C187.8,69,187.6,69.3,187.3,69.5z"/>
		<path class="st4" d="M16.1,62.7c0.5,0.8,1.2,1.5,2,2c-0.8,0.5-1.5,1.2-2,2c-0.5-0.8-1.2-1.5-2-2C14.9,64.2,15.6,63.6,16.1,62.7
			 M16.1,59.2c-0.9,3.4-2.1,4.6-5.5,5.5c3.4,0.9,4.6,2.1,5.5,5.5c0.9-3.4,2.1-4.6,5.5-5.5C18.2,63.8,17,62.6,16.1,59.2L16.1,59.2z"
			/>
		<rect x="46.6" y="69" class="st4" width="1.8" height="1.3"/>
		<rect x="40" y="69" class="st4" width="1.8" height="1.3"/>
		<path class="st4" d="M5.9,121.5c-1.1,0-1.9-0.9-1.9-1.9c0-1.1,0.9-1.9,1.9-1.9c1.1,0,1.9,0.9,1.9,1.9
			C7.8,120.7,6.9,121.5,5.9,121.5z M5.9,119c-0.4,0-0.6,0.3-0.6,0.6c0,0.4,0.3,0.6,0.6,0.6c0.4,0,0.6-0.3,0.6-0.6S6.2,119,5.9,119z"
			/>
		<path class="st4" d="M12.9,121.5c-1.1,0-1.9-0.9-1.9-1.9c0-1.1,0.9-1.9,1.9-1.9c1.1,0,1.9,0.9,1.9,1.9
			C14.9,120.7,14,121.5,12.9,121.5z M12.9,119c-0.4,0-0.6,0.3-0.6,0.6c0,0.4,0.3,0.6,0.6,0.6c0.4,0,0.6-0.3,0.6-0.6
			S13.3,119,12.9,119z"/>
		<path class="st4" d="M20,121.5c-1.1,0-1.9-0.9-1.9-1.9c0-1.1,0.9-1.9,1.9-1.9c1.1,0,1.9,0.9,1.9,1.9C21.9,120.7,21,121.5,20,121.5
			z M20,119c-0.4,0-0.6,0.3-0.6,0.6c0,0.4,0.3,0.6,0.6,0.6c0.4,0,0.6-0.3,0.6-0.6S20.3,119,20,119z"/>
		<path class="st4" d="M51.4,148.4c-1,0-1.9-0.6-2.7-1.1s-1.5-1-2-0.8c-0.4,0.2-0.8,0.4-1.1,0.7c-0.4,0.3-0.9,0.7-1.4,0.9
			c-0.9,0.4-2.1,0.1-3.2-0.7l0,0c-0.7-0.5-1.5-1.1-2.1-1c-0.5,0.1-1,0.4-1.5,0.8c-0.3,0.2-0.6,0.4-0.9,0.6c-1,0.6-2.3,0.6-3.3,0
			c-0.3-0.2-0.6-0.4-0.8-0.6c-0.5-0.4-1-0.8-1.5-0.8c-0.6-0.1-1.4,0.4-2.1,0.9c-1,0.6-2.1,1.4-3.2,0.9c-0.5-0.2-1-0.6-1.4-0.9
			c-0.4-0.3-0.8-0.6-1.2-0.7c-0.7-0.3-1.5,0.2-1.9,0.6l0,0c-0.9,0.7-1.9,1.4-3,1.3c-0.8-0.1-1.4-0.6-2.1-1.1
			c-0.3-0.2-0.5-0.4-0.8-0.5l0.7-1.1c0.3,0.2,0.6,0.4,0.9,0.6c0.5,0.4,1,0.8,1.5,0.8c0.6,0.1,1.3-0.5,2.1-1l0,0
			c1.1-0.8,2.3-1.1,3.2-0.7c0.5,0.2,1,0.6,1.4,0.9c0.4,0.3,0.8,0.6,1.1,0.7c0.5,0.2,1.2-0.3,2-0.8c0.9-0.6,1.9-1.2,3-1.1
			c0.8,0.1,1.5,0.6,2.1,1.1c0.2,0.2,0.5,0.4,0.8,0.5c0.6,0.4,1.3,0.4,1.9,0c0.3-0.2,0.5-0.4,0.8-0.5c0.6-0.5,1.3-1,2.1-1.1
			c1.1-0.2,2.1,0.6,3,1.3l0,0c0.4,0.3,1.3,0.8,1.9,0.6c0.4-0.2,0.8-0.4,1.2-0.7s0.9-0.7,1.4-0.9c1.2-0.5,2.3,0.2,3.2,0.9
			c0.7,0.5,1.5,1,2.1,0.9c0.5-0.1,1-0.4,1.5-0.8c0.3-0.2,0.5-0.4,0.8-0.6c1-0.6,2.3-0.6,3.3,0l-0.7,1.1c-0.6-0.4-1.3-0.4-1.9,0
			c-0.3,0.2-0.5,0.3-0.8,0.5c-0.6,0.5-1.3,1-2.1,1.1C51.6,148.4,51.5,148.4,51.4,148.4z"/>
		<path class="st4" d="M151.9,33.2c-0.1,0-0.2,0-0.3,0c-0.7-0.1-1.3-0.5-1.8-0.9l0.8-1.1l0,0c0.4,0.3,0.9,0.6,1.2,0.7
			c0.5,0.1,1.1-0.4,1.7-0.9l0,0c1-0.8,2-1,2.9-0.6c0.5,0.2,0.9,0.5,1.3,0.8c0.3,0.3,0.7,0.5,1,0.6c0.4,0.2,1-0.2,1.7-0.7
			c0.8-0.5,1.7-1.1,2.6-0.9c0.7,0.1,1.3,0.5,1.8,1c0.2,0.2,0.4,0.3,0.6,0.5c0.5,0.3,1.1,0.3,1.6,0c0.2-0.1,0.4-0.3,0.7-0.5
			c0.6-0.4,1.1-0.8,1.8-0.9c1-0.1,1.9,0.5,2.7,1.1l0,0c0.3,0.2,1,0.7,1.6,0.5c0.3-0.1,0.6-0.4,1-0.6c0.4-0.3,0.8-0.6,1.3-0.8
			c1-0.4,2,0.2,2.9,0.8l-0.7,1.1c-0.7-0.4-1.3-0.8-1.7-0.7c-0.3,0.1-0.6,0.4-1,0.6c-0.4,0.3-0.8,0.6-1.3,0.8
			c-0.8,0.3-1.9,0.1-2.9-0.6l0,0c-0.6-0.5-1.3-0.9-1.7-0.9c-0.4,0.1-0.8,0.4-1.2,0.7c-0.2,0.2-0.5,0.4-0.7,0.5c-0.9,0.6-2,0.6-2.9,0
			c-0.3-0.2-0.5-0.3-0.7-0.5c-0.4-0.3-0.9-0.6-1.3-0.7c-0.5-0.1-1.1,0.3-1.8,0.7c-0.9,0.6-1.8,1.2-2.9,0.8c-0.5-0.2-0.9-0.5-1.3-0.8
			c-0.3-0.3-0.7-0.5-1-0.6c-0.6-0.2-1.3,0.3-1.6,0.5l0,0C153.6,32.6,152.8,33.2,151.9,33.2z"/>
		<rect x="158.1" y="165.5" class="st4" width="16.8" height="1.3"/>
		<polygon class="st4" points="168.8,170 168.2,168.8 173.4,166.2 168.2,163.5 168.8,162.4 176.3,166.2 		"/>
		<polygon class="st5" points="135.7,30.7 129,30.7 129,24 126.1,24 126.1,30.7 119.3,30.7 119.3,33.6 126.1,33.6 126.1,40.3 
			129,40.3 129,33.6 135.7,33.6 		"/>
		<polygon class="st5" points="80.5,162.6 76.9,162.6 76.9,158.9 75.3,158.9 75.3,162.6 71.6,162.6 71.6,164.2 75.3,164.2 
			75.3,167.9 76.9,167.9 76.9,164.2 80.5,164.2 		"/>
	</g>
	
		<image style="overflow:visible;opacity:0.4;enable-background:new    ;" width="122" height="17" xlink:href="A30A161F.png"  transform="matrix(1.3417 0 0 0.9984 19.6781 70.5836)">
	</image>
	<g>
		<g>
			<g>
				<g>
					<g>
						<path class="st6" d="M51.6,104.2c0,0.3-0.3,0.6-0.6,0.6h-4.6c-0.3,0-0.6-0.3-0.6-0.6v-2.9c0-0.3,0.3-0.6,0.6-0.6H51
							c0.3,0,0.6,0.3,0.6,0.6V104.2z"/>
						<path class="st4" d="M51,105h-4.6c-0.5,0-0.9-0.4-0.9-0.9v-2.9c0-0.5,0.4-0.9,0.9-0.9H51c0.5,0,0.9,0.4,0.9,0.9v2.9
							C51.9,104.6,51.5,105,51,105z M46.4,101c-0.2,0-0.3,0.1-0.3,0.3v2.9c0,0.2,0.1,0.3,0.3,0.3H51c0.2,0,0.3-0.1,0.3-0.3v-2.9
							c0-0.2-0.1-0.3-0.3-0.3H46.4z"/>
					</g>
					<g>
						<path class="st7" d="M60.1,100.8h-5.5c-0.4,0-0.7,0.3-0.7,0.7v1.7h-6.6c-0.8,0-1.5,0.7-1.5,1.5v7.4c0,0.8,0.7,1.5,1.5,1.5
							h11.9c0.8,0,1.5-0.7,1.5-1.5v-7.2v-0.2v-3.2C60.8,101.1,60.5,100.8,60.1,100.8z"/>
						<path class="st4" d="M59.3,113.9H47.4c-1,0-1.8-0.8-1.8-1.8v-7.4c0-1,0.8-1.8,1.8-1.8h6.3v-1.4c0-0.5,0.4-1,1-1h5.5
							c0.5,0,1,0.4,1,1v10.6C61.1,113.1,60.3,113.9,59.3,113.9z M47.4,103.4c-0.7,0-1.2,0.6-1.2,1.2v7.4c0,0.7,0.6,1.2,1.2,1.2h11.9
							c0.7,0,1.2-0.6,1.2-1.2v-10.6c0-0.2-0.2-0.4-0.4-0.4h-5.5c-0.2,0-0.4,0.2-0.4,0.4v2H47.4z"/>
					</g>
				</g>
				<g>
					<rect x="45.9" y="110.2" class="st4" width="15" height="0.6"/>
				</g>
				<g>
					<rect x="45.9" y="111.3" class="st4" width="15" height="0.6"/>
				</g>
			</g>
			<g>
				<rect x="37.5" y="119.7" class="st4" width="0.6" height="9"/>
			</g>
			<g>
				<polygon class="st4" points="52.9,113.8 53.5,113.8 53.5,119.8 37.8,119.8 37.8,119.2 52.9,119.2 				"/>
			</g>
			<g>
				<g>
					<g>
						<path class="st6" d="M35.5,129.5c0,0.4-0.4,0.8-0.8,0.8h-6.2c-0.4,0-0.8-0.4-0.8-0.8v-3.9c0-0.4,0.4-0.8,0.8-0.8h6.2
							c0.4,0,0.8,0.4,0.8,0.8V129.5z"/>
						<path class="st4" d="M34.7,130.6h-6.2c-0.6,0-1.1-0.5-1.1-1.1v-3.9c0-0.6,0.5-1.1,1.1-1.1h6.2c0.6,0,1.1,0.5,1.1,1.1v3.9
							C35.8,130.1,35.3,130.6,34.7,130.6z M28.5,125.1c-0.3,0-0.5,0.2-0.5,0.5v3.9c0,0.3,0.2,0.5,0.5,0.5h6.2c0.3,0,0.5-0.2,0.5-0.5
							v-3.9c0-0.3-0.2-0.5-0.5-0.5H28.5z"/>
					</g>
					<g>
						<path class="st7" d="M47,124.9h-7.4c-0.5,0-0.9,0.4-0.9,0.9v2.3h-8.9c-1.1,0-2,0.9-2,2v10.1c0,1.1,0.9,2.1,2,2.1H46
							c1.1,0,2-0.9,2-2.1v-9.8v-0.3v-4.3C48,125.3,47.5,124.9,47,124.9z"/>
						<path class="st4" d="M45.9,142.6H29.7c-1.3,0-2.3-1-2.3-2.3v-10.1c0-1.3,1-2.3,2.3-2.3h8.6v-2c0-0.7,0.5-1.2,1.2-1.2H47
							c0.7,0,1.2,0.5,1.2,1.2v14.4C48.2,141.5,47.2,142.6,45.9,142.6z M29.7,128.4c-1,0-1.8,0.8-1.8,1.8v10.1c0,1,0.8,1.8,1.8,1.8
							h16.2c1,0,1.8-0.8,1.8-1.8v-14.4c0-0.4-0.3-0.7-0.7-0.7h-7.4c-0.4,0-0.7,0.3-0.7,0.7v2.6h-9.2V128.4z"/>
					</g>
				</g>
				<g>
					<rect x="27.7" y="137.8" class="st4" width="20.3" height="0.6"/>
				</g>
				<g>
					<rect x="27.7" y="139.3" class="st4" width="20.3" height="0.6"/>
				</g>
			</g>
			<g>
				<circle class="st6" cx="37.8" cy="119.5" r="1.4"/>
				<path class="st4" d="M37.8,117.8c0.9,0,1.7,0.8,1.7,1.7c0,0.9-0.8,1.7-1.7,1.7s-1.7-0.8-1.7-1.7
					C36.1,118.6,36.9,117.8,37.8,117.8z M37.8,120.6c0.6,0,1.2-0.5,1.2-1.2c0-0.6-0.5-1.2-1.2-1.2c-0.6,0-1.2,0.5-1.2,1.2
					S37.2,120.6,37.8,120.6z"/>
			</g>
			<g>
				<circle class="st6" cx="53.2" cy="119.5" r="1.1"/>
				<path class="st4" d="M53.2,118.1c0.8,0,1.4,0.6,1.4,1.4s-0.6,1.4-1.4,1.4c-0.8,0-1.4-0.6-1.4-1.4S52.4,118.1,53.2,118.1z
					 M53.2,120.3c0.4,0,0.8-0.4,0.8-0.8s-0.4-0.8-0.8-0.8c-0.4,0-0.8,0.4-0.8,0.8S52.7,120.3,53.2,120.3z"/>
			</g>
		</g>
		<g>
			<g>
				<g>
					<path class="st8" d="M126,54.9c0-6.8-5.3-12.3-11.9-12.3H114c0-5.3-4.2-9.7-9.4-9.7c-1.4,0-2.8,0.3-4,0.9
						c-2.5-5.4-7.8-9.2-14-9.2c-8,0-14.7,6.4-15.5,14.5c-7.4,0-13.5,6.3-13.5,14c0,7.5,5.6,13.6,12.7,14l0,0h44.4l0,0
						C121.1,66.7,126,61.4,126,54.9z"/>
					<path class="st4" d="M114.9,67.8H70v-0.1c-7.2-0.7-12.7-7-12.7-14.5c0-7.8,6-14.3,13.5-14.6c1-8.3,7.8-14.5,16-14.5
						c6,0,11.5,3.5,14.3,9c1.2-0.5,2.4-0.7,3.7-0.7c5.3,0,9.6,4.3,9.9,9.7c6.7,0.2,12,5.9,12,12.9c0,6.6-4.8,12.1-11.1,12.8l0,0
						L114.9,67.8z M71.1,66.7h43.3h0.5c5.9-0.4,10.6-5.6,10.6-11.7c0-6.5-5.1-11.8-11.3-11.8h-0.6l-0.1-0.5c0-5-4-9.1-8.8-9.1
						c-1.3,0-2.5,0.3-3.7,0.9l-0.5,0.2l-0.2-0.5c-2.5-5.4-7.8-8.9-13.5-8.9c-7.7,0-14.1,6-14.9,14v0.5h-0.5
						c-7.1,0-12.9,6.1-12.9,13.5c0,7.1,5.4,13,12.2,13.5L71.1,66.7z"/>
				</g>
				<g>
					<path class="st4" d="M97.3,32.9c-0.2,0-0.3-0.1-0.4-0.2c-2.4-3.3-6.1-5.2-10.1-5.2c-0.3,0-0.6-0.2-0.6-0.6
						c0-0.3,0.3-0.6,0.6-0.6c4.4,0,8.4,2.1,11,5.7c0.2,0.2,0.1,0.6-0.1,0.8C97.5,32.9,97.4,32.9,97.3,32.9z"/>
				</g>
				<g>
					<path class="st4" d="M123.3,52.8c-0.3,0-0.5-0.2-0.5-0.4c-0.9-3.3-3.4-6-6.5-6.9c-0.3-0.1-0.5-0.4-0.4-0.7
						c0.1-0.3,0.4-0.5,0.7-0.4c3.6,1,6.4,3.9,7.3,7.6c0.1,0.3-0.1,0.6-0.4,0.7C123.4,52.8,123.3,52.8,123.3,52.8z"/>
				</g>
				<g>
					<path class="st4" d="M111.2,40.3c-0.2,0-0.4-0.1-0.5-0.3c-1.1-2.6-3.5-4.3-6.2-4.3c-0.3,0-0.6-0.2-0.6-0.6
						c0-0.3,0.2-0.6,0.6-0.6c3.1,0,6,2,7.2,5c0.1,0.3,0,0.6-0.3,0.7C111.3,40.3,111.2,40.3,111.2,40.3z"/>
				</g>
			</g>
			<g>
				<path class="st4" d="M91.9,105.7c-0.3,0-0.6-0.2-0.6-0.6v-38c0-0.3,0.2-0.6,0.6-0.6c0.3,0,0.6,0.2,0.6,0.6v38
					C92.5,105.4,92.2,105.7,91.9,105.7z"/>
			</g>
			<g>
				<circle class="st6" cx="91.9" cy="107.7" r="2.3"/>
				<path class="st4" d="M91.9,110.6c-1.6,0-2.9-1.3-2.9-2.9s1.3-2.9,2.9-2.9c1.6,0,2.9,1.3,2.9,2.9
					C94.8,109.3,93.5,110.6,91.9,110.6z M91.9,106c-1,0-1.8,0.8-1.8,1.8s0.8,1.8,1.8,1.8s1.8-0.8,1.8-1.8
					C93.7,106.7,92.9,106,91.9,106z"/>
			</g>
			<g>
				<circle class="st6" cx="106.4" cy="97.5" r="2.8"/>
				<path class="st4" d="M106.4,100.9c-1.8,0-3.4-1.5-3.4-3.3s1.5-3.4,3.4-3.4c1.8,0,3.4,1.5,3.4,3.4
					C109.8,99.4,108.3,100.9,106.4,100.9z M106.4,95.3c-1.2,0-2.2,1-2.2,2.2s1,2.2,2.2,2.2s2.2-1,2.2-2.2
					C108.7,96.3,107.7,95.3,106.4,95.3z"/>
			</g>
			<g>
				<circle class="st9" cx="119" cy="80" r="2.8"/>
				<path class="st4" d="M119,83.4c-1.8,0-3.4-1.5-3.4-3.4c0-1.8,1.5-3.4,3.4-3.4c1.8,0,3.3,1.5,3.3,3.4S120.8,83.4,119,83.4z
					 M119,77.8c-1.2,0-2.2,1-2.2,2.2s1,2.2,2.2,2.2s2.2-1,2.2-2.2S120.2,77.8,119,77.8z"/>
			</g>
			<g>
				<path class="st4" d="M101.4,90.6c-1.5,0-2.7-1.2-2.7-2.7s1.2-2.8,2.7-2.8s2.8,1.2,2.8,2.8C104.2,89.4,102.9,90.6,101.4,90.6z
					 M101.4,86.2c-0.9,0-1.6,0.7-1.6,1.6s0.7,1.6,1.6,1.6c0.9,0,1.6-0.7,1.6-1.6C103.1,86.9,102.3,86.2,101.4,86.2z"/>
			</g>
			<g>
				<circle class="st6" cx="79.5" cy="75" r="2"/>
				<path class="st4" d="M79.5,77.6c-1.4,0-2.5-1.1-2.5-2.5s1.1-2.5,2.5-2.5c1.4,0,2.5,1.1,2.5,2.5C82,76.4,80.9,77.6,79.5,77.6z
					 M79.5,73.6c-0.8,0-1.4,0.6-1.4,1.4s0.6,1.4,1.4,1.4s1.4-0.6,1.4-1.4C80.9,74.3,80.3,73.6,79.5,73.6z"/>
			</g>
			<g>
				<circle class="st9" cx="78.6" cy="94" r="2.8"/>
				<path class="st4" d="M78.6,97.3c-1.8,0-3.3-1.5-3.3-3.4c0-1.8,1.5-3.3,3.3-3.3s3.4,1.5,3.4,3.3C82,95.8,80.5,97.3,78.6,97.3z
					 M78.6,91.7c-1.2,0-2.2,1-2.2,2.2s1,2.2,2.2,2.2s2.2-1,2.2-2.2S79.8,91.7,78.6,91.7z"/>
			</g>
			<g>
				<path class="st4" d="M65.6,86.2c-1.4,0-2.6-1.2-2.6-2.6s1.2-2.6,2.6-2.6c1.4,0,2.6,1.2,2.6,2.6S67,86.2,65.6,86.2z M65.6,82.1
					c-0.8,0-1.5,0.7-1.5,1.5s0.7,1.5,1.5,1.5s1.5-0.7,1.5-1.5C67.1,82.8,66.4,82.1,65.6,82.1z"/>
			</g>
			<g>
				<path class="st4" d="M101.5,86c-0.3,0-0.6-0.3-0.6-0.6V75.2H81.4c-0.3,0-0.6-0.2-0.6-0.6c0-0.3,0.2-0.6,0.6-0.6h20.7v11.3
					C102.1,85.7,101.8,86,101.5,86z"/>
			</g>
			<g>
				<path class="st4" d="M91.9,84.1H67.8c-0.3,0-0.6-0.3-0.6-0.6c0-0.3,0.2-0.6,0.6-0.6h24.1c0.3,0,0.6,0.2,0.6,0.6
					S92.2,84.1,91.9,84.1z"/>
			</g>
			<g>
				<path class="st4" d="M103.6,98.1H91.9c-0.3,0-0.6-0.2-0.6-0.6c0-0.3,0.2-0.6,0.6-0.6h11.7c0.3,0,0.6,0.2,0.6,0.6
					C104.2,97.8,103.9,98.1,103.6,98.1z"/>
			</g>
			<g>
				<path class="st4" d="M78.6,91.7c-0.3,0-0.6-0.3-0.6-0.6v-7.6c0-0.3,0.2-0.6,0.6-0.6c0.3,0,0.6,0.2,0.6,0.6v7.6
					C79.2,91.5,78.9,91.7,78.6,91.7z"/>
			</g>
			<g>
				<path class="st4" d="M115.9,80.6h-14.2c-0.3,0-0.6-0.3-0.6-0.6c0-0.3,0.2-0.6,0.6-0.6h14.2c0.3,0,0.6,0.2,0.6,0.6
					C116.4,80.3,116.2,80.6,115.9,80.6z"/>
			</g>
		</g>
		<g>
			<line class="st10" x1="144.6" y1="134" x2="146.4" y2="134"/>
			<line class="st10" x1="141" y1="134" x2="142.8" y2="134"/>
			<line class="st10" x1="148.3" y1="134" x2="150.1" y2="134"/>
			<line class="st10" x1="152" y1="134" x2="153.8" y2="134"/>
		</g>
		<g>
			<line class="st10" x1="123.5" y1="80" x2="125.3" y2="80"/>
			<line class="st10" x1="127.1" y1="80" x2="129" y2="80"/>
			<line class="st10" x1="130.8" y1="80" x2="132.6" y2="80"/>
		</g>
		<g>
			<line class="st10" x1="63.9" y1="119.5" x2="65.7" y2="119.5"/>
			<line class="st10" x1="67.7" y1="119.5" x2="69.5" y2="119.5"/>
			<line class="st10" x1="56.5" y1="119.5" x2="58.3" y2="119.5"/>
			<line class="st10" x1="60.2" y1="119.5" x2="62" y2="119.5"/>
			<line class="st10" x1="78.7" y1="103.3" x2="78.7" y2="101.5"/>
			<line class="st10" x1="78.7" y1="99.6" x2="78.7" y2="97.7"/>
			<line class="st10" x1="78.7" y1="110.7" x2="78.7" y2="108.9"/>
			<line class="st10" x1="78.7" y1="107" x2="78.7" y2="105.2"/>
			<line class="st10" x1="71.4" y1="119.5" x2="73.2" y2="119.5"/>
			<line class="st10" x1="78.7" y1="114.1" x2="78.7" y2="112.3"/>
			<path class="st10" d="M78.7,115.6v2.1c0,0.5-0.2,0.9-0.5,1.3c-0.4,0.4-0.8,0.5-1.3,0.5h-1.8"/>
		</g>
		<g>
			<line class="st10" x1="172.2" y1="104.8" x2="172.2" y2="103"/>
			<line class="st10" x1="172.2" y1="107.9" x2="172.2" y2="106.1"/>
			<line class="st10" x1="172.2" y1="110.9" x2="172.2" y2="109.1"/>
			<line class="st10" x1="172.2" y1="113.9" x2="172.2" y2="112.1"/>
			<line class="st10" x1="164.8" y1="97.5" x2="163" y2="97.5"/>
			<line class="st10" x1="161.2" y1="97.5" x2="159.4" y2="97.5"/>
			<line class="st10" x1="157.5" y1="97.5" x2="155.7" y2="97.5"/>
			<line class="st10" x1="153.8" y1="97.5" x2="152" y2="97.5"/>
			<line class="st10" x1="150.1" y1="97.5" x2="148.3" y2="97.5"/>
			<line class="st10" x1="146.4" y1="97.5" x2="144.6" y2="97.5"/>
			<line class="st10" x1="142.7" y1="97.5" x2="140.9" y2="97.5"/>
			<line class="st10" x1="139.1" y1="97.5" x2="137.3" y2="97.5"/>
			<line class="st10" x1="135.4" y1="97.5" x2="133.6" y2="97.5"/>
			<line class="st10" x1="131.7" y1="97.5" x2="129.9" y2="97.5"/>
			<line class="st10" x1="128.1" y1="97.5" x2="126.2" y2="97.5"/>
			<line class="st10" x1="124.4" y1="97.5" x2="122.6" y2="97.5"/>
			<line class="st10" x1="120.7" y1="97.5" x2="118.9" y2="97.5"/>
			<line class="st10" x1="117" y1="97.5" x2="115.2" y2="97.5"/>
			<line class="st10" x1="113.3" y1="97.5" x2="111.5" y2="97.5"/>
			<path class="st10" d="M167,97.5h3.4c0.5,0,0.9,0.2,1.3,0.5c0.4,0.4,0.5,0.8,0.5,1.3v1.8"/>
		</g>
		<g>
			<g>
				<g>
					<path class="st8" d="M173.4,80.3c0-3.7-2.9-6.7-6.4-6.7c0,0,0,0-0.1,0c0-2.9-2.3-5.2-5-5.2c-0.8,0-1.5,0.2-2.1,0.5
						c-1.4-2.9-4.2-5-7.6-5c-4.3,0-7.9,3.4-8.3,7.8c-4,0-7.3,3.4-7.3,7.6c0,4,3,7.3,6.9,7.6l0,0h24l0,0
						C170.8,86.7,173.4,83.8,173.4,80.3z"/>
					<path class="st4" d="M167.5,87.2h-24.2l0,0c-3.9-0.4-6.9-3.7-6.9-7.8c0-4.2,3.2-7.7,7.3-7.8c0.5-4.5,4.2-7.8,8.6-7.8
						c3.2,0,6.2,1.9,7.7,4.9c0.6-0.3,1.3-0.4,2-0.4c2.8,0,5.2,2.3,5.3,5.2c3.6,0.1,6.5,3.2,6.5,6.9c0,3.5-2.6,6.5-6,6.9l0,0
						L167.5,87.2z M143.7,86.7h23.5h0.2c3.2-0.2,5.7-3,5.7-6.4c0-3.5-2.8-6.4-6.2-6.4h-0.2l-0.1-0.2c0-2.7-2.2-5-4.8-5
						c-0.7,0-1.4,0.2-2,0.5l-0.2,0.1l-0.1-0.2c-1.3-2.9-4.2-4.8-7.3-4.8c-4.2,0-7.7,3.3-8.1,7.6v0.2h-0.2c-3.9,0-7,3.3-7,7.3
						c0,3.9,2.9,7.1,6.6,7.3H143.7z"/>
				</g>
				<g>
					<path class="st4" d="M157.9,68.3c-0.1,0-0.2,0-0.2-0.1c-1.3-1.8-3.3-2.8-5.5-2.8c-0.1,0-0.2-0.1-0.2-0.2s0.1-0.2,0.2-0.2
						c2.3,0,4.5,1.1,5.9,3C158.2,68.1,158.2,68.3,157.9,68.3C158,68.3,158,68.3,157.9,68.3z"/>
				</g>
				<g>
					<path class="st4" d="M172,79.1c-0.1,0-0.2-0.1-0.2-0.2c-0.5-1.8-1.8-3.3-3.6-3.7c-0.1,0-0.2-0.2-0.2-0.3c0-0.1,0.2-0.2,0.3-0.2
						c1.9,0.5,3.4,2.1,3.9,4.1C172.2,78.9,172.1,79,172,79.1L172,79.1z"/>
				</g>
				<g>
					<path class="st4" d="M165.4,72.3c-0.1,0-0.2-0.1-0.2-0.2c-0.6-1.4-1.9-2.4-3.4-2.4c-0.1,0-0.2-0.1-0.2-0.2s0.1-0.2,0.2-0.2
						c1.7,0,3.2,1,3.8,2.7C165.7,72.1,165.6,72.3,165.4,72.3C165.5,72.3,165.4,72.3,165.4,72.3z"/>
				</g>
			</g>
			<g>
				<g>
					<path class="st7" d="M152.6,74.4c0,0.8-0.7,1.5-1.5,1.5h-15.8c-0.8,0-1.5-0.7-1.5-1.5v-3.8c0-0.8,0.7-1.5,1.5-1.5h15.8
						c0.8,0,1.5,0.7,1.5,1.5V74.4z"/>
					<path class="st4" d="M151.1,76.2h-15.8c-0.9,0-1.7-0.8-1.7-1.7v-3.8c0-0.9,0.8-1.7,1.7-1.7h15.8c1,0,1.7,0.8,1.7,1.7v3.8
						C152.9,75.4,152.1,76.2,151.1,76.2z M135.3,69.4c-0.7,0-1.2,0.6-1.2,1.2v3.8c0,0.7,0.6,1.2,1.2,1.2h15.8c0.7,0,1.2-0.6,1.2-1.2
						v-3.8c0-0.7-0.6-1.2-1.2-1.2H135.3z"/>
				</g>
				<g>
					<path class="st9" d="M145.2,73c0,0.2-0.2,0.4-0.4,0.4H141c-0.2,0-0.4-0.2-0.4-0.4v-0.9c0-0.2,0.2-0.4,0.4-0.4h3.8
						c0.2,0,0.4,0.2,0.4,0.4V73z"/>
					<path class="st4" d="M144.8,73.6H141c-0.3,0-0.6-0.3-0.6-0.6v-0.9c0-0.3,0.3-0.6,0.6-0.6h3.8c0.3,0,0.6,0.3,0.6,0.6V73
						C145.4,73.4,145.2,73.6,144.8,73.6z M141,72c-0.1,0-0.1,0.1-0.1,0.1V73c0,0.1,0.1,0.1,0.1,0.1h3.8c0.1,0,0.1-0.1,0.1-0.1v-0.9
						c0-0.1-0.1-0.1-0.1-0.1H141z"/>
				</g>
				<g>
					<path class="st6" d="M152.6,81.2c0,0.8-0.7,1.5-1.5,1.5h-15.8c-0.8,0-1.5-0.7-1.5-1.5v-3.8c0-0.8,0.7-1.5,1.5-1.5h15.8
						c0.8,0,1.5,0.7,1.5,1.5V81.2z"/>
					<path class="st4" d="M151.1,82.9h-15.8c-0.9,0-1.7-0.8-1.7-1.7v-3.8c0-1,0.8-1.7,1.7-1.7h15.8c1,0,1.7,0.8,1.7,1.7v3.8
						C152.9,82.2,152.1,82.9,151.1,82.9z M135.3,76.2c-0.7,0-1.2,0.6-1.2,1.2v3.8c0,0.7,0.6,1.2,1.2,1.2h15.8c0.7,0,1.2-0.6,1.2-1.2
						v-3.8c0-0.7-0.6-1.2-1.2-1.2H135.3z"/>
				</g>
				<g>
					<path class="st7" d="M152.6,88c0,0.8-0.7,1.5-1.5,1.5h-15.8c-0.8,0-1.5-0.7-1.5-1.5v-3.8c0-0.8,0.7-1.5,1.5-1.5h15.8
						c0.8,0,1.5,0.7,1.5,1.5V88z"/>
					<path class="st4" d="M151.1,89.7h-15.8c-0.9,0-1.7-0.8-1.7-1.7v-3.8c0-0.9,0.8-1.7,1.7-1.7h15.8c1,0,1.7,0.8,1.7,1.7V88
						C152.9,88.9,152.1,89.7,151.1,89.7z M135.3,82.9c-0.7,0-1.2,0.6-1.2,1.2V88c0,0.7,0.6,1.2,1.2,1.2h15.8c0.7,0,1.2-0.6,1.2-1.2
						v-3.8c0-0.7-0.6-1.2-1.2-1.2L135.3,82.9L135.3,82.9z"/>
				</g>
				<g>
					<circle class="st11" cx="136.2" cy="72.5" r="0.8"/>
					<path class="st4" d="M136.2,73.5c-0.6,0-1-0.5-1-1s0.5-1,1-1s1,0.5,1,1S136.8,73.5,136.2,73.5z M136.2,72
						c-0.3,0-0.5,0.2-0.5,0.5s0.2,0.5,0.5,0.5s0.5-0.2,0.5-0.5S136.5,72,136.2,72z"/>
				</g>
				<g>
					<circle class="st11" cx="138.8" cy="72.6" r="0.8"/>
					<path class="st4" d="M138.8,73.6c-0.6,0-1-0.5-1-1c0-0.6,0.5-1,1-1c0.6,0,1,0.5,1,1S139.3,73.6,138.8,73.6z M138.8,72
						c-0.3,0-0.5,0.2-0.5,0.5s0.2,0.5,0.5,0.5s0.5-0.2,0.5-0.5C139.3,72.3,139.1,72,138.8,72z"/>
				</g>
				<g>
					<path class="st9" d="M145.2,79.8c0,0.2-0.2,0.4-0.4,0.4H141c-0.2,0-0.4-0.2-0.4-0.4v-0.9c0-0.2,0.2-0.4,0.4-0.4h3.8
						c0.2,0,0.4,0.2,0.4,0.4V79.8z"/>
					<path class="st4" d="M144.8,80.4H141c-0.3,0-0.6-0.3-0.6-0.6v-0.9c0-0.3,0.3-0.6,0.6-0.6h3.8c0.3,0,0.6,0.3,0.6,0.6v0.9
						C145.4,80.1,145.2,80.4,144.8,80.4z M141,78.7c-0.1,0-0.1,0.1-0.1,0.1v0.9c0,0.1,0.1,0.1,0.1,0.1h3.8c0.1,0,0.1-0.1,0.1-0.1
						v-0.9c0-0.1-0.1-0.1-0.1-0.1H141z"/>
				</g>
				<g>
					<circle class="st11" cx="136.2" cy="79.3" r="0.8"/>
					<path class="st4" d="M136.2,80.3c-0.6,0-1-0.5-1-1c0-0.6,0.5-1,1-1s1,0.5,1,1S136.8,80.3,136.2,80.3z M136.2,78.7
						c-0.3,0-0.5,0.2-0.5,0.5s0.2,0.5,0.5,0.5s0.5-0.2,0.5-0.5C136.7,79,136.5,78.7,136.2,78.7z"/>
				</g>
				<g>
					<circle class="st11" cx="138.8" cy="79.3" r="0.8"/>
					<path class="st4" d="M138.8,80.3c-0.6,0-1-0.5-1-1c0-0.6,0.5-1,1-1c0.6,0,1,0.5,1,1C139.8,79.9,139.3,80.3,138.8,80.3z
						 M138.8,78.8c-0.3,0-0.5,0.2-0.5,0.5s0.2,0.5,0.5,0.5s0.5-0.2,0.5-0.5S139.1,78.8,138.8,78.8z"/>
				</g>
				<g>
					<path class="st9" d="M145.2,86.5c0,0.2-0.2,0.4-0.4,0.4H141c-0.2,0-0.4-0.2-0.4-0.4v-0.9c0-0.2,0.2-0.4,0.4-0.4h3.8
						c0.2,0,0.4,0.2,0.4,0.4V86.5z"/>
					<path class="st4" d="M144.8,87.1H141c-0.3,0-0.6-0.3-0.6-0.6v-0.9c0-0.3,0.3-0.6,0.6-0.6h3.8c0.3,0,0.6,0.3,0.6,0.6v0.9
						C145.4,86.9,145.2,87.1,144.8,87.1z M141,85.5c-0.1,0-0.1,0.1-0.1,0.1v0.9c0,0.1,0.1,0.1,0.1,0.1h3.8c0.1,0,0.1,0,0.1-0.1v-0.9
						c0-0.1-0.1-0.1-0.1-0.1H141z"/>
				</g>
				<g>
					<circle class="st11" cx="136.2" cy="86" r="0.8"/>
					<path class="st4" d="M136.2,87c-0.6,0-1-0.5-1-1c0-0.6,0.5-1,1-1s1,0.5,1,1C137.2,86.6,136.8,87,136.2,87z M136.2,85.5
						c-0.3,0-0.5,0.2-0.5,0.5s0.2,0.5,0.5,0.5s0.5-0.2,0.5-0.5S136.5,85.5,136.2,85.5z"/>
				</g>
				<g>
					<circle class="st11" cx="138.8" cy="86.1" r="0.8"/>
					<path class="st4" d="M138.8,87.1c-0.6,0-1-0.5-1-1c0-0.6,0.5-1,1-1c0.6,0,1,0.5,1,1S139.3,87.1,138.8,87.1z M138.8,85.5
						c-0.3,0-0.5,0.2-0.5,0.5s0.2,0.5,0.5,0.5s0.5-0.2,0.5-0.5C139.3,85.8,139.1,85.5,138.8,85.5z"/>
				</g>
			</g>
		</g>
		<g>
			<g>
				<path class="st6" d="M47.7,52.4c-1,0-1.8,0.8-1.8,1.8v19.5c0,1,0.8,1.8,1.8,1.8h4.7c1,0,1.8-0.8,1.8-1.8V54.2
					c0-1-0.8-1.8-1.8-1.8H47.7z"/>
				<path class="st4" d="M52.3,75.8h-4.7c-1.1,0-2.1-0.9-2.1-2.1V54.2c0-1.1,0.9-2.1,2.1-2.1h4.7c1.1,0,2.1,0.9,2.1,2.1v19.5
					C54.4,74.8,53.5,75.8,52.3,75.8z M47.7,52.7c-0.9,0-1.6,0.7-1.6,1.6v19.5c0,0.9,0.7,1.6,1.6,1.6h4.7c0.9,0,1.6-0.7,1.6-1.6V54.2
					c0-0.9-0.7-1.6-1.6-1.6L47.7,52.7L47.7,52.7z"/>
			</g>
			<g>
				<path class="st12" d="M47.2,56.4c0,0.2,0.2,0.4,0.4,0.4h4.7c0.2,0,0.4-0.2,0.4-0.4v-1.1c0-0.2-0.2-0.4-0.4-0.4h-4.7
					c-0.2,0-0.4,0.2-0.4,0.4V56.4z"/>
				<path class="st4" d="M52.3,57.1h-4.7c-0.4,0-0.7-0.3-0.7-0.7v-1.1c0-0.4,0.3-0.7,0.7-0.7h4.7c0.4,0,0.7,0.3,0.7,0.7v1.1
					C53,56.8,52.7,57.1,52.3,57.1z M47.6,55.1c-0.1,0-0.2,0.1-0.2,0.2v1.1c0,0.1,0.1,0.2,0.2,0.2h4.7c0.1,0,0.2-0.1,0.2-0.2v-1.1
					c0-0.1-0.1-0.2-0.2-0.2H47.6z"/>
			</g>
			<g>
				<circle class="st11" cx="50.1" cy="72.6" r="1"/>
				<path class="st4" d="M50.1,73.8c-0.7,0-1.2-0.5-1.2-1.2s0.5-1.2,1.2-1.2s1.2,0.5,1.2,1.2S50.7,73.8,50.1,73.8z M50.1,71.9
					c-0.4,0-0.7,0.3-0.7,0.7c0,0.4,0.3,0.7,0.7,0.7s0.7-0.3,0.7-0.7C50.8,72.2,50.4,71.9,50.1,71.9z"/>
			</g>
			<g>
				<path class="st12" d="M47.2,59.6c0,0.2,0.2,0.4,0.4,0.4h4.7c0.2,0,0.4-0.2,0.4-0.4v-1.1c0-0.2-0.2-0.4-0.4-0.4h-4.7
					c-0.2,0-0.4,0.2-0.4,0.4V59.6z"/>
				<path class="st4" d="M52.3,60.3h-4.7c-0.4,0-0.7-0.3-0.7-0.7v-1.1c0-0.4,0.3-0.7,0.7-0.7h4.7c0.4,0,0.7,0.3,0.7,0.7v1.1
					C53,60,52.7,60.3,52.3,60.3z M47.6,58.3c-0.1,0-0.2,0.1-0.2,0.2v1.1c0,0.1,0.1,0.2,0.2,0.2h4.7c0.1,0,0.2-0.1,0.2-0.2v-1.1
					c0-0.1-0.1-0.2-0.2-0.2H47.6z"/>
			</g>
			<g>
				<polygon class="st4" points="50.2,83.3 49.7,83.3 49.7,75.5 50.3,75.5 				"/>
			</g>
			<g>
				<polygon class="st4" points="39.7,83.4 39.7,82.9 62.4,82.9 62.4,83.4 				"/>
			</g>
			<g>
				<circle class="st11" cx="50" cy="83.3" r="1"/>
				<path class="st4" d="M50,84.5c-0.7,0-1.2-0.5-1.2-1.2s0.5-1.2,1.2-1.2s1.2,0.5,1.2,1.2S50.7,84.5,50,84.5z M50,82.6
					c-0.4,0-0.7,0.3-0.7,0.7c0,0.4,0.3,0.7,0.7,0.7s0.7-0.3,0.7-0.7S50.4,82.6,50,82.6z"/>
			</g>
		</g>
		<g>
			<g>
				<g>
					<g>
						<path class="st6" d="M170.7,118.7c0,0.3-0.3,0.6-0.6,0.6h-4.6c-0.3,0-0.6-0.3-0.6-0.6v-2.9c0-0.3,0.3-0.6,0.6-0.6h4.6
							c0.3,0,0.6,0.3,0.6,0.6V118.7z"/>
						<path class="st4" d="M170.1,119.5h-4.6c-0.5,0-0.9-0.4-0.9-0.9v-2.9c0-0.5,0.4-0.9,0.9-0.9h4.6c0.5,0,0.9,0.4,0.9,0.9v2.9
							C170.9,119.1,170.5,119.5,170.1,119.5z M165.5,115.5c-0.2,0-0.3,0.1-0.3,0.3v2.9c0,0.2,0.1,0.3,0.3,0.3h4.6
							c0.2,0,0.3-0.1,0.3-0.3v-2.9c0-0.2-0.1-0.3-0.3-0.3H165.5z"/>
					</g>
					<g>
						<path class="st7" d="M179.2,115.3h-5.5c-0.4,0-0.7,0.3-0.7,0.7v1.7h-6.6c-0.8,0-1.5,0.7-1.5,1.5v7.4c0,0.8,0.7,1.5,1.5,1.5
							h11.9c0.8,0,1.5-0.7,1.5-1.5v-7.2v-0.2V116C179.9,115.6,179.6,115.3,179.2,115.3z"/>
						<path class="st4" d="M178.4,128.4h-11.9c-1,0-1.8-0.8-1.8-1.8v-7.4c0-1,0.8-1.8,1.8-1.8h6.3V116c0-0.5,0.4-1,1-1h5.5
							c0.5,0,1,0.4,1,1v10.6C180.2,127.6,179.3,128.4,178.4,128.4z M166.4,117.9c-0.7,0-1.2,0.6-1.2,1.2v7.4c0,0.7,0.6,1.2,1.2,1.2
							h11.9c0.7,0,1.2-0.6,1.2-1.2v-10.6c0-0.2-0.2-0.4-0.4-0.4h-5.5c-0.2,0-0.4,0.2-0.4,0.4v2H166.4z"/>
					</g>
				</g>
				<g>
					<rect x="164.9" y="124.7" class="st4" width="15" height="0.6"/>
				</g>
				<g>
					<rect x="164.9" y="125.8" class="st4" width="15" height="0.6"/>
				</g>
			</g>
			<g>
				<polygon class="st4" points="171.9,128.3 172.5,128.3 172.5,134.3 156.8,134.3 156.8,133.7 171.9,133.7 				"/>
			</g>
			<g>
				<circle class="st6" cx="156.8" cy="134" r="1.4"/>
				<path class="st4" d="M156.8,132.3c0.9,0,1.7,0.8,1.7,1.7s-0.8,1.7-1.7,1.7s-1.7-0.8-1.7-1.7S155.9,132.3,156.8,132.3z
					 M156.8,135.1c0.6,0,1.2-0.5,1.2-1.2c0-0.6-0.5-1.2-1.2-1.2c-0.6,0-1.2,0.5-1.2,1.2C155.7,134.6,156.2,135.1,156.8,135.1z"/>
			</g>
			<g>
				<circle class="st6" cx="172.2" cy="134" r="1.1"/>
				<path class="st4" d="M172.2,132.6c0.8,0,1.4,0.6,1.4,1.4s-0.6,1.4-1.4,1.4c-0.8,0-1.4-0.6-1.4-1.4
					C170.9,133.2,171.5,132.6,172.2,132.6z M172.2,134.8c0.4,0,0.8-0.4,0.8-0.8c0-0.4-0.4-0.8-0.8-0.8c-0.4,0-0.8,0.4-0.8,0.8
					C171.4,134.4,171.8,134.8,172.2,134.8z"/>
			</g>
		</g>
	</g>
	<g>
		<path class="st13" d="M104.3,191.5c-13.3-4.5-35.7-18.3-35.7-31.7v-40.4l35.7-10.7l35.7,10.7v40.4
			C140,173.2,117.6,187.1,104.3,191.5z"/>
		<path class="st14" d="M104.3,108.8L104.3,108.8l-35.7,10.7v40.4c0,13.4,22.4,27.2,35.7,31.7c0,0,0,0,0,0V108.8z"/>
		<g>
			<line class="st10" x1="104.3" y1="186.8" x2="104.3" y2="185.3"/>
			<line class="st10" x1="104.3" y1="183.3" x2="104.3" y2="181.8"/>
			<line class="st10" x1="104.3" y1="179.7" x2="104.3" y2="178.2"/>
			<line class="st10" x1="104.3" y1="176.1" x2="104.3" y2="174.7"/>
			<line class="st10" x1="104.3" y1="125.4" x2="104.3" y2="123.9"/>
			<line class="st10" x1="104.3" y1="122" x2="104.3" y2="120.6"/>
		</g>
		<path class="st10" d="M68.6,121.2c0-0.8,0.5-1.4,1.2-1.6l34-10.2c0.3-0.1,0.7-0.1,1,0l34,10.2c0.7,0.2,1.2,0.9,1.2,1.6v37.4
			c0,15-22.9,28.4-35.2,32.2c-0.2,0.1-0.3,0.1-0.5,0.1s-0.3,0-0.5-0.1c-12.3-3.8-35.2-17.2-35.2-32.2"/>
		<path class="st10" d="M104.3,186.4c-11.7-3.9-31.3-16-31.3-27.8v-35.4l31.3-9.4l31.3,9.4v35.4"/>
		<line class="st15" x1="68.6" y1="158.7" x2="68.6" y2="121.2"/>
		<path class="st15" d="M135.6,158.7c0,11.7-19.6,23.9-31.3,27.8"/>
		<path class="st10" d="M84.8,169.4c-4.2-3.8-7.1-8-7.1-12.2V147"/>
		<path class="st10" d="M131.9,148"/>
		<line class="st10" x1="121.7" y1="123.9" x2="131.9" y2="127"/>
		<line class="st15" x1="131.9" y1="127" x2="131.9" y2="148"/>
		<g>
			<path class="st4" d="M96.2,167.9c-0.1,0-0.2,0-0.3-0.1c-1.7-1.3-3.2-3-4.2-4.9c-1-2-1.6-4.2-1.6-6.5v-12.5c0-0.4,0-0.8,0.1-1.2
				c0-0.3,0.3-0.5,0.6-0.5c0.2,0,0.3,0.1,0.4,0.2c0.1,0.1,0.1,0.3,0.1,0.4c0,0.4,0,0.7,0,1.1v12.5c0,4.1,2,8,5.3,10.5
				c0.2,0.2,0.3,0.5,0.1,0.8C96.6,167.8,96.4,167.9,96.2,167.9z"/>
			<path class="st4" d="M99.8,169.8c-0.1,0-0.1,0-0.2,0c-0.5-0.2-1-0.4-1.4-0.6c-0.1-0.1-0.2-0.2-0.3-0.3c0-0.1,0-0.3,0-0.4
				c0.1-0.2,0.3-0.3,0.5-0.3c0.1,0,0.2,0,0.2,0.1c0.4,0.2,0.9,0.4,1.3,0.5c0.1,0,0.3,0.1,0.3,0.3c0.1,0.1,0.1,0.3,0,0.4
				C100.3,169.6,100,169.8,99.8,169.8z"/>
			<path class="st4" d="M104.3,170.5c-0.6,0-1.1,0-1.6-0.1c-0.1,0-0.3-0.1-0.4-0.2c-0.1-0.1-0.1-0.3-0.1-0.4c0-0.3,0.3-0.5,0.6-0.5
				c0.6,0.1,1.1,0.1,1.6,0.1c7.2,0,13-5.8,13-13v-2.6c0-0.3,0.2-0.6,0.6-0.6c0.3,0,0.6,0.2,0.6,0.6v2.6
				C118.4,164.2,112,170.5,104.3,170.5z"/>
			<path class="st4" d="M117.8,151.5c-0.3,0-0.6-0.2-0.6-0.6v-7.1c0-7.2-5.8-13-13-13c-2.8,0-5.5,0.9-7.7,2.5
				c-2.2,1.6-3.8,3.9-4.6,6.5c-0.1,0.2-0.3,0.4-0.5,0.4c-0.1,0-0.1,0-0.2,0s-0.3-0.1-0.3-0.3c-0.1-0.1-0.1-0.3,0-0.4
				c0.9-2.8,2.7-5.2,5-7c2.4-1.8,5.3-2.8,8.4-2.8c7.8,0,14.1,6.3,14.1,14.1v7.1C118.4,151.3,118.1,151.5,117.8,151.5z"/>
			<path class="st4" d="M104.3,167.5c-2.1,0-4.2-0.6-5.9-1.7c-1.7-1.1-3.1-2.6-4-4.5c-0.1-0.3,0-0.6,0.3-0.7c0.1,0,0.2-0.1,0.2-0.1
				c0.2,0,0.4,0.1,0.5,0.3c0.8,1.7,2.1,3,3.6,4c1.6,1,3.4,1.6,5.3,1.6c1.4,0,2.8-0.3,4.1-0.9c0.1,0,0.2,0,0.2,0
				c0.2,0,0.4,0.1,0.5,0.3c0.1,0.1,0.1,0.3,0,0.4c-0.1,0.1-0.2,0.2-0.3,0.3C107.4,167.2,105.9,167.5,104.3,167.5z"/>
			<path class="st4" d="M111.2,164.9c-0.2,0-0.3-0.1-0.4-0.2c-0.2-0.2-0.2-0.6,0-0.8c2.2-1.9,3.4-4.6,3.4-7.5v-12.5
				c0-2.1-0.7-4.2-1.9-5.9c-0.1-0.1-0.1-0.3-0.1-0.4c0-0.1,0.1-0.3,0.2-0.4c0.1-0.1,0.2-0.1,0.3-0.1c0.2,0,0.3,0.1,0.4,0.2
				c1.4,1.9,2.1,4.2,2.1,6.6v12.5c0,3.2-1.4,6.2-3.8,8.3C111.5,164.9,111.4,164.9,111.2,164.9z"/>
			<path class="st4" d="M110.3,135.8c-0.1,0-0.2,0-0.3-0.1c-0.5-0.3-1-0.6-1.5-0.9c-0.3-0.1-0.4-0.5-0.3-0.7s0.3-0.3,0.5-0.3
				c0.1,0,0.2,0,0.2,0.1c0.6,0.3,1.2,0.6,1.7,1c0.3,0.2,0.3,0.5,0.1,0.8C110.6,135.7,110.4,135.8,110.3,135.8z"/>
			<path class="st4" d="M93.7,156.6c-0.3,0-0.6-0.2-0.6-0.6v-12.2c0-6.1,5-11.1,11.1-11.1c0.6,0,1.3,0.1,1.9,0.2
				c0.1,0,0.3,0.1,0.4,0.2c0.1,0.1,0.1,0.3,0.1,0.4c0,0.3-0.3,0.5-0.5,0.5l0,0H106c-0.5-0.1-1.1-0.1-1.7-0.1c-5.5,0-10,4.5-10,10
				v12.2C94.3,156.4,94,156.6,93.7,156.6z"/>
			<path class="st4" d="M111.8,152.6c-0.3,0-0.6-0.2-0.6-0.6v-8.1c0-3.9-3.1-7-7-7c-2.3,0-4.5,1.2-5.8,3.1c-0.1,0.2-0.3,0.2-0.5,0.2
				c-0.1,0-0.2,0-0.3-0.1c-0.3-0.2-0.3-0.5-0.1-0.8c1.5-2.2,4-3.6,6.7-3.6c4.5,0,8.1,3.6,8.1,8.1v8.1
				C112.4,152.3,112.1,152.6,111.8,152.6z"/>
			<path class="st4" d="M96.7,146.2c-0.3,0-0.6-0.2-0.6-0.6v-1.7c0-0.3,0.2-0.6,0.6-0.6c0.3,0,0.6,0.2,0.6,0.6v1.7
				C97.3,146,97,146.2,96.7,146.2z"/>
			<path class="st4" d="M100.6,163.6c-0.1,0-0.2,0-0.3-0.1c-2.6-1.4-4.2-4.2-4.2-7.1v-7.9c0-0.3,0.2-0.6,0.6-0.6
				c0.3,0,0.6,0.2,0.6,0.6v7.9c0,2.5,1.4,4.9,3.6,6.1c0.1,0.1,0.2,0.2,0.3,0.3c0,0.1,0,0.3,0,0.4C101,163.5,100.8,163.6,100.6,163.6
				z"/>
			<path class="st4" d="M104.3,164.5c-0.7,0-1.3-0.1-1.9-0.2c-0.3-0.1-0.5-0.4-0.4-0.7c0.1-0.2,0.3-0.4,0.5-0.4h0.1
				c0.5,0.1,1.1,0.2,1.7,0.2c3.9,0,7-3.1,7-7v-1.3c0-0.3,0.2-0.6,0.6-0.6c0.3,0,0.6,0.2,0.6,0.6v1.3
				C112.4,160.9,108.7,164.5,104.3,164.5L104.3,164.5z"/>
			<path class="st4" d="M99.7,157c-0.3,0-0.6-0.2-0.6-0.6v-12.5c0-1.4,0.5-2.7,1.5-3.7c1-0.9,2.2-1.5,3.6-1.5h0.1
				c2.8,0.1,5,2.4,5,5.2v6.9c0,0.3-0.2,0.6-0.6,0.6c-0.3,0-0.6-0.2-0.6-0.6v-6.9c0-2.2-1.8-4-3.9-4.1l0,0c-1.1,0-2.1,0.4-2.9,1.1
				c-0.8,0.8-1.2,1.8-1.2,2.9v12.5C100.3,156.7,100,157,99.7,157z"/>
			<path class="st4" d="M105.8,160.9c-2,0-3.6-1.6-3.6-3.6v-6.2c0-0.3,0.2-0.6,0.6-0.6c0.3,0,0.6,0.2,0.6,0.6v6.2
				c0,1.4,1.1,2.5,2.5,2.5s2.5-1.1,2.5-2.5v-3.5c0-0.3,0.2-0.6,0.6-0.6c0.3,0,0.6,0.2,0.6,0.6v3.5
				C109.4,159.3,107.8,160.9,105.8,160.9z"/>
			<path class="st4" d="M105.8,157.6c-0.3,0-0.6-0.2-0.6-0.6v-13c0-0.6-0.4-1-1-1.1l0,0c-0.3,0-0.6,0.1-0.7,0.3
				c-0.2,0.2-0.3,0.5-0.3,0.7v4.1c0,0.3-0.2,0.6-0.6,0.6c-0.3,0-0.6-0.2-0.6-0.6v-4.1c0-0.6,0.2-1.1,0.7-1.5
				c0.4-0.4,0.9-0.6,1.5-0.6h0.1c1.1,0.1,2,1,2,2.2v13C106.4,157.3,106.1,157.6,105.8,157.6z"/>
		</g>
	</g>
</g>
</svg>
