<svg width="15" height="16" viewBox="0 0 15 16" fill="none" xmlns="http://www.w3.org/2000/svg">
<path d="M1.321 9.32227L1.82873 10.4546C1.48082 10.8423 1.28839 11.2644 1.28839 11.6927C1.28839 13.2755 3.92706 14.7696 7.26807 14.7696C10.6091 14.7696 13.2477 13.2755 13.2477 11.6927C13.2477 11.2644 13.0542 10.8435 12.7074 10.4558L13.2249 9.33211C13.9262 9.99672 14.335 10.8016 14.335 11.6927C14.335 14.1875 11.132 16.0004 7.26807 16.0004C3.40411 16.0004 0.201172 14.1875 0.201172 11.6927C0.201172 10.7967 0.614313 9.98934 1.321 9.32227Z" fill="#0C86FF"/>
<path d="M1.321 5.63135L1.82873 6.76365C1.48082 7.15257 1.28839 7.57472 1.28839 8.00179C1.28839 9.58455 3.92706 11.0787 7.26807 11.0787C10.6091 11.0787 13.2477 9.58455 13.2477 8.00179C13.2477 7.57349 13.0542 7.15257 12.7074 6.76488L13.2249 5.64119C13.9262 6.3058 14.335 7.11072 14.335 8.00179C14.335 10.4965 11.132 12.3094 7.26807 12.3094C3.40411 12.3094 0.201172 10.4965 0.201172 8.00179C0.201172 7.1058 0.614313 6.29842 1.321 5.63135Z" fill="#0C86FF"/>
<path d="M7.26807 8.61531C3.40411 8.61531 0.201172 6.8024 0.201172 4.30766C0.201172 1.81291 3.40411 0 7.26807 0C11.132 0 14.335 1.81291 14.335 4.30766C14.335 6.8024 11.132 8.61531 7.26807 8.61531ZM7.26807 7.38455C10.6091 7.38455 13.2477 5.89041 13.2477 4.30766C13.2477 2.7249 10.6091 1.23076 7.26807 1.23076C3.92706 1.23076 1.28839 2.7249 1.28839 4.30766C1.28839 5.89041 3.92706 7.38455 7.26807 7.38455Z" fill="#0C86FF"/>
</svg>
