<svg width="16" height="16" viewBox="0 0 16 16" fill="none" xmlns="http://www.w3.org/2000/svg">
<path d="M2.32198 15.8781H13.3557C14.5746 15.8781 15.5625 14.8899 15.5625 13.6714V2.63759C15.5625 1.41905 14.5746 0.43084 13.3557 0.43084H2.32198C1.10309 0.43084 0.115227 1.41905 0.115227 2.63759V13.6714C0.115227 14.8899 1.10482 15.8781 2.32198 15.8781ZM3.7012 6.22357C3.7012 5.61361 4.19462 5.12019 4.80458 5.12019C5.41454 5.12019 5.90795 5.61361 5.90795 6.22357V8.52342L10.0939 4.33748C10.3077 4.1237 10.5904 4.01681 10.8731 4.01681C11.1559 4.01681 11.4379 4.12457 11.6531 4.34007C12.0841 4.77108 12.0841 5.46931 11.6531 5.90031L7.46647 10.0854H9.76977C10.3797 10.0854 10.8731 10.5788 10.8731 11.1888C10.8731 11.7987 10.3797 12.2921 9.76977 12.2921H4.80458C4.19462 12.2921 3.7012 11.7987 3.7012 11.1888V6.22357Z" fill="white"/>
</svg>
