<svg width="16" height="16" viewBox="0 0 16 16" fill="none" xmlns="http://www.w3.org/2000/svg">
<path d="M13.443 0.490906H2.71577C1.53074 0.490906 0.570312 1.45167 0.570312 2.63636V13.3636C0.570312 14.5483 1.53074 15.5091 2.71577 15.5091H13.443C14.6281 15.5091 15.5885 14.5483 15.5885 13.3636V2.63636C15.5885 1.45167 14.6264 0.490906 13.443 0.490906ZM12.1021 9.87727C12.1021 10.4703 11.6224 10.95 11.0294 10.95C10.4364 10.95 9.95668 10.4703 9.95668 9.87727V7.6413L5.88702 11.711C5.67918 11.9188 5.40429 12.0227 5.1294 12.0227C4.85452 12.0227 4.5803 11.918 4.37112 11.7084C3.95209 11.2894 3.95209 10.6106 4.37112 10.1915L8.44145 6.12272H6.20213C5.60911 6.12272 5.1294 5.64301 5.1294 5.05C5.1294 4.45698 5.60911 3.97727 6.20213 3.97727H11.0294C11.6224 3.97727 12.1021 4.45698 12.1021 5.05V9.87727Z" fill="white"/>
</svg>
