<svg width="16" height="17" viewBox="0 0 16 17" fill="none" xmlns="http://www.w3.org/2000/svg">
<path d="M8.08113 10.5199C4.3216 10.5199 1.18292 9.35747 0.407017 7.80588C0.286724 8.03638 0.222237 8.29191 0.21875 8.55189V9.44486C0.21875 11.3558 3.73895 12.9049 8.08113 12.9049C12.4233 12.9049 15.9435 11.3558 15.9435 9.44486V8.55189C15.94 8.29191 15.8755 8.03638 15.7552 7.80588C14.9793 9.35789 11.8407 10.5199 8.08113 10.5199Z" fill="#0C86FF"/>
<path d="M8.07983 13.7422C4.3203 13.7422 1.18162 12.5798 0.405714 11.0284C0.285421 11.2589 0.220934 11.5145 0.217447 11.7744V12.6672C0.217447 14.5781 3.73765 16.1272 8.07983 16.1272C12.422 16.1272 15.9422 14.5781 15.9422 12.6672V11.7744C15.9387 11.5145 15.8742 11.2589 15.7539 11.0284C14.978 12.5802 11.8394 13.7422 8.07983 13.7422ZM8.07983 0.127197C3.66292 0.127197 0.203125 1.84526 0.203125 4.03867V5.79389C0.203125 7.9875 3.66292 9.70557 8.07983 9.70557C12.4967 9.70557 15.9565 7.9875 15.9565 5.79389V4.03867C15.9565 1.84526 12.4967 0.127197 8.07983 0.127197ZM1.24098 4.03867C1.24098 2.34509 4.84504 1.16505 8.07983 1.16505C11.3146 1.16505 14.9187 2.34509 14.9187 4.03867C14.9187 5.73224 11.3146 6.91249 8.07983 6.91249C4.84504 6.91249 1.24098 5.73245 1.24098 4.03867Z" fill="#0C86FF"/>
</svg>
