<svg version="1.1" id="person-ghost-images" xmlns="http://www.w3.org/2000/svg" xmlns:xlink="http://www.w3.org/1999/xlink">
  <style>
    path {
      visibility: hidden;
    }

/**
     * NOTE: All media queries are 8px less than the image size,
     * due to the 4px + 4px borders on ghost entities.
     */
    @media (max-width: 24px) {
      .person-ghost-32 {
        visibility: visible;
      }
    }

    @media (min-width: 25px) and (max-width: 32px) {
      .person-ghost-40 {
        visibility: visible;
      }
    }

    @media (min-width: 33px) and (max-width: 40px) {
      .person-ghost-48 {
        visibility: visible;
      }
    }

    @media (min-width: 41px) and (max-width: 48px) {
      .person-ghost-56 {
        visibility: visible;
      }
    }

    @media (min-width: 49px) and (max-width: 64px) {
      .person-ghost-72 {
        visibility: visible;
      }
    }

    @media (min-width: 65px) and (max-width: 80px) {
      .person-ghost-88 {
        visibility: visible;
      }
    }

    @media (min-width: 81px) and (max-width: 96px) {
      .person-ghost-104 {
        visibility: visible;
      }
    }

    @media (min-width: 97px) {
      .person-ghost-128 {
        visibility: visible;
      }
    }
  </style>

  <symbol id="person-ghost-32" viewBox="0 0 32 32">
    <path class="person-ghost-32" opacity="0.55" fill="#FFFFFF" style="fill-rule:evenodd;clip-rule:evenodd;" d="M19.68,16.67L18,16v-0.27l0.26-0.41c0.486-0.791,0.742-1.702,0.74-2.63V12
		c0-1.657-1.343-3-3-3s-3,1.343-3,3v0.69c-0.002,0.928,0.254,1.839,0.74,2.63L14,15.73V16l-1.68,0.67
		C10.935,17.197,10.014,18.518,10,20v1c0,0.552,0.448,1,1,1h10c0.552,0,1-0.448,1-1v-1C21.986,18.518,21.065,17.197,19.68,16.67z
		 M15,11.75c0-0.552,0.448-1,1-1s1,0.448,1,1v1.31c0,0.511-0.131,1.014-0.38,1.46l-0.33,0.6c-0.044,0.08-0.128,0.13-0.22,0.13h-0.14
		c-0.092,0-0.176-0.05-0.22-0.13l-0.33-0.6C15.131,14.074,15,13.571,15,13.06V11.75z M20,20h-8v-0.19c0.006-0.63,0.406-1.19,1-1.4
		l2.53-1v-0.46c0.122,0.028,0.245,0.045,0.37,0.05h0.2c0.135-0.003,0.269-0.02,0.4-0.05v0.5l2.53,1c0.594,0.21,0.994,0.77,1,1.4V20
		H20z"/>
  </symbol>

  <symbol id="person-ghost-40" viewBox="0 0 40 40">
    <path class="person-ghost-40" opacity="0.55" fill="#FFFFFF" d="M24.45,21l-2.605-1.004l0.415-0.676c0.484-0.788,0.74-1.694,0.74-2.619v-1.532c0-1.625-1.217-3.08-2.839-3.165
		C18.431,11.914,17,13.29,17,15v1.701c0,0.925,0.256,1.831,0.74,2.619l0.427,0.695L15.55,21c-1.538,0.598-2.551,2.08-2.55,3.73V26
		c0,0.552,0.448,1,1,1h12c0.552,0,1-0.448,1-1v-1.27C27.001,23.08,25.988,21.598,24.45,21z M19,14.75c0-0.552,0.448-1,1-1
		s1,0.448,1,1v2.31c0,0.511-0.131,1.014-0.38,1.46l-0.33,0.6c-0.044,0.08-0.128,0.13-0.22,0.13h-0.14c-0.092,0-0.176-0.05-0.22-0.13
		l-0.33-0.6C19.131,18.074,19,17.571,19,17.06V14.75z M25,25H15v-0.38c-0.001-0.82,0.499-1.557,1.26-1.86L19,21.67v-0.89
		c0.273,0.137,0.575,0.22,0.891,0.22h0.219c0.316,0,0.617-0.083,0.891-0.22v0.89l2.72,1.05c0.769,0.297,1.278,1.035,1.28,1.86V25z"/>
  </symbol>

  <symbol id="person-ghost-48" viewBox="0 0 48 48">
    <path class="person-ghost-48" opacity="0.55" fill="#FFFFFF" style="fill-rule:evenodd;clip-rule:evenodd;" d="M30.45,26L27,24.66v-1.83c0.649-1.173,0.993-2.49,1-3.83v-1
		c0-2.209-1.791-4-4-4s-4,1.791-4,4v1c0.002,1.35,0.346,2.678,1,3.86v1.84L17.55,26c-1.538,0.598-2.551,2.08-2.55,3.73V32
		c0,0.552,0.448,1,1,1h16c0.552,0,1-0.448,1-1v-2.27C33.001,28.08,31.988,26.598,30.45,26z M22,17.85c0-1.105,0.895-2,2-2
		s2,0.895,2,2v1.3c0.003,0.994-0.241,1.973-0.71,2.85L25,22.6c-0.173,0.325-0.511,0.529-0.88,0.53h-0.2
		c-0.383,0.014-0.74-0.192-0.92-0.53L22.71,22c-0.468-0.874-0.711-1.849-0.71-2.84V17.85z M31,31H17v-1.38
		c-0.001-0.82,0.499-1.557,1.26-1.86L23,25.92v-1.1c0.321,0.116,0.659,0.177,1,0.18c0.341-0.003,0.679-0.064,1-0.18v1.1l4.72,1.8
		c0.769,0.297,1.278,1.035,1.28,1.86V31z"/>
  </symbol>

  <symbol id="person-ghost-56" viewBox="0 0 56 56">
    <path class="person-ghost-56" opacity="0.55" fill="#FFFFFF" d="M36.089,31.599l-5.118-1.932v-1.12c0.056-0.078,0.114-0.153,0.164-0.236l0.641-1.055c0.806-1.29,1.233-2.774,1.233-4.288
		v-1.767c0-2.869-2.239-5.195-5-5.195H28c-2.761,0-5,2.326-5,5.195v1.767c0,1.514,0.427,2.998,1.233,4.288l0.641,1.055
		c0.038,0.063,0.084,0.12,0.126,0.18v1.211l-5.082,1.908C18.163,32.269,17,33.948,17,35.823V37.5c0,0.828,0.672,1.5,1.5,1.5h19
		c0.828,0,1.5-0.672,1.5-1.5v-1.691C39,33.937,37.841,32.26,36.089,31.599z M37,37H19v-1.307c0-1.037,0.64-1.966,1.609-2.336
		l6.3-2.403L27,31v-0.08v-1.021c0.27,0.069,0.549,0.107,0.834,0.107h0.342c0.271,0,0.537-0.037,0.795-0.1l0,1.093l0.103-0.052
		l6.308,2.38C36.356,33.696,37,34.627,37,35.667V37z M25.039,21.108c0-1.74,1.328-3.156,2.961-3.156h0.01
		c1.633,0,2.961,1.416,2.961,3.156v1.954c0,1.132-0.319,2.241-0.937,3.229l-0.641,1.055c-0.272,0.448-0.727,0.715-1.217,0.715
		h-0.342c-0.49,0-0.945-0.267-1.217-0.715l-0.655-1.077c-0.604-0.966-0.923-2.075-0.923-3.207V21.108z"/>
  </symbol>

  <symbol id="person-ghost-72" viewBox="0 0 72 72">
    <path class="person-ghost-72" opacity="0.55" fill="#FFFFFF" d="M46.116,39.6L40,37.294v-1.738l0.522-0.858C41.488,33.152,42,31.373,42,29.558v-2.331C42,23.788,39.317,21,36.006,21
		h-0.012C32.684,21,30,23.788,30,27.227v2.331c0,1.815,0.512,3.594,1.479,5.14L32,35.557v1.756l-6.136,2.338
		C23.537,40.538,22,42.769,22,45.258V48.5c0,0.828,0.672,1.5,1.5,1.5h25c0.828,0,1.5-0.672,1.5-1.5v-3.286
		C50,42.717,48.453,40.481,46.116,39.6z M33,27.102c0-1.78,1.343-3.227,2.994-3.227h0.012c1.651,0,2.994,1.448,2.994,3.227v2.585
		c0,1.253-0.353,2.48-1.042,3.582l-0.768,1.265c-0.224,0.369-0.592,0.59-0.984,0.59h-0.41c-0.392,0-0.76-0.221-0.984-0.59
		l-0.789-1.298C33.354,32.168,33,30.94,33,29.688V27.102z M47,47H25v-1.895c0-1.249,0.774-2.367,1.942-2.807L35,39.262v-1.386
		c0.26,0.052,0.525,0.088,0.795,0.088h0.41c0.27,0,0.535-0.035,0.795-0.088v1.37l8.058,3.036C46.226,42.722,47,43.841,47,45.09V47z"/>
  </symbol>

  <symbol id="person-ghost-88" viewBox="0 0 88 88">
    <path class="person-ghost-88" opacity="0.55" fill="#FFFFFF" d="M49,42.434l0.275-0.453C50.403,40.177,51,38.102,51,35.985v-2.719C51,29.253,47.869,26,44.007,26h-0.015
		C40.131,26,37,29.253,37,33.265v2.719c0,2.117,0.597,4.193,1.725,5.997L39,42.434v3.254l-6.516,2.509
		C29.783,49.238,28,51.834,28,54.73v3.77c0,0.828,0.672,1.5,1.5,1.5h29c0.828,0,1.5-0.672,1.5-1.5v-3.797
		c0-2.898-1.786-5.496-4.491-6.535L49,45.669V42.434z M40,33.14c0-2.352,1.791-4.265,3.993-4.265h0.015
		c2.202,0,3.993,1.913,3.993,4.265v3.141c0,1.555-0.439,3.079-1.289,4.439l-0.896,1.476c-0.353,0.582-0.942,0.929-1.575,0.929
		h-0.479c-0.633,0-1.222-0.347-1.575-0.929l-0.917-1.508C40.439,39.36,40,37.837,40,36.282V33.14z M57,54.534V57H31v-2.432
		c0-1.662,1.027-3.15,2.581-3.74L42,47.633v-2.008c0,0,0.687,0.375,1.761,0.375h0.479C45.406,46,46,45.625,46,45.625v1.996
		l8.411,3.17C55.969,51.378,57,52.869,57,54.534z"/>
  </symbol>

  <symbol id="person-ghost-104" viewBox="0 0 104 104">
    <path class="person-ghost-104" opacity="0.55" fill="#FFFFFF" d="M58,51.413l0.782-1.263C60.232,47.875,61,45.258,61,42.589v-3.429C61,34.101,56.975,30,52.009,30h-0.019
		C47.025,30,43,34.101,43,39.161v3.429c0,2.669,0.768,5.286,2.218,7.561L46,51.413v3.229l-8.582,3.339
		C34.151,59.251,32,62.397,32,65.902V70c0,1.105,0.895,2,2,2h36c1.105,0,2-0.895,2-2v-4.132c0-3.508-2.156-6.656-5.427-7.925
		L58,54.618V51.413z M47,39.036c0-2.846,2.239-5.161,4.991-5.161h0.019c2.752,0,4.991,2.315,4.991,5.161v3.679
		c0,1.907-0.55,3.778-1.591,5.411l-1.18,1.904c-0.425,0.686-1.144,1.096-1.922,1.096h-0.615c-0.778,0-1.496-0.41-1.922-1.096
		l-1.18-1.904C47.55,46.493,47,44.622,47,42.714V39.036z M68,65.68V68H36v-2.279c0-1.866,1.151-3.538,2.894-4.204L50,57.275v-2.518
		C50.545,54.913,51.112,55,51.692,55h0.615c0.58,0,1.147-0.087,1.692-0.243v2.503l11.097,4.212C66.844,62.136,68,63.81,68,65.68z"/>
  </symbol>

  <symbol id="person-ghost-128" viewBox="0 0 128 128">
    <path class="person-ghost-128" opacity="0.55" fill="#FFFFFF" d="M71,66.518v-2.295l1.289-2.043C74.062,59.45,75,56.31,75,53.107v-5.114C75,41.922,70.078,37,64.007,37h-0.015
		C57.922,37,53,41.922,53,47.993v5.114c0,3.203,0.938,6.344,2.711,9.073L57,64.223v2.323L46.069,70.78
		C42.411,72.196,40,75.716,40,79.639V85.5c0,1.381,1.119,2.5,2.5,2.5h43c1.381,0,2.5-1.119,2.5-2.5v-5.916
		c0-3.93-2.417-7.453-6.085-8.865C77.036,68.841,71,66.518,71,66.518z M58,47.868c0-3.304,2.686-5.993,5.989-5.993h0.023
		c3.302,0,5.989,2.688,5.989,5.993v5.364c0,2.236-0.658,4.432-1.904,6.35l-1.444,2.287c-0.496,0.786-1.347,1.256-2.276,1.256h-0.752
		c-0.929,0-1.78-0.469-2.276-1.256l-1.426-2.385l-0.018,0.098C58.658,57.664,58,55.468,58,53.232V47.868z M83,83H45v-3.477
		c0-1.86,1.145-3.529,2.88-4.198L62,69.878v-2.065C62.529,67.927,63.071,68,63.624,68h0.752c0.553,0,1.095-0.073,1.624-0.187v2.048
		l14.111,5.409C81.851,75.937,83,77.608,83,79.472V83z"/>
  </symbol>

  <use x="0" y="0" xlink:href="#person-ghost-32"></use>
  <use x="0" y="0" xlink:href="#person-ghost-40"></use>
  <use x="0" y="0" xlink:href="#person-ghost-48"></use>
  <use x="0" y="0" xlink:href="#person-ghost-56"></use>
  <use x="0" y="0" xlink:href="#person-ghost-72"></use>
  <use x="0" y="0" xlink:href="#person-ghost-88"></use>
  <use x="0" y="0" xlink:href="#person-ghost-104"></use>
  <use x="0" y="0" xlink:href="#person-ghost-128"></use>
</svg>
