<svg width="44" height="43" viewBox="0 0 44 43" fill="none" xmlns="http://www.w3.org/2000/svg">
<rect x="0.574219" y="0.21542" width="42.7006" height="42.7006" fill="white"/>
<path d="M38.7318 22.782C38.1182 26.3274 34.5512 28.4463 31.4509 28.4463C30.3397 28.4463 29.298 28.1959 28.3599 27.6998C26.9766 29.2963 24.9458 30.2066 22.7867 30.2066C21.2876 30.2066 19.8533 29.7662 18.6355 28.9285C18.5845 28.8945 18.5505 28.8342 18.5551 28.7724C18.5597 28.7075 18.5937 28.6518 18.6494 28.6225C19.2027 28.3118 19.7529 27.9069 20.2845 27.4232C20.3185 27.3938 20.3649 27.3768 20.4159 27.3768C20.4468 27.3768 20.4746 27.3814 20.5055 27.3984C21.2675 27.791 22.0387 27.9888 22.7883 27.9888C25.0061 27.9888 26.8082 26.2455 27.9658 24.9302C27.9998 24.8947 28.0461 24.8684 28.0971 24.8653H28.111C28.1574 24.8653 28.2053 24.8823 28.2424 24.9163C29.1527 25.7324 30.3412 26.1806 31.5854 26.1806C32.9129 26.1806 34.1648 25.6767 35.1107 24.7664C35.1493 24.7293 35.1617 24.7185 35.1818 24.6984C35.7722 24.1374 36.1276 23.4636 36.3394 22.7047C36.361 22.6228 36.4383 22.5672 36.5233 22.5672H38.5464C38.6004 22.5672 38.6561 22.5934 38.6901 22.6321C38.7287 22.6753 38.7457 22.731 38.7334 22.782H38.7318Z" fill="url(#paint0_linear_5104_39175)"/>
<path d="M13.992 28.3335C12.3182 28.3335 10.7603 27.6596 9.21943 26.2841C8.13448 25.2486 7.4359 23.9349 7.19326 22.4883H5.56274C5.46073 22.4883 5.37109 22.408 5.37109 22.3121V20.5317C5.37109 20.4297 5.45301 20.3478 5.55501 20.3478H7.19326C7.57655 17.079 10.8546 14.413 14.502 14.413C15.621 14.413 16.6688 14.6696 17.6054 15.1796C18.9933 13.597 21.0241 12.6898 23.1816 12.6898C24.6761 12.6898 26.115 13.1302 27.3329 13.9602C27.3839 13.9942 27.4132 14.0545 27.4132 14.1147C27.4086 14.175 27.3746 14.2353 27.319 14.2646C26.7657 14.5737 26.2155 14.9756 25.6838 15.4547C25.6498 15.4841 25.6034 15.5026 25.5524 15.5026C25.5215 15.5026 25.4922 15.498 25.4628 15.481C24.7009 15.0915 23.9343 14.8952 23.1847 14.8952C21.0055 14.8952 19.273 16.5026 18.0088 17.9074C17.9748 17.9461 17.9238 17.9723 17.8728 17.9723H17.8635C17.8125 17.9723 17.7661 17.9553 17.7275 17.9213C16.8713 17.1208 15.7137 16.6818 14.4711 16.6818C12.4063 16.6818 10.0478 17.9399 9.54553 20.3524H14.2964C14.3984 20.3524 14.485 20.4343 14.4881 20.5317L14.5005 22.3121C14.5005 22.3616 14.4788 22.4095 14.4448 22.442C14.4062 22.476 14.3598 22.493 14.3088 22.493H9.53317C10.0571 24.8452 12.4156 26.0739 14.4711 26.0739C15.791 26.0739 16.5204 25.924 17.8681 24.7231L21.3254 21.4065C24.4922 18.1408 28.0778 14.4408 31.9725 14.4408C33.6463 14.4408 35.2042 15.11 36.7404 16.4825C36.7574 16.4948 36.7791 16.5072 36.7914 16.5211C37.7234 17.4422 38.3756 18.5782 38.6723 19.8161C38.6893 19.8702 38.6723 19.9259 38.6383 19.9676C38.5997 20.014 38.544 20.0356 38.4899 20.0356H36.5426C36.4576 20.0356 36.385 19.9846 36.3587 19.9089C35.7374 18.011 33.7498 16.6803 31.5228 16.6803C30.189 16.6803 28.9572 17.1779 28.0623 18.0682C28.0623 18.0682 25.8353 20.1191 24.6097 21.3864C21.4506 24.649 17.8759 28.335 13.9889 28.3397L13.992 28.3335Z" fill="#0C86FF"/>
<defs>
<linearGradient id="paint0_linear_5104_39175" x1="18.5551" y1="26.3861" x2="38.7365" y2="26.3861" gradientUnits="userSpaceOnUse">
<stop stop-color="#0C86FF"/>
<stop offset="1" stop-color="#0A42E7"/>
</linearGradient>
</defs>
</svg>
