<?xml version="1.0" encoding="utf-8"?>
<!-- Generator: Adobe Illustrator 19.0.0, SVG Export Plug-In . SVG Version: 6.00 Build 0)  -->
<svg version="1.1" id="Layer_1" xmlns="http://www.w3.org/2000/svg" xmlns:xlink="http://www.w3.org/1999/xlink" x="0px" y="0px"
	 viewBox="0 0 200 100" style="enable-background:new 0 0 200 100;" xml:space="preserve">
<style type="text/css">
	.st0{fill:#FFFFFF;}
	.st1{fill:url(#XMLID_28_);}
	.st2{fill:url(#XMLID_29_);}
	.st3{fill:url(#XMLID_30_);}
	.st4{fill:#EDEDED;}
	.st5{fill:url(#XMLID_31_);}
	.st6{fill:url(#XMLID_32_);}
</style>
<g id="XMLID_86_">
	<path id="XMLID_100_" class="st0" d="M137.2,32.5c0.1-0.1,0.2-0.2,0.3-0.2c4.8-4.8,11.2-7.5,18-7.5c10.3,0,19.2,6.2,23.2,15l21.4,0
		c-4.8-20.2-23-35.3-44.5-35.3c-12,0-23.4,4.6-32,13.1c-0.1,0.1-0.2,0.2-0.3,0.3L73.6,67.5c-0.1,0.1-0.2,0.2-0.3,0.2
		c-4.8,4.8-11.2,7.5-18,7.5C41.5,75.2,30.1,63.9,30,50c0.1-13.9,11.5-25.2,25.4-25.2c6.8,0,13.2,2.6,18,7.5c0.1,0.1,0.2,0.2,0.3,0.2
		L87,45.9l14.4-14.4L87.8,17.9c-0.1-0.1-0.2-0.2-0.3-0.3c-8.6-8.4-20-13.1-32-13.1C30.3,4.5,9.8,24.9,9.7,50
		c0.2,25.1,20.7,45.5,45.7,45.5c12.1,0,23.4-4.6,32-13.1c0.1-0.1,0.2-0.2,0.3-0.3L137.2,32.5z"/>
	<linearGradient id="XMLID_28_" gradientUnits="userSpaceOnUse" x1="27.375" y1="49.6478" x2="120.4015" y2="49.6478">
		<stop  offset="0" style="stop-color:#B5B5B5"/>
		<stop  offset="0.7903" style="stop-color:#C7C7C7;stop-opacity:0"/>
	</linearGradient>
	<path id="XMLID_99_" class="st1" d="M58.4,81.3c-22,1.1-31-16-31-31.3c0-16.5,8.4-32.1,28.1-32.1c18.2,0,31.5,28,31.5,28L73.6,32.5
		c-0.1-0.1-0.2-0.2-0.3-0.2c-4.8-4.8-11.2-7.5-18-7.5C41.5,24.8,30.1,36.1,30,50c0.1,13.9,11.5,25.2,25.4,25.2
		c6.8,0,13.2-2.6,18-7.5l14.4-14.4c0,0,32.3-32.4,32.6-32.7C82.2,62,83.2,80.1,58.4,81.3z"/>
	<path id="XMLID_98_" class="st0" d="M178.6,60.2c-4,8.8-12.9,15-23.2,15c-6.8,0-13.2-2.6-18-7.5c-0.1-0.1-0.2-0.2-0.3-0.2L123.8,54
		l-14.4,14.4l13.6,13.7c0.1,0.1,0.2,0.2,0.3,0.3c8.6,8.4,20,13.1,32,13.1c21.6,0,39.8-15.1,44.5-35.3L178.6,60.2z"/>
	
		<linearGradient id="XMLID_29_" gradientUnits="userSpaceOnUse" x1="23.7476" y1="-261.5397" x2="23.7476" y2="-247.9567" gradientTransform="matrix(1 0 0 -1 0 -215.1667)">
		<stop  offset="0" style="stop-color:#A1A1A1"/>
		<stop  offset="1" style="stop-color:#A1A1A1;stop-opacity:0"/>
	</linearGradient>
	<path id="XMLID_94_" class="st2" d="M37.7,32c-4.1,4-6.8,9.3-7.6,15.2H9.8c0.4-5.4,1.7-10.5,3.7-15.2H37.7z"/>
	<linearGradient id="XMLID_30_" gradientUnits="userSpaceOnUse" x1="23.7476" y1="53.6328" x2="23.7476" y2="67.2159">
		<stop  offset="0" style="stop-color:#A1A1A1"/>
		<stop  offset="1" style="stop-color:#A1A1A1;stop-opacity:0"/>
	</linearGradient>
	<path id="XMLID_93_" class="st3" d="M37.7,68c-4.1-4-6.8-9.3-7.6-15.2H9.8c0.4,5.4,1.7,10.5,3.7,15.2H37.7z"/>
	<path id="XMLID_91_" class="st4" d="M0,39.8l57.6,0l0,20.3L0,60.2V39.8z"/>
	<linearGradient id="XMLID_31_" gradientUnits="userSpaceOnUse" x1="87.7664" y1="50.5212" x2="178.6325" y2="50.5212">
		<stop  offset="0.2903" style="stop-color:#C7C7C7;stop-opacity:0"/>
		<stop  offset="1" style="stop-color:#878787"/>
	</linearGradient>
	<path id="XMLID_90_" class="st5" d="M137.5,32.3c4.8-4.8,11.2-7.5,18-7.5c10.3,0,19.2,6.2,23.2,15c0,0-6.8-21.6-22.3-20.9
		c-25.8,1.2-16.7,11.4-68.6,63.1c0.4-0.6,8.8-8.8,8.8-8.8L137.5,32.3z"/>
	
		<linearGradient id="XMLID_32_" gradientUnits="userSpaceOnUse" x1="123.8292" y1="-223.4119" x2="178.635" y2="-223.4119" gradientTransform="matrix(1 0 0 -1 -7.579403e-006 -155.8732)">
		<stop  offset="0.2903" style="stop-color:#C7C7C7;stop-opacity:0"/>
		<stop  offset="1" style="stop-color:#878787"/>
	</linearGradient>
	<path id="XMLID_89_" class="st6" d="M137.5,67.7c4.8,4.8,11.2,7.5,18,7.5c10.3,0,19.2-6.2,23.2-15c0,0-6,20.9-21.5,20.9
		c-17.6,0-16.5-9.8-33.3-27c0.4,0.6,1.9,1.9,1.9,1.9L137.5,67.7z"/>
</g>
</svg>
