<?xml version="1.0" encoding="utf-8"?>
<!-- Generator: Adobe Illustrator 19.0.0, SVG Export Plug-In . SVG Version: 6.00 Build 0)  -->
<svg version="1.1" id="Layer_1" xmlns="http://www.w3.org/2000/svg" xmlns:xlink="http://www.w3.org/1999/xlink" x="0px" y="0px"
	 viewBox="0 0 200 100" style="enable-background:new 0 0 200 100;" xml:space="preserve">
<style type="text/css">
	.st0{fill:#3498DB;}
</style>
<g id="XMLID_86_">
	<path id="XMLID_100_" class="st0" d="M137.2,32.5c0.1-0.1,0.2-0.2,0.3-0.2c4.8-4.8,11.2-7.5,18-7.5c10.3,0,19.2,6.2,23.2,15h21.4
		c-4.8-20.2-23-35.3-44.5-35.3c-12,0-23.4,4.6-32,13.1c-0.1,0.1-0.2,0.2-0.3,0.3L73.6,67.5c-0.1,0.1-0.2,0.2-0.3,0.2
		c-4.8,4.8-11.2,7.5-18,7.5C41.5,75.2,30.1,63.9,30,50c0.1-13.9,11.5-25.2,25.4-25.2c6.8,0,13.2,2.6,18,7.5c0.1,0.1,0.2,0.2,0.3,0.2
		L87,45.9l14.4-14.4L87.8,17.9c-0.1-0.1-0.2-0.2-0.3-0.3c-8.6-8.4-20-13.1-32-13.1C30.3,4.5,9.8,24.9,9.7,50
		c0.2,25.1,20.7,45.5,45.7,45.5c12.1,0,23.4-4.6,32-13.1c0.1-0.1,0.2-0.2,0.3-0.3L137.2,32.5z"/>
	<path id="XMLID_98_" class="st0" d="M178.6,60.2c-4,8.8-12.9,15-23.2,15c-6.8,0-13.2-2.6-18-7.5c-0.1-0.1-0.2-0.2-0.3-0.2L123.8,54
		l-14.4,14.4L123,82.1c0.1,0.1,0.2,0.2,0.3,0.3c8.6,8.4,20,13.1,32,13.1c21.6,0,39.8-15.1,44.5-35.3H178.6z"/>
	<path id="XMLID_91_" class="st0" d="M0,39.8h57.6v20.3L0,60.2V39.8z"/>
</g>
</svg>
