<svg width="34" height="19" viewBox="0 0 34 19" fill="none" xmlns="http://www.w3.org/2000/svg">
  <path
    d="M33.7318 10.782C33.1182 14.3274 29.5512 16.4463 26.4509 16.4463C25.3397 16.4463 24.298 16.1959 23.3599 15.6998C21.9766 17.2963 19.9458 18.2067 17.7867 18.2067C16.2876 18.2067 14.8533 17.7662 13.6355 16.9285C13.5845 16.8945 13.5505 16.8342 13.5551 16.7724C13.5597 16.7075 13.5937 16.6519 13.6494 16.6225C14.2027 16.3118 14.7529 15.9069 15.2845 15.4232C15.3185 15.3938 15.3649 15.3768 15.4159 15.3768C15.4468 15.3768 15.4746 15.3814 15.5055 15.3985C16.2675 15.791 17.0387 15.9888 17.7883 15.9888C20.0061 15.9888 21.8082 14.2455 22.9658 12.9303C22.9998 12.8947 23.0461 12.8684 23.0971 12.8654H23.111C23.1574 12.8654 23.2053 12.8824 23.2424 12.9164C24.1527 13.7324 25.3412 14.1806 26.5854 14.1806C27.9129 14.1806 29.1648 13.6767 30.1107 12.7664C30.1493 12.7293 30.1617 12.7185 30.1818 12.6984C30.7722 12.1374 31.1276 11.4636 31.3394 10.7047C31.361 10.6228 31.4383 10.5672 31.5233 10.5672H33.5464C33.6004 10.5672 33.6561 10.5934 33.6901 10.6321C33.7287 10.6754 33.7457 10.731 33.7334 10.782H33.7318Z"
    fill="#0C86FF"
  />
  <path
    d="M8.99198 16.3335C7.31819 16.3335 5.76031 15.6596 4.21943 14.2841C3.13448 13.2486 2.4359 11.9349 2.19326 10.4883H0.562739C0.460734 10.4883 0.371094 10.408 0.371094 10.3122V8.53172C0.371094 8.42972 0.453006 8.3478 0.55501 8.3478H2.19326C2.57655 5.07904 5.85458 2.41302 9.502 2.41302C10.621 2.41302 11.6688 2.66958 12.6054 3.1796C13.9933 1.59699 16.0241 0.689774 18.1816 0.689774C19.6761 0.689774 21.115 1.13025 22.3329 1.96019C22.3839 1.99419 22.4132 2.05446 22.4132 2.11474C22.4086 2.17501 22.3746 2.23529 22.319 2.26465C21.7657 2.57376 21.2155 2.97559 20.6838 3.4547C20.6498 3.48407 20.6034 3.50261 20.5524 3.50261C20.5215 3.50261 20.4922 3.49798 20.4628 3.48097C19.7009 3.0915 18.9343 2.89522 18.1847 2.89522C16.0055 2.89522 14.273 4.50256 13.0088 5.90743C12.9748 5.94607 12.9238 5.97235 12.8728 5.97235H12.8635C12.8125 5.97235 12.7661 5.95534 12.7275 5.92134C11.8713 5.12077 10.7137 4.68184 9.47109 4.68184C7.40628 4.68184 5.04782 5.93989 4.54553 8.35244H9.29644C9.39845 8.35244 9.485 8.43435 9.48809 8.53172L9.50045 10.3122C9.50045 10.3616 9.47882 10.4095 9.44482 10.442C9.40618 10.476 9.35981 10.493 9.30881 10.493H4.53317C5.0571 12.8453 7.41555 14.0739 9.47109 14.0739C10.791 14.0739 11.5204 13.924 12.8681 12.7232L16.3254 9.40648C19.4922 6.14081 23.0778 2.44084 26.9725 2.44084C28.6463 2.44084 30.2042 3.11005 31.7404 4.48247C31.7574 4.49483 31.7791 4.5072 31.7914 4.52111C32.7234 5.44223 33.3756 6.57819 33.6723 7.81615C33.6893 7.87024 33.6723 7.92588 33.6383 7.96761C33.5997 8.01397 33.544 8.03561 33.4899 8.03561H31.5426C31.4576 8.03561 31.385 7.98461 31.3587 7.90888C30.7374 6.01098 28.7498 4.68029 26.5228 4.68029C25.189 4.68029 23.9572 5.17795 23.0623 6.06817C23.0623 6.06817 20.8353 8.11907 19.6097 9.38639C16.4506 12.649 12.8759 16.335 8.98889 16.3397L8.99198 16.3335Z"
    fill="white"
  />
</svg>
